<?xml version="1.0" standalone="no"?>
<!DOCTYPE svg PUBLIC "-//W3C//DTD SVG 1.1//EN" "http://www.w3.org/Graphics/SVG/1.1/DTD/svg11.dtd" >
<svg>
<metadata>
Created by FontForge 20090622 at Tue May 15 15:31:44 2018
 By deploy user
&#194;&#169; 2014 Sergiy S. Tkachenko / 4th february
&#194;&#169; 2014 FirstSiteGuide.com
http://creativecommons.org/licenses/by-nd/4.0/
</metadata>
<defs>
<font id="BloggerSans-Italic" horiz-adv-x="250" >
  <font-face 
    font-family="Blogger Sans"
    font-weight="400"
    font-style="italic"
    font-stretch="squinchy"
    units-per-em="1000"
    panose-1="2 0 5 6 3 0 0 2 0 4"
    ascent="760"
    descent="-240"
    x-height="505"
    cap-height="706"
    bbox="-57.2857 -240 870 943"
    underline-thickness="20"
    underline-position="-123"
    unicode-range="U+0020-U+F0434"
  />
<missing-glyph horiz-adv-x="760" 
 />
    <glyph glyph-name="uni0457_uni0457" unicode="&#x457;&#x457;" horiz-adv-x="480" 
d="M379 625q0 -25 -18 -42.5t-43 -17.5q-19 0 -32 14t-13 34q0 23 18.5 40.5t41.5 17.5q20 0 33 -13t13 -33zM168 625q0 -25 -18 -42.5t-43 -17.5q-19 0 -32 14t-13 34q0 23 18 40.5t42 17.5q20 0 33 -13t13 -33zM96 94l53 378q2 16 15 27.5t29 11.5t26 -11.5t8 -27.5
l-53 -378q-5 -33 7 -47q5 -8 5 -16q0 -16 -12.5 -27.5t-29.5 -11.5q-63 0 -48 102zM591 625q0 -24 -18.5 -42t-42.5 -18q-20 0 -33 14t-13 34q0 23 18.5 40.5t42.5 17.5q20 0 33 -13t13 -33zM331 94l53 378q2 16 15 27.5t29 11.5t26 -11.5t8 -27.5l-53 -378q-5 -33 7 -47
q5 -7 5 -16q0 -16 -12.5 -27.5t-29.5 -11.5q-63 0 -48 102z" />
    <glyph glyph-name="ff" unicode="ff" horiz-adv-x="598" 
d="M318 -177l100 714q13 91 67.5 138t134.5 50q9 1 20.5 0t27.5 -4t26.5 -12.5t10.5 -24.5q0 -18 -13.5 -29.5t-30.5 -11.5q-7 0 -26 3.5t-34 3.5q-42 0 -70 -30t-34 -75l-9 -62h105q13 0 22 -9t9 -23q0 -17 -13 -29.5t-29 -12.5h-104l-82 -586q-2 -17 -13.5 -27.5
t-30.5 -10.5t-27.5 10.5t-6.5 27.5zM49 -177l100 714q13 91 67.5 138t134.5 50q9 1 20.5 0t27.5 -4t26.5 -12.5t10.5 -24.5q0 -18 -13.5 -29.5t-30.5 -11.5q-7 0 -26 3.5t-34 3.5q-42 0 -70 -30t-34 -75l-9 -62h105q13 0 22 -9t9 -23q0 -17 -13 -29.5t-29 -12.5h-104
l-82 -586q-2 -17 -13.5 -27.5t-30.5 -10.5t-27.5 10.5t-6.5 27.5z" />
    <glyph glyph-name="fi" unicode="fi" horiz-adv-x="517" 
d="M49 -177l100 714q13 91 62 138t120 50q9 1 20.5 0t27.5 -4t26.5 -12.5t10.5 -24.5q0 -18 -13.5 -29.5t-30.5 -11.5q-7 0 -26 3.5t-34 3.5q-32 0 -55 -30t-29 -75l-9 -62h105q13 0 22 -9t9 -23q0 -18 -12.5 -30t-29.5 -12h-104l-82 -586q-2 -16 -14 -27t-30 -11t-27 11
t-7 27zM544 674q0 -22 -16.5 -38t-38.5 -16q-18 0 -30 12.5t-12 30.5q0 22 16.5 37.5t38.5 15.5q19 0 30.5 -12t11.5 -30zM376 94l53 378q2 16 15.5 27.5t29.5 11.5t25.5 -11.5t7.5 -27.5l-53 -378q-5 -33 7 -47q5 -7 5 -16q0 -16 -12 -27.5t-29 -11.5q-64 0 -49 102z" />
    <glyph glyph-name="fl" unicode="fl" horiz-adv-x="517" 
d="M49 -177l100 714q13 91 62 138t120 50q9 1 20.5 0t27.5 -4t26.5 -12.5t10.5 -24.5q0 -18 -13.5 -29.5t-30.5 -11.5q-7 0 -26 3.5t-34 3.5q-32 0 -55 -30t-29 -75l-9 -62h105q13 0 22 -9t9 -23q0 -18 -12.5 -30t-29.5 -12h-104l-82 -586q-2 -16 -14 -27t-30 -11t-27 11
t-7 27zM376 94l83 592q2 16 15.5 27.5t29.5 11.5t25.5 -11t7.5 -28l-83 -592q-4 -31 7 -47q5 -7 5 -17q0 -15 -12.5 -26.5t-28.5 -11.5q-64 0 -49 102z" />
    <glyph glyph-name="ffi" unicode="ffi" horiz-adv-x="754" 
d="M307 -177l100 714q13 91 62 138t120 50q7 1 15.5 0t21 -4t20.5 -12t8 -23q0 -19 -13 -31t-31 -12q-5 0 -17.5 3.5t-22.5 3.5q-32 0 -55 -30t-29 -75l-9 -62h105q13 0 22 -9t9 -23q0 -18 -12.5 -30t-29.5 -12h-104l-82 -586q-2 -16 -14 -27t-30 -11t-27 11t-7 27zM49 -177
l100 714q13 91 67.5 138t134.5 50q9 1 20.5 0t27.5 -4t26.5 -12.5t10.5 -24.5q0 -18 -13.5 -29.5t-30.5 -11.5q-7 0 -26 3.5t-34 3.5q-42 0 -70 -30t-34 -75l-9 -62h105q13 0 22 -9.5t9 -23.5q0 -17 -13 -29t-29 -12h-104l-82 -586q-2 -17 -13.5 -27.5t-30.5 -10.5
t-27.5 10.5t-6.5 27.5zM782 674q0 -22 -16.5 -38t-38.5 -16q-18 0 -30 12.5t-12 30.5q0 22 16.5 37.5t38.5 15.5q19 0 30.5 -12t11.5 -30zM614 94l53 378q2 16 15.5 27.5t29.5 11.5t25.5 -11.5t7.5 -27.5l-53 -378q-5 -33 7 -47q5 -8 5 -16q0 -16 -12 -27.5t-29 -11.5
q-64 0 -49 102z" />
    <glyph glyph-name="ffl" unicode="ffl" horiz-adv-x="785" 
d="M317 -177l100 714q13 91 62 138t120 50q9 1 20.5 0t27.5 -4t26.5 -12.5t10.5 -24.5q0 -18 -13.5 -29.5t-30.5 -11.5q-7 0 -26 3.5t-34 3.5q-32 0 -55 -30t-29 -75l-9 -62h105q13 0 22 -9t9 -23q0 -18 -12.5 -30t-29.5 -12h-104l-82 -586q-2 -16 -14 -27t-30 -11t-27 11
t-7 27zM644 94l83 592q2 16 15.5 27.5t29.5 11.5t25.5 -11t7.5 -28l-83 -592q-5 -33 7 -47q5 -8 5 -16q0 -16 -12 -27.5t-29 -11.5q-64 0 -49 102zM49 -177l100 714q13 91 67.5 138t134.5 50q9 1 20.5 0t27.5 -4t26.5 -12.5t10.5 -24.5q0 -18 -13.5 -29.5t-30.5 -11.5
q-7 0 -26 3.5t-34 3.5q-42 0 -70 -30t-34 -75l-9 -62h105q13 0 22 -9t9 -23q0 -17 -13 -29.5t-29 -12.5h-104l-82 -586q-2 -17 -13.5 -27.5t-30.5 -10.5t-27.5 10.5t-6.5 27.5z" />
    <glyph glyph-name=".notdef" horiz-adv-x="760" 
 />
    <glyph glyph-name=".null" horiz-adv-x="0" 
 />
    <glyph glyph-name="nonmarkingreturn" horiz-adv-x="333" 
 />
    <glyph glyph-name="space" unicode=" " horiz-adv-x="300" 
 />
    <glyph glyph-name="exclam" unicode="!" horiz-adv-x="227" 
d="M111 202l57 473q2 16 16 28t30 12t26 -12t8 -28l-76 -473q-2 -13 -12.5 -22.5t-22.5 -9.5q-13 0 -20.5 9.5t-5.5 22.5zM175 51q0 -25 -18.5 -43t-42.5 -18q-20 0 -33.5 14.5t-13.5 34.5q0 24 18.5 41.5t43.5 17.5q20 0 33 -13.5t13 -33.5z" />
    <glyph glyph-name="quotedbl" unicode="&#x22;" horiz-adv-x="342" 
d="M124 485l64 243q4 14 19 23t31 7q17 -3 25.5 -15.5t2.5 -26.5l-89 -241q-5 -11 -15.5 -18t-20.5 -6q-11 2 -15.5 12t-1.5 22zM254 485l64 243q4 14 19 23t31 7q17 -3 25.5 -15.5t2.5 -26.5l-89 -241q-5 -11 -15.5 -18t-20.5 -6q-11 2 -15.5 12t-1.5 22z" />
    <glyph glyph-name="numbersign" unicode="#" horiz-adv-x="541" 
d="M179 483h60l74 201q11 28 41 28q12 -2 20 -11t8 -21q0 -4 -3 -13l-67 -184h107l74 201q11 28 41 28q28 -4 28 -32q0 -4 -3 -13l-67 -184h35q14 0 24 -10t10 -25q0 -18 -13.5 -30.5t-31.5 -12.5h-52l-37 -102h45q14 0 24 -10t10 -25q0 -18 -13.5 -30.5t-31.5 -12.5h-62
l-73 -203q-12 -29 -42 -29q-14 2 -22 12.5t-6 25.5l3 9l67 185h-107l-73 -203q-12 -29 -42 -29q-13 2 -21.5 12.5t-6.5 25.5l3 9l67 185h-33q-15 0 -24.5 10t-9.5 24q0 18 14 31t31 13h50l37 102h-43q-15 0 -24.5 10t-9.5 24q0 18 14 31t31 13zM284 405l-37 -102h107l37 102
h-107z" />
    <glyph glyph-name="dollar" unicode="$" horiz-adv-x="500" 
d="M221 -28l7 48q-61 2 -113.5 19.5t-52.5 50.5q0 16 13 29.5t30 13.5q8 0 49 -16.5t85 -18.5l32 228q-35 12 -57 22.5t-46.5 28t-36.5 44.5t-12 62q0 87 54.5 140t147.5 61l7 49q1 10 10 18t20 8q10 0 17 -7.5t5 -18.5l-7 -49q137 -10 137 -63q0 -17 -13 -29.5t-32 -12.5
q-13 0 -43 12t-60 15l-30 -215q35 -13 56.5 -23t46.5 -28t37 -45t12 -62q0 -87 -57 -143t-147 -68l-7 -50q-2 -11 -10.5 -18.5t-18.5 -7.5q-11 0 -17.5 8t-5.5 18zM398 218q0 54 -46 76q-20 10 -32 14l-29 -207q107 17 107 117zM251 423q9 -5 31 -15l28 197
q-106 -15 -106 -106q0 -51 47 -76z" />
    <glyph glyph-name="percent" unicode="%" horiz-adv-x="703" 
d="M252 396q-58 0 -89.5 37.5t-31.5 96.5q0 79 45 132.5t121 53.5q59 0 90 -37t31 -97q0 -79 -45 -132.5t-121 -53.5zM506 -10q-59 0 -90 37t-31 97q0 79 45 132.5t121 53.5q58 0 89 -37t31 -97q0 -79 -44.5 -132.5t-120.5 -53.5zM645 664l-428 -647q-17 -27 -45 -18
q-13 4 -17.5 17.5t0.5 27.5l6 8l427 646q18 26 46 17q19 -6 19 -32q0 -14 -8 -19zM261 458q45 0 67 33t22 89q0 74 -62 74q-44 0 -66.5 -32.5t-22.5 -87.5q0 -76 62 -76zM514 52q45 0 67 33t22 89q0 74 -61 74q-44 0 -66.5 -32.5t-22.5 -87.5q0 -76 61 -76z" />
    <glyph glyph-name="ampersand" unicode="&#x26;" horiz-adv-x="642" 
d="M599 30q-2 -16 -15 -28t-29 -12q-17 0 -32 21l-53 76q-108 -97 -218 -97q-83 0 -132.5 47t-49.5 120q0 57 29.5 105t65 75t87.5 56q-61 78 -61 146q0 77 58.5 125.5t135.5 48.5q61 0 103 -36.5t42 -83.5q0 -21 -14 -34.5t-31 -13.5q-27 0 -31 30q-4 27 -24 47t-52 20
q-42 0 -75 -27t-33 -68q0 -42 61 -125l155 -213q34 43 76 116q10 17 17.5 21t21.5 4q13 0 22.5 -10t9.5 -24q0 -48 -105 -169l65 -93q7 -10 6 -24zM429 146l-139 190q-64 -33 -102.5 -71t-38.5 -93q0 -46 29 -78t78 -32q86 0 173 84z" />
    <glyph glyph-name="quotesingle" unicode="'" horiz-adv-x="222" 
d="M124 485l64 243q4 14 19 23t31 7q17 -3 25.5 -15.5t2.5 -26.5l-89 -241q-5 -11 -15.5 -18t-20.5 -6q-11 2 -15.5 12t-1.5 22z" />
    <glyph glyph-name="parenleft" unicode="(" horiz-adv-x="276" 
d="M175 221q-31 -221 41 -392q6 -16 6 -24q0 -17 -12 -31t-32 -14q-21 0 -30 19q-88 187 -52 442t176 442q15 19 36 19q33 0 33 -36q0 -12 -15 -33q-120 -170 -151 -392z" />
    <glyph glyph-name="parenright" unicode=")" horiz-adv-x="275" 
d="M162 221q32 220 -40 392q-7 19 -7 24q0 17 12 31t32 14q22 0 31 -19q88 -188 51 -442q-36 -255 -176 -442q-15 -19 -35 -19q-33 0 -33 36q0 13 14 33q120 170 151 392z" />
    <glyph glyph-name="asterisk" unicode="*" horiz-adv-x="495" 
d="M437 595q6 -15 -2.5 -27.5t-23.5 -17.5l-116 -32l75 -95q10 -11 9.5 -26t-15.5 -25q-28 -21 -50 9l-67 103q-11 -16 -33.5 -51.5t-33.5 -51.5q-22 -27 -50 -9q-13 9 -14 24.5t8 26.5l76 95l-117 32q-15 5 -23 17t-3 28q11 34 47 22l54 -21.5t60 -22.5l-6 122q-1 15 8 26
t27 11t27 -11t8 -26l-6 -122q21 7 60 22.5l54 21.5q36 12 47 -22z" />
    <glyph glyph-name="plus" unicode="+" horiz-adv-x="500" 
d="M251 145v170h-160q-17 0 -28 11.5t-11 27.5t12 27.5t27 11.5h160v170q0 15 11.5 27t27.5 12t27.5 -11t11.5 -28v-170h160q15 0 27 -11.5t12 -27.5t-11 -27.5t-28 -11.5h-160v-170q0 -17 -11.5 -28t-27.5 -11t-27.5 12t-11.5 27z" />
    <glyph glyph-name="comma" unicode="," horiz-adv-x="230" 
d="M174 51q0 -44 -38 -107t-61 -63q-17 0 -17 14q0 18 21 47t29 48q-19 2 -30.5 15.5t-11.5 32.5q0 24 19 42t43 18q20 0 33 -13.5t13 -33.5z" />
    <glyph glyph-name="hyphen" unicode="-" horiz-adv-x="399" 
d="M400 295q0 -15 -10.5 -25.5t-25.5 -10.5h-249q-16 0 -26.5 10.5t-10.5 25.5t10.5 26t26.5 11h249q15 0 25.5 -11t10.5 -26z" />
    <glyph glyph-name="period" unicode="." horiz-adv-x="230" 
d="M175 51q0 -25 -18.5 -43t-42.5 -18q-20 0 -33.5 14.5t-13.5 34.5q0 24 18.5 41.5t43.5 17.5q20 0 33 -13.5t13 -33.5z" />
    <glyph glyph-name="slash" unicode="/" horiz-adv-x="280" 
d="M402 707l-359 -725q-15 -30 -45 -25q-26 5 -26 34q0 11 5 18l358 724q15 29 46 24q11 -2 18 -12t7 -22q0 -8 -4 -16z" />
    <glyph glyph-name="zero" unicode="0" horiz-adv-x="500" 
d="M342 652q-62 0 -97.5 -40t-45.5 -108l-43 -306q-8 -61 18.5 -97.5t84.5 -36.5t95.5 36.5t45.5 97.5l43 306q10 68 -14.5 108t-86.5 40zM352 725q100 0 141.5 -64t27.5 -165l-42 -298q-12 -90 -74 -149t-156 -59t-139 59t-33 149l42 298q14 101 73.5 165t159.5 64z" />
    <glyph glyph-name="one" unicode="1" horiz-adv-x="500" 
d="M276 31l82 581l-135 -79q-33 -20 -47 -20q-12 0 -21 9.5t-9 21.5q0 24 24 38l214 126q13 7 25 7q18 0 28.5 -12.5t8.5 -30.5l-90 -641q-2 -16 -16 -28t-30 -12t-26 12t-8 28z" />
    <glyph glyph-name="two" unicode="2" horiz-adv-x="500" 
d="M459 42q0 -17 -13.5 -29.5t-30.5 -12.5h-329q-16 0 -26 10t-10 26q0 23 12 45q32 58 84 111t123.5 113.5t102.5 90.5q75 75 75 147q0 49 -27.5 79t-80.5 30q-51 0 -97 -19q-10 -4 -23.5 -11.5t-23 -12t-17.5 -4.5q-14 0 -24 9t-10 24q0 24 32 42q78 45 174 45
q84 0 130.5 -46.5t46.5 -119.5q0 -113 -100 -210q-31 -30 -94.5 -83t-108.5 -98t-74 -92h275q15 0 24.5 -10t9.5 -24z" />
    <glyph glyph-name="three" unicode="3" horiz-adv-x="500" 
d="M505 632l-199 -217q80 -2 128 -46t48 -122q0 -42 -15 -85.5t-43 -82.5t-75.5 -63.5t-104.5 -24.5q-20 0 -46.5 3t-59.5 9.5t-55 21.5t-22 36q0 17 13 29.5t30 12.5q11 0 20 -6q54 -34 108 -34q46 0 80.5 16.5t53 43.5t27 55.5t8.5 58.5q0 54 -32 80.5t-87 26.5
q-26 0 -44 -6l-6 -3q-7 -3 -12 -3q-20 0 -27 21t10 40l211 233h-222q-15 0 -24.5 10t-9.5 24q0 18 13.5 32t31.5 14h279q17 0 27.5 -10.5t10.5 -28.5q0 -19 -15 -35z" />
    <glyph glyph-name="four" unicode="4" horiz-adv-x="500" 
d="M425 149l-16 -119q-2 -16 -15 -27.5t-30 -11.5q-16 0 -25.5 11t-7.5 28l16 119h-250q-15 0 -25 11t-10 27q0 12 12 32l260 481q13 23 37 23q14 0 24 -10.5t10 -25.5q0 -9 -4 -17l-242 -446h198l28 196q2 16 15 27.5t30 11.5q16 0 25.5 -11.5t7.5 -27.5l-28 -196h44
q14 0 23 -9.5t9 -23.5q0 -17 -13 -29.5t-30 -12.5h-43z" />
    <glyph glyph-name="five" unicode="5" horiz-adv-x="500" 
d="M483 258q0 -46 -15 -92t-43 -86t-75 -64.5t-105 -24.5q-20 0 -46.5 3t-59.5 9.5t-55.5 21.5t-22.5 36q0 17 13 29.5t30 12.5q11 0 20 -6q53 -34 108 -34q90 0 130.5 55.5t40.5 129.5q0 59 -29.5 89.5t-78.5 30.5q-38 0 -76 -20q-8 -4 -20 -12t-20.5 -12t-17.5 -4
q-17 0 -27 12.5t-7 30.5l52 299q4 20 19 32t33 12h241q42 0 42 -33q0 -21 -15.5 -31.5t-36.5 -10.5h-216l-38 -216q44 24 99 24q80 0 128 -48.5t48 -132.5z" />
    <glyph glyph-name="six" unicode="6" horiz-adv-x="500" 
d="M178 390q59 47 141 47q78 0 126 -47.5t48 -134.5q0 -109 -65 -187t-178 -78q-172 0 -172 242q0 140 29.5 246.5t94.5 171.5t159 65q17 0 38 -2t47.5 -7t44 -16t17.5 -27q0 -15 -13 -27.5t-28 -12.5q-7 0 -22 5q-45 15 -81 15q-44 0 -77.5 -19.5t-54.5 -55.5t-33.5 -79
t-20.5 -99zM163 305l-3 -24q-5 -57 -3.5 -104.5t29 -78t79.5 -30.5q76 0 112 53t36 125q0 57 -28.5 86t-78.5 29q-40 0 -79 -15.5t-64 -40.5z" />
    <glyph glyph-name="seven" unicode="7" horiz-adv-x="500" 
d="M544 670q0 -14 -7 -27l-337 -627q-12 -25 -40 -25q-15 0 -25 9.5t-10 24.5q0 8 6 20l316 582h-270q-14 0 -23.5 10.5t-9.5 24.5q0 18 13.5 31t30.5 13h320q16 0 26 -10.5t10 -25.5z" />
    <glyph glyph-name="eight" unicode="8" horiz-adv-x="500" 
d="M501 219q0 -97 -73 -163t-179 -66q-87 0 -141.5 49.5t-54.5 127.5q0 132 151 206q-78 52 -78 140q0 89 66.5 145t157.5 56q75 0 124 -43.5t49 -112.5q0 -110 -121 -179q99 -58 99 -160zM444 546q0 43 -29 70t-74 27q-56 0 -96 -35t-40 -88q0 -43 30 -72t75 -38
q57 12 95.5 48.5t38.5 87.5zM421 211q0 51 -36 83.5t-90 43.5q-70 -13 -116 -55.5t-46 -102.5q0 -51 35.5 -84t90.5 -33q67 0 114.5 43t47.5 105z" />
    <glyph glyph-name="nine" unicode="9" horiz-adv-x="500" 
d="M421 315q-59 -47 -141 -47q-78 0 -126 46.5t-48 135.5q0 110 62 187.5t177 77.5q175 0 175 -246q0 -219 -69.5 -349t-212.5 -130q-46 0 -96.5 11.5t-50.5 40.5q0 14 12.5 27t28.5 13q7 0 22 -5q45 -15 81 -15q44 0 77.5 19.5t54.5 55.5t33.5 79t20.5 99zM436 400l3 24
q27 213 -108 213q-73 0 -109 -53.5t-36 -124.5q0 -57 28.5 -86t79.5 -29q40 0 78.5 15.5t63.5 40.5z" />
    <glyph glyph-name="colon" unicode=":" horiz-adv-x="230" 
d="M175 51q0 -25 -18.5 -43t-42.5 -18q-20 0 -33.5 14.5t-13.5 34.5q0 24 18.5 41.5t43.5 17.5q20 0 33 -13.5t13 -33.5zM217 351q0 -25 -18.5 -43t-42.5 -18q-20 0 -33.5 14.5t-13.5 34.5q0 24 18.5 41.5t43.5 17.5q20 0 33 -13.5t13 -33.5z" />
    <glyph glyph-name="semicolon" unicode=";" horiz-adv-x="230" 
d="M174 51q0 -44 -38 -107t-61 -63q-17 0 -17 14q0 18 21 47t29 48q-19 2 -30.5 15.5t-11.5 32.5q0 24 19 42t43 18q20 0 33 -13.5t13 -33.5zM217 351q0 -25 -18.5 -43t-42.5 -18q-20 0 -33.5 14.5t-13.5 34.5q0 24 18.5 41.5t43.5 17.5q20 0 33 -13.5t13 -33.5z" />
    <glyph glyph-name="less" unicode="&#x3c;" horiz-adv-x="625" 
d="M220 352l333 -180q23 -12 23 -33t-19.5 -36t-37.5 -5l-368 206q-13 8 -17.5 11t-10.5 11.5t-6 19.5q0 12 2.5 20t12 15.5t13.5 9.5l21 10l425 204q18 9 32 -1.5t14 -29.5q0 -26 -33 -42z" />
    <glyph glyph-name="equal" unicode="=" horiz-adv-x="500" 
d="M131 303h318q15 0 27 -11.5t12 -27.5t-11 -27.5t-28 -11.5h-318q-17 0 -28 11.5t-11 27.5t12 27.5t27 11.5zM131 483h318q15 0 27 -11.5t12 -27.5t-11 -27.5t-28 -11.5h-318q-17 0 -28 11.5t-11 27.5t12 27.5t27 11.5z" />
    <glyph glyph-name="greater" unicode="&#x3e;" horiz-adv-x="625" 
d="M120 172l384 180l-333 180q-23 12 -23 34q0 21 20 36t38 5l366 -205q14 -8 19 -12t10.5 -12t5.5 -19q0 -12 -3 -20.5t-12 -15.5t-13.5 -9.5t-19.5 -9.5l-425 -206q-18 -9 -32.5 2.5t-14.5 30.5q0 25 33 41z" />
    <glyph glyph-name="question" unicode="?" horiz-adv-x="462" 
d="M308 249q-7 -10 -11 -39q-2 -16 -16 -28t-30 -12q-15 0 -25 10.5t-10 25.5q0 21 12 43q11 21 27.5 43t29.5 35l36.5 36l33.5 33q74 78 74 147q0 49 -27.5 79t-79.5 30t-98 -19q-10 -4 -23.5 -11.5t-23 -12t-17.5 -4.5q-13 0 -23 9.5t-10 23.5q0 24 32 42q78 45 174 45
q83 0 129.5 -46.5t46.5 -119.5q0 -112 -100 -210q-12 -12 -35 -31t-39.5 -35.5t-26.5 -33.5zM288 51q0 -25 -18.5 -43t-42.5 -18q-20 0 -33.5 14.5t-13.5 34.5q0 24 18.5 41.5t43.5 17.5q19 0 32.5 -13.5t13.5 -33.5z" />
    <glyph glyph-name="at" unicode="@" horiz-adv-x="744" 
d="M514 14q-67 -27 -154 -27q-121 0 -189 74.5t-68 199.5q0 164 96 269t260 105q130 0 200 -75.5t70 -193.5q0 -91 -35 -149.5t-113 -58.5q-62 0 -86 43q-58 -53 -118 -53q-54 0 -83 37.5t-29 98.5q0 86 47 140t129 54q63 0 88.5 -36.5t25.5 -105.5q0 -57 7 -81.5t29 -24.5
q58 0 58 124q0 94 -51 151.5t-148 57.5q-125 0 -196.5 -82.5t-71.5 -212.5q0 -96 51.5 -152.5t150.5 -56.5q32 0 56.5 5t46.5 14t27 10q41 11 45 -22q3 -32 -45 -52zM476 296q0 62 -9 86t-40 24q-43 0 -63.5 -32.5t-20.5 -86.5q0 -69 51 -69q40 0 83 37q-1 11 -1 41z" />
    <glyph glyph-name="A" unicode="A" horiz-adv-x="549" 
d="M170 159l-62 -139q-6 -13 -18.5 -21.5t-23.5 -8.5q-16 0 -26.5 9.5t-10.5 25.5q0 13 5 20l281 617q25 53 60 53q21 0 30.5 -13.5t14.5 -39.5l108 -617v-3q1 -3 1 -5q0 -21 -14 -34t-34 -13q-12 0 -22.5 8.5t-12.5 21.5l-23 139h-253zM355 576l-150 -339h206z" />
    <glyph glyph-name="B" unicode="B" horiz-adv-x="542" 
d="M210 405h115q59 0 107 35.5t48 98.5q0 38 -25.5 63t-81.5 25h-132zM317 327h-118l-35 -249h122q81 0 124 38t43 100q0 53 -37 82t-99 29zM286 0h-165q-20 0 -32 14t-9 34l85 609q3 20 19 34t36 14h169q83 0 127 -46t44 -114q0 -70 -39.5 -111.5t-113.5 -70.5
q27 -9 45 -17.5t39 -24t32 -40.5t11 -58q0 -93 -69.5 -158t-178.5 -65z" />
    <glyph glyph-name="C" unicode="C" horiz-adv-x="482" 
d="M80 246l30 214q17 119 83 187t178 68q66 0 115.5 -24.5t49.5 -57.5q0 -16 -12 -27.5t-29 -11.5q-12 0 -34 17q-42 31 -96 31q-81 0 -121.5 -46.5t-53.5 -135.5l-30 -214q-13 -89 15 -135.5t109 -46.5q54 0 105 31q28 17 38 17q14 0 22.5 -9t8.5 -22q0 -36 -58.5 -63
t-130.5 -27q-112 0 -159 68t-30 187z" />
    <glyph glyph-name="D" unicode="D" horiz-adv-x="554" 
d="M545 264q-16 -115 -92 -189.5t-219 -74.5h-113q-20 0 -32 14.5t-9 33.5l85 610q3 20 19.5 34t35.5 14h113q74 0 125.5 -20.5t77.5 -57t34 -80.5t1 -97zM465 264l26 187q11 80 -24.5 128.5t-127.5 48.5h-98l-77 -550h98q93 0 142.5 51t60.5 135z" />
    <glyph glyph-name="E" unicode="E" horiz-adv-x="474" 
d="M448 45q0 -18 -14.5 -31.5t-32.5 -13.5h-265q-28 0 -43.5 11t-12.5 36l86 611q2 18 18 32.5t36 14.5h271q15 0 24.5 -10t9.5 -25q0 -18 -13.5 -30.5t-31.5 -12.5h-238l-33 -234h219q14 0 24 -10t10 -25q0 -18 -13.5 -30.5t-31.5 -12.5h-219l-34 -237h248q15 0 25.5 -9.5
t10.5 -23.5z" />
    <glyph glyph-name="F" unicode="F" horiz-adv-x="474" 
d="M197 315l-40 -285q-2 -16 -16 -28t-30 -12t-26 12t-8 28l88 628q2 18 18 32.5t36 14.5h271q15 0 25 -10.5t10 -24.5q0 -18 -14 -30.5t-32 -12.5h-238l-33 -234h219q14 0 24 -10t10 -25q0 -18 -13.5 -30.5t-31.5 -12.5h-219z" />
    <glyph glyph-name="G" unicode="G" horiz-adv-x="520" 
d="M190 460l-30 -214q-13 -89 15 -135.5t109 -46.5q65 0 118 37l30 215h-97q-14 0 -23.5 10t-9.5 24q0 17 13.5 29.5t30.5 12.5h119q25 0 39.5 -11.5t11.5 -34.5l-34 -239q-8 -56 -72.5 -86t-140.5 -30q-112 0 -159 68t-30 187l30 214q17 119 83 187t178 68
q66 0 115.5 -24.5t49.5 -57.5q0 -16 -12 -27.5t-29 -11.5q-12 0 -34 17q-42 31 -96 31q-81 0 -121.5 -46.5t-53.5 -135.5z" />
    <glyph glyph-name="H" unicode="H" horiz-adv-x="580" 
d="M510 31q-2 -17 -16 -29t-30 -12t-26 12.5t-8 28.5l40 283h-273l-40 -283q-2 -17 -16 -29t-30 -12t-26 12t-8 29l91 644q2 16 15.5 28t29.5 12t26.5 -12t8.5 -28l-40 -283h273l40 283q2 16 15.5 28t29.5 12t26.5 -12t8.5 -28z" />
    <glyph glyph-name="I" unicode="I" horiz-adv-x="227" 
d="M77 30l91 645q2 16 15.5 28t29.5 12t26.5 -12t8.5 -28l-91 -645q-2 -16 -16 -28t-30 -12t-26 12t-8 28z" />
    <glyph glyph-name="J" unicode="J" horiz-adv-x="385" 
d="M406 675l-63 -450q-16 -116 -70 -175.5t-165 -59.5q-79 0 -79 40q0 19 13.5 31.5t27.5 12.5q3 0 22.5 -3.5t37.5 -3.5q65 0 93 39t40 119l63 450q2 17 15.5 28.5t30.5 11.5q16 0 26 -12t8 -28z" />
    <glyph glyph-name="K" unicode="K" horiz-adv-x="498" 
d="M421 9l-173 315l-58 -61l-33 -232q-2 -17 -16 -29t-30 -12t-26 12t-8 29l91 644q2 16 15.5 28t29.5 12t26.5 -12t8.5 -28l-41 -291l297 312q15 19 38 19q14 0 24 -10.5t6 -29.5q-2 -12 -13 -25l-252 -264l186 -334q3 -8 3 -14q0 -17 -10.5 -32.5t-33.5 -15.5
q-21 0 -31 19z" />
    <glyph glyph-name="L" unicode="L" horiz-adv-x="448" 
d="M444 43q0 -18 -13 -30.5t-31 -12.5h-282q-18 0 -29.5 13t-9.5 32l89 630q2 16 16 28t30 12t26 -12t8 -28l-84 -598h247q14 0 23.5 -10t9.5 -24z" />
    <glyph glyph-name="M" unicode="M" horiz-adv-x="699" 
d="M722 673l-90 -644q-2 -16 -15.5 -27.5t-29.5 -11.5t-26.5 11.5t-8.5 27.5l68 487l-209 -344q-15 -24 -42 -24t-35 24l-113 344l-68 -487q-2 -16 -16.5 -27.5t-31.5 -11.5q-16 0 -25 11.5t-7 27.5l90 644q3 18 16.5 30t31.5 12q29 0 40 -26l136 -418l254 419q17 25 45 25
q18 0 28 -12.5t8 -29.5z" />
    <glyph glyph-name="N" unicode="N" horiz-adv-x="600" 
d="M480 -10q-27 0 -37 23l-214 533l-72 -515q-2 -16 -16 -28.5t-31 -12.5q-16 0 -25.5 12t-7.5 29l90 640q2 19 16 31.5t33 12.5q29 0 39 -24l213 -532l72 515q2 16 16 28.5t31 12.5q16 0 25.5 -12t7.5 -29l-89 -640q-3 -18 -17.5 -31t-33.5 -13z" />
    <glyph glyph-name="O" unicode="O" horiz-adv-x="551" 
d="M274 -10q-110 0 -160 72t-34 184l30 214q16 113 82.5 184t183.5 71t163.5 -71t30.5 -184l-30 -214q-16 -112 -86 -184t-180 -72zM365 637q-150 0 -175 -177l-30 -214q-12 -82 19 -130t106 -48t119 48t56 130l30 214q25 177 -125 177z" />
    <glyph glyph-name="P" unicode="P" horiz-adv-x="530" 
d="M304 260h-115l-32 -228q-2 -17 -16 -29.5t-30 -12.5t-26 12.5t-8 29.5l88 625q3 20 19.5 34t35.5 14h147q102 0 149.5 -52.5t47.5 -135.5q0 -120 -71.5 -188.5t-188.5 -68.5zM241 627l-41 -289h115q168 0 168 171q0 118 -127 118h-115z" />
    <glyph glyph-name="Q" unicode="Q" horiz-adv-x="551" 
d="M358 -177q-65 0 -96.5 46t-24.5 124q-91 12 -131.5 81.5t-26.5 171.5l30 214q16 113 82.5 184t183.5 71t163.5 -71t30.5 -184l-30 -214q-14 -100 -72.5 -169.5t-150.5 -82.5q-6 -53 10.5 -76t54.5 -23q5 0 16 0.5t13 0.5q34 0 34 -32q0 -19 -13 -28.5t-28 -11t-45 -1.5z
M364 637q-150 0 -175 -177l-30 -214q-12 -82 19 -130t106 -48t119 48t56 130l30 214q25 177 -125 177z" />
    <glyph glyph-name="R" unicode="R" horiz-adv-x="575" 
d="M584 535q0 -89 -49.5 -146t-134.5 -74l123 -263q2 -4 2 -17q0 -18 -17 -31t-32 -13q-22 0 -30 19l-135 300h-115l-39 -278q-2 -17 -16.5 -29.5t-30.5 -12.5t-25.5 12.5t-7.5 29.5l88 625q3 20 18.5 34t34.5 14h174q101 0 146.5 -48t45.5 -122zM503 525q0 102 -126 102
h-136l-34 -240h142q74 0 114 35.5t40 102.5z" />
    <glyph glyph-name="S" unicode="S" horiz-adv-x="486" 
d="M389 210q0 57 -45 82q-19 11 -54.5 23.5t-63 24t-55 30t-43 49.5t-15.5 73q0 101 63.5 162t168.5 61q22 0 46.5 -3t52 -9t45.5 -19.5t18 -32.5q0 -16 -13 -29t-33 -13q-11 0 -46.5 14t-74.5 14q-61 0 -102 -30t-41 -100q0 -55 46 -82q19 -11 55 -24t63.5 -24.5t55 -30
t43 -49t15.5 -72.5q0 -107 -72 -171t-179 -64q-59 0 -116.5 18t-57.5 52q0 16 13 29.5t29 13.5q8 0 53.5 -17.5t90.5 -17.5q74 0 113.5 37.5t39.5 104.5z" />
    <glyph glyph-name="T" unicode="T" horiz-adv-x="483" 
d="M205 30l84 597h-136q-15 0 -25 10t-10 25t14.5 29t31.5 14h352q15 0 25.5 -10t10.5 -25q0 -17 -14.5 -30t-32.5 -13h-136l-84 -597q-2 -16 -16 -28t-30 -12t-26 12t-8 28z" />
    <glyph glyph-name="U" unicode="U" horiz-adv-x="572" 
d="M539 230q-15 -106 -83.5 -173t-170.5 -67q-104 0 -153.5 67t-34.5 173l63 443q2 18 16 30t31 12q16 0 25.5 -12.5t7.5 -29.5l-63 -443q-10 -75 19.5 -118.5t99.5 -43.5q69 0 110.5 44t51.5 118l63 443q2 17 15.5 29.5t29.5 12.5q18 0 28 -12.5t8 -29.5z" />
    <glyph glyph-name="V" unicode="V" horiz-adv-x="529" 
d="M191 685l91 -556l247 556q6 13 18.5 21.5t24.5 8.5q17 0 27 -9.5t10 -25.5q0 -8 -4 -20l-282 -617q-24 -53 -61 -53q-35 0 -44 53l-109 617v8q0 21 14 34t34 13q11 0 21.5 -8.5t12.5 -21.5z" />
    <glyph glyph-name="W" unicode="W" horiz-adv-x="776" 
d="M510 47l-45 503l-187 -504q-22 -56 -61 -56q-40 0 -46 56l-62 619v3q0 20 16 31.5t35 11.5q29 0 32 -29l49 -533l187 508q12 31 24 44.5t36 13.5q22 0 31 -14.5t12 -43.5l45 -508l200 533q11 29 37 29q16 0 29.5 -8.5t13.5 -23.5q0 -3 -4 -15l-236 -618q-21 -56 -61 -56
q-41 0 -45 57z" />
    <glyph glyph-name="X" unicode="X" horiz-adv-x="500" 
d="M293 303l-199 -284q-20 -29 -42 -29q-14 0 -23.5 11t-9.5 26q0 13 9 26l226 314l-126 287q-2 4 -2 17q0 17 13 30.5t29 13.5q23 0 39 -35l104 -249l174 249q26 35 48 35q13 0 22 -10.5t9 -24.5q0 -15 -8 -26l-208 -287l138 -314q4 -8 4 -18q0 -16 -14 -30.5t-29 -14.5
q-23 0 -35 29z" />
    <glyph glyph-name="Y" unicode="Y" horiz-adv-x="476" 
d="M236 -10q-17 0 -27 12.5t-8 29.5l35 245l-125 378q-2 8 -2 15q0 18 15 31.5t32 13.5q22 0 29 -16l105 -329l197 329q10 16 33 16q14 0 25 -11t11 -26q0 -9 -7 -23l-232 -380l-34 -243q-2 -17 -16 -29.5t-31 -12.5z" />
    <glyph glyph-name="Z" unicode="Z" horiz-adv-x="484" 
d="M460 45q0 -18 -14 -31.5t-32 -13.5h-343q-16 0 -26 11t-10 28q0 13 15 37l385 549h-277q-15 0 -24.5 10t-9.5 25q0 17 13.5 31t31.5 14h339q17 0 27.5 -10.5t10.5 -27.5q0 -15 -15 -36l-387 -551h282q14 0 24 -10t10 -25z" />
    <glyph glyph-name="bracketleft" unicode="[" horiz-adv-x="294" 
d="M257 -78q0 -23 -17 -33t-40 -10h-102q-15 0 -24.5 11.5t-7.5 26.5l119 846q5 38 57 38h102q13 0 22.5 -10t9.5 -23q0 -42 -55 -42h-62l-109 -772h62q45 0 45 -32z" />
    <glyph glyph-name="backslash" unicode="\" horiz-adv-x="280" 
d="M230 -18l-155 725q0 1 -0.5 3t-0.5 3q0 16 10.5 28.5t25.5 15.5q32 5 39 -24l155 -724q1 -2 1 -7q0 -17 -10 -29.5t-26 -15.5q-14 -2 -25 5t-14 20z" />
    <glyph glyph-name="bracketright" unicode="]" horiz-adv-x="294" 
d="M204 -83q-2 -16 -14.5 -27t-28.5 -11h-102q-47 0 -47 33q0 42 57 42h62l108 772h-62q-46 0 -46 33q0 22 17 32t41 10h102q14 0 24 -12t8 -26z" />
    <glyph glyph-name="asciicircum" unicode="^" horiz-adv-x="326" 
d="M254 650l-124 -130q-9 -13 -27 -13q-29 0 -26 27q4 17 25 38l130 136q13 15 32 15q17 0 27 -15l93 -136q14 -21 13 -38q-1 -12 -10.5 -19.5t-23.5 -7.5q-17 0 -23 13z" />
    <glyph glyph-name="underscore" unicode="_" horiz-adv-x="600" 
d="M45 -161h590q15 0 27 -11.5t12 -27.5t-11 -27.5t-28 -11.5h-590q-17 0 -28 11.5t-11 27.5t12 27.5t27 11.5z" />
    <glyph glyph-name="grave" unicode="`" horiz-adv-x="197" 
d="M194 705l66 -81q4 -4 4 -12q0 -16 -12 -27t-27 -11q-14 0 -29 18l-69 86q-3 4 -3 13q0 15 12 26t24 11q6 0 11.5 -2t7.5 -4t7.5 -8.5t7.5 -8.5z" />
    <glyph glyph-name="a" unicode="a" horiz-adv-x="482" 
d="M302 514q89 0 122.5 -51t19.5 -151l-31 -220q-5 -30 14 -30q1 0 3.5 0.5t4.5 0.5q25 0 25 -29q0 -20 -15 -29.5t-35 -9.5q-50 0 -67 46q-82 -49 -144 -49q-73 0 -106.5 51.5t-21.5 137.5l18 127q14 95 66 150.5t147 55.5zM337 105l33 233q8 54 -12 79t-71 25
q-56 0 -83 -31t-37 -103l-18 -127q-17 -119 76 -119q55 0 112 43z" />
    <glyph glyph-name="b" unicode="b" horiz-adv-x="485" 
d="M208 396l-35 -246q-6 -40 19 -63t74 -23q106 0 120 106l27 188q13 88 -84 88q-69 0 -121 -50zM95 150l76 537q2 16 14 27t30 11t27 -11t7 -27l-30 -214q63 41 139 41q154 0 133 -156l-27 -188q-11 -78 -65.5 -128t-142.5 -50q-85 0 -127.5 45t-33.5 113z" />
    <glyph glyph-name="c" unicode="c" horiz-adv-x="393" 
d="M70 176l21 151q11 82 63 133t142 51q45 0 87.5 -14t42.5 -43q0 -15 -11.5 -26.5t-27.5 -11.5q-10 0 -15 3q-48 23 -78 23q-109 0 -125 -115l-22 -151q-16 -115 93 -115q31 0 85 23q6 3 16 3q13 0 21.5 -9t8.5 -21q0 -33 -49.5 -49t-98.5 -16q-90 0 -127.5 51t-25.5 133z
" />
    <glyph glyph-name="d" unicode="d" horiz-adv-x="488" 
d="M284 510q54 0 108 -19l28 196q2 16 14 27t30 11t27 -11t7 -27l-81 -573q-6 -40 18 -60q4 -10 4 -16q0 -17 -12.5 -28t-27.5 -11q-33 0 -48 32q-83 -39 -148 -39q-77 0 -110.5 51.5t-21.5 137.5l18 127q14 96 59.5 149t135.5 53zM339 114l43 307q-47 21 -98 21
q-54 0 -80.5 -31.5t-36.5 -102.5l-18 -127q-17 -119 80 -119q51 0 109 29q-1 9 1 23z" />
    <glyph glyph-name="e" unicode="e" horiz-adv-x="435" 
d="M241 61q43 0 108 28q6 3 14 3q13 0 21.5 -9.5t8.5 -21.5q0 -18 -18.5 -32.5t-46.5 -22t-55.5 -11t-50.5 -3.5q-83 0 -124 46.5t-31 119.5l27 187q11 75 65.5 122t140.5 47q72 0 109 -36t37 -100q0 -82 -47 -128.5t-145 -46.5q-50 0 -101 9l-8 -59q-6 -43 18.5 -67.5
t77.5 -24.5zM368 369q0 74 -80 74q-48 0 -79 -24.5t-37 -66.5l-11 -76q52 -7 105 -7q102 0 102 100z" />
    <glyph glyph-name="f" unicode="f" horiz-adv-x="329" 
d="M49 -177l100 714q13 91 67.5 138t134.5 50q9 1 20.5 0t27.5 -4t26.5 -12.5t10.5 -24.5q0 -18 -13.5 -29.5t-30.5 -11.5q-7 0 -26 3.5t-34 3.5q-42 0 -70 -30t-34 -75l-9 -62h105q13 0 22 -9t9 -23q0 -18 -12.5 -30t-29.5 -12h-104l-82 -586q-2 -16 -14 -27t-30 -11
t-27 11t-7 27z" />
    <glyph glyph-name="g" unicode="g" horiz-adv-x="485" 
d="M348 107l35 246q6 42 -19 65.5t-74 23.5q-106 0 -120 -109l-22 -158q-16 -114 82 -114q69 0 118 46zM461 353l-56 -393q-11 -82 -63 -133t-141 -51q-46 0 -88.5 14t-42.5 43q0 15 11.5 26.5t27.5 11.5q7 0 15 -3q44 -23 78 -23q109 0 125 115l10 70q-63 -37 -133 -37
q-160 0 -134 182l22 158q11 80 65.5 130.5t142.5 50.5q85 0 128 -45.5t33 -115.5z" />
    <glyph glyph-name="h" unicode="h" horiz-adv-x="507" 
d="M367 94l36 253q12 94 -74 94q-74 0 -124 -57l-50 -353q-2 -17 -14.5 -28t-28.5 -11q-17 0 -26.5 11.5t-7.5 27.5l93 661q2 16 14.5 27.5t28.5 11.5q17 0 26.5 -11.5t7.5 -27.5l-31 -220q61 42 131 42q78 0 111 -45t22 -121l-36 -254q-5 -33 7 -47q5 -7 5 -16
q0 -16 -12 -27.5t-29 -11.5q-64 0 -49 102z" />
    <glyph glyph-name="i" unicode="i" horiz-adv-x="245" 
d="M265 674q0 -22 -16.5 -38t-38.5 -16q-18 0 -30 12.5t-12 30.5q0 22 16.5 37.5t38.5 15.5q19 0 30.5 -12t11.5 -30zM97 94l53 378q2 16 15 27.5t29 11.5t26 -11.5t8 -27.5l-53 -378q-5 -33 7 -47q5 -8 5 -16q0 -16 -12.5 -27.5t-29.5 -11.5q-63 0 -48 102z" />
    <glyph glyph-name="j" unicode="j" horiz-adv-x="245" 
d="M227 472l-68 -487q-11 -79 -54.5 -128t-112.5 -59q-8 -1 -19 -1q-27 0 -30 26q-2 18 10 29t26 14q44 9 69 35.5t32 79.5l69 491q2 16 15.5 27.5t29.5 11.5t25.5 -11.5t7.5 -27.5zM264 674q0 -22 -16.5 -38t-38.5 -16q-18 0 -30 12.5t-12 30.5q0 22 16.5 37.5t39.5 15.5
q18 0 29.5 -12t11.5 -30z" />
    <glyph glyph-name="k" unicode="k" horiz-adv-x="439" 
d="M248 686l-52 -373l207 188q9 9 25 9q15 0 24 -9t9 -23q0 -17 -14 -30l-169 -150l134 -250q5 -10 3 -23q-7 -33 -41 -33q-20 0 -30 19l-121 236l-42 -37l-25 -179q-2 -17 -15 -28t-29 -11q-17 0 -26.5 11.5t-7.5 27.5l92 655q2 16 15 27.5t30 11.5q16 0 25.5 -11t7.5 -28z
" />
    <glyph glyph-name="l" unicode="l" horiz-adv-x="228" 
d="M88 94l83 592q2 16 15 27.5t29 11.5q17 0 26.5 -11.5t7.5 -27.5l-83 -592q-5 -33 7 -47q5 -8 5 -16q0 -16 -12.5 -27.5t-29.5 -11.5q-63 0 -48 102z" />
    <glyph glyph-name="m" unicode="m" horiz-adv-x="778" 
d="M638 94l35 248q6 44 -13.5 72t-63.5 28q-32 0 -64 -15t-54 -38q2 -24 -1 -45l-44 -313q-2 -17 -13.5 -27.5t-30.5 -10.5t-27.5 10.5t-6.5 27.5l41 290q4 36 3 63t-18 42.5t-51 15.5q-63 0 -122 -40q0 -22 -1 -31l-48 -340q-2 -17 -13.5 -27.5t-30.5 -10.5t-27.5 10.5
t-6.5 27.5l48 340q3 20 3 33t-1 16.5t-5 11.5t-5 9q-5 15 -5 17q0 16 12.5 27t29.5 11q24 0 37 -27q76 45 152 45q77 0 109 -51q73 51 152 51t116.5 -46.5t26.5 -123.5l-35 -250q-5 -33 7 -47q5 -8 5 -16q0 -16 -12.5 -27.5t-29.5 -11.5q-63 0 -48 102z" />
    <glyph glyph-name="n" unicode="n" horiz-adv-x="509" 
d="M368 94l32 229q8 57 -11 88t-64 31q-57 0 -117 -42q0 -21 -1 -29l-48 -340q-2 -17 -13.5 -27.5t-30.5 -10.5t-27.5 10.5t-6.5 27.5l48 340q3 20 3 33t-1 16.5t-5 11.5t-5 9q-5 15 -5 17q0 16 12.5 27t29.5 11q24 0 38 -29q71 45 150 45q78 0 111 -51t21 -138l-32 -229
q-5 -33 7 -47q5 -7 5 -16q0 -16 -12.5 -27.5t-29.5 -11.5q-63 0 -48 102z" />
    <glyph glyph-name="o" unicode="o" horiz-adv-x="464" 
d="M231 -8q-89 0 -131 50t-31 128l24 167q11 78 67 128t145 50t131 -50t31 -128l-24 -167q-11 -78 -67 -128t-145 -50zM241 64q53 0 85 28t39 78l24 168q7 49 -17.5 77t-77.5 28t-84.5 -27.5t-38.5 -77.5l-24 -168q-7 -50 17 -78t77 -28z" />
    <glyph glyph-name="p" unicode="p" horiz-adv-x="478" 
d="M265 -7q-54 0 -108 19l-27 -189q-2 -16 -14 -27t-30 -11t-27 11t-7 27l77 546q7 45 -6 70q-5 8 -5 16q0 16 13 27.5t27 11.5q22 0 36 -24q88 44 152 44q77 0 111 -51.5t22 -137.5l-19 -130q-14 -96 -59.5 -149t-135.5 -53zM207 369l-40 -287q41 -21 97 -21q54 0 81 31.5
t37 102.5l19 130q17 119 -81 119q-53 0 -113 -34q2 -29 0 -41z" />
    <glyph glyph-name="q" unicode="q" horiz-adv-x="485" 
d="M348 107l35 246q6 42 -19 65.5t-74 23.5q-106 0 -120 -109l-22 -158q-16 -114 82 -114q69 0 118 46zM461 353l-75 -530q-2 -17 -13.5 -27.5t-30.5 -10.5t-27.5 10.5t-6.5 27.5l29 207q-63 -37 -133 -37q-160 0 -134 182l22 158q11 80 65.5 130.5t142.5 50.5
q85 0 128 -45.5t33 -115.5z" />
    <glyph glyph-name="r" unicode="r" horiz-adv-x="337" 
d="M207 369l-48 -338q-2 -17 -15 -28t-29 -11q-17 0 -26.5 11.5t-7.5 27.5l48 338q5 45 -7 70q-4 7 -4 16q0 17 12.5 28t28.5 11q24 0 36 -27q75 43 143 43q48 0 48 -32q0 -20 -14 -33.5t-32 -12.5q-26 1 -41 -0.5t-40 -10t-51 -25.5q0 -19 -1 -27z" />
    <glyph glyph-name="s" unicode="s" horiz-adv-x="406" 
d="M103 350q0 73 49 118.5t135 45.5q46 0 86 -13t40 -39q0 -16 -12.5 -28t-29.5 -12q-7 0 -17 5q-36 18 -73 18q-100 0 -100 -80q0 -34 39 -54q13 -7 39.5 -17t44.5 -19t38 -23.5t30.5 -38t10.5 -54.5q0 -77 -49.5 -122t-140.5 -45q-50 0 -94.5 12.5t-44.5 41.5
q0 15 12 27.5t30 12.5q4 0 10 -2q56 -23 97 -23q48 0 75.5 21t27.5 64q0 35 -29 51q-12 7 -38 16.5t-47 19t-42.5 23.5t-34 38t-12.5 56z" />
    <glyph glyph-name="t" unicode="t" horiz-adv-x="321" 
d="M102 203l59 418q2 16 14 27t30 11t27 -11t7 -27l-19 -138h104q13 0 22 -9t9 -23q0 -18 -12.5 -30t-29.5 -12h-104l-28 -199q-13 -77 -1 -109t64 -32q3 0 9.5 0.5t9.5 0.5q47 0 47 -31q0 -43 -63 -43q-100 0 -130 48.5t-15 158.5z" />
    <glyph glyph-name="u" unicode="u" horiz-adv-x="509" 
d="M370 123l49 350q2 17 13.5 27.5t30.5 10.5t27.5 -10.5t6.5 -27.5l-49 -350q-3 -19 -3 -32t1.5 -17.5t5 -11t4.5 -9.5q4 -12 4 -17q0 -15 -12.5 -26.5t-29.5 -11.5q-24 0 -39 30q-68 -36 -147 -36q-78 0 -111 51t-21 138l41 292q2 16 14 27t30 11t27 -11t7 -27l-41 -292
q-8 -57 11 -88t64 -31q58 0 115 33q0 12 2 28z" />
    <glyph glyph-name="v" unicode="v" horiz-adv-x="430" 
d="M469 462l-195 -423q-23 -47 -58 -47q-20 0 -29.5 10.5t-14.5 35.5l-79 427q-4 17 11 31.5t33 14.5q26 0 31 -26l64 -377l169 377q12 26 38 26q18 0 28 -15t2 -34z" />
    <glyph glyph-name="w" unicode="w" horiz-adv-x="655" 
d="M694 465l-175 -428q-10 -24 -22.5 -34.5t-33.5 -10.5q-37 0 -42 34l-40 351l-139 -351q-14 -34 -51 -34q-38 0 -44 45l-56 431v3q0 15 13 27.5t31 12.5q29 0 32 -28l43 -368l141 361q14 35 49 35q34 0 38 -35q4 -44 41 -361l145 368q5 12 15.5 20t23.5 8q14 0 23.5 -10
t9.5 -24q0 -8 -2 -12z" />
    <glyph glyph-name="x" unicode="x" horiz-adv-x="431" 
d="M297 258l111 -208q3 -6 3 -13q0 -18 -13.5 -31.5t-32.5 -13.5q-13 0 -20 6t-14 21l-89 174l-143 -181q-16 -20 -35 -20q-15 0 -25 9.5t-10 24.5q0 12 8 22l169 208l-103 198q-4 8 -4 14q0 16 13.5 29.5t31.5 13.5q10 0 18.5 -6.5t11.5 -11.5t9 -16l79 -155l128 163
q20 26 41 26q13 0 23 -9.5t10 -23.5q0 -13 -8 -23z" />
    <glyph glyph-name="y" unicode="y" horiz-adv-x="509" 
d="M377 107l51 366q2 16 14 27t31 11q38 0 33 -38l-72 -513q-11 -82 -63 -133t-141 -51q-46 0 -88.5 14t-42.5 43q0 15 11.5 26.5t27.5 11.5q8 0 15 -3q44 -23 78 -23q109 0 125 115l10 70q-63 -37 -133 -37q-160 0 -134 182l41 298q2 16 14.5 27t30.5 11t26.5 -11t6.5 -27
l-41 -298q-16 -114 82 -114q69 0 118 46z" />
    <glyph glyph-name="z" unicode="z" horiz-adv-x="384" 
d="M432 470q0 -17 -13 -33l-298 -365h221q14 0 23 -9t9 -23q0 -16 -12.5 -28t-29.5 -12h-277q-15 0 -25 10.5t-10 26.5t11 30l299 366h-209q-13 0 -22 9t-9 23q0 17 12.5 28.5t29.5 11.5h265q15 0 25 -9.5t10 -25.5z" />
    <glyph glyph-name="braceleft" unicode="{" horiz-adv-x="417" 
d="M98 205q-34 0 -34 31q0 20 12.5 30.5t32.5 10.5q38 0 59.5 21.5t31.5 68.5l18.5 93.5t18.5 91.5q12 56 59.5 89.5t114.5 33.5q54 0 54 -36q0 -20 -8.5 -29.5t-19 -8.5t-19.5 1q-16 2 -26 2q-28 0 -51.5 -17.5t-29.5 -46.5l-31 -167q-19 -98 -91 -132q63 -35 54 -132
l-16 -167q-3 -29 15.5 -46.5t45.5 -17.5q13 0 29 2q38 5 38 -23q0 -50 -66 -50q-67 0 -105 33.5t-34 89.5l15 185q4 46 -12.5 68t-54.5 22z" />
    <glyph glyph-name="bar" unicode="|" horiz-adv-x="227" 
d="M49 -204l130 927q2 14 14 25t27 11t24 -11t7 -25l-130 -927q-2 -14 -14 -25t-27 -11t-24 11t-7 25z" />
    <glyph glyph-name="braceright" unicode="}" horiz-adv-x="417" 
d="M376 205q-75 0 -92 -90l-37 -185q-11 -56 -59 -89.5t-115 -33.5q-54 0 -54 36q0 20 8.5 29.5t19 8.5t19.5 -1q16 -2 28 -2q27 0 49.5 17.5t28.5 46.5l32 167q19 99 90 132q-62 34 -53 132l16 167q3 29 -15.5 46.5t-46.5 17.5q-12 0 -28 -2q-38 -5 -38 23q0 50 66 50
q63 0 101.5 -31t38.5 -84q0 -4 -8 -103t-8 -104q0 -39 16 -57.5t51 -18.5q34 0 34 -31q0 -41 -44 -41z" />
    <glyph glyph-name="asciitilde" unicode="~" horiz-adv-x="454" 
d="M443 357q0 -31 -35.5 -53t-73.5 -25q-28 0 -64.5 18.5t-50.5 20.5q-24 0 -47.5 -16.5t-34.5 -16.5q-14 0 -22.5 9t-8.5 24q4 32 37 55t73 23q27 0 62.5 -18.5t51.5 -20.5q25 0 48 16t34 18q13 0 22 -10t9 -24z" />
    <glyph glyph-name="exclamdown" unicode="&#xa1;" horiz-adv-x="227" 
d="M48 -175l76 473q2 13 12 22.5t23 9.5q12 0 20 -9.5t6 -22.5l-57 -473q-2 -16 -16 -28t-30 -12t-26 12t-8 28zM232 461q0 -24 -18.5 -41.5t-42.5 -17.5q-20 0 -33.5 13.5t-13.5 33.5q0 25 18.5 43t43.5 18q19 0 32.5 -14.5t13.5 -34.5z" />
    <glyph glyph-name="cent" unicode="&#xa2;" horiz-adv-x="500" 
d="M220 -28l7 51q-76 8 -107 57.5t-20 125.5l15 101q11 75 55.5 124.5t121.5 57.5l6 44q2 11 10.5 18.5t19.5 7.5t17.5 -7.5t4.5 -18.5l-6 -43q42 -4 74 -18t32 -38q0 -15 -11.5 -26.5t-27.5 -11.5q-7 0 -15 3q-36 19 -61 22l-47 -330q23 3 68 23q9 3 16 3q13 0 21.5 -9
t8.5 -21q0 -29 -38 -44.5t-85 -19.5l-7 -51q-1 -10 -10 -18t-20 -8q-10 0 -17 7.5t-5 18.5zM179 206q-14 -95 58 -112l45 324q-75 -15 -89 -111z" />
    <glyph glyph-name="yen" unicode="&#xa5;" horiz-adv-x="476" 
d="M131 369h74l-94 286q-2 8 -2 15q0 18 15 31.5t32 13.5q23 0 29 -16l105 -329l197 329q12 16 33 16q15 0 25.5 -11t10.5 -26q0 -9 -7 -23l-175 -286h75q14 0 24 -9.5t10 -23.5q0 -17 -13.5 -29t-31.5 -12h-109l-11 -20l-5 -36h118q14 0 24 -9.5t10 -23.5q0 -17 -13.5 -29
t-31.5 -12h-118l-19 -133q-2 -17 -15.5 -29.5t-30.5 -12.5t-27.5 12.5t-8.5 29.5l19 133h-118q-15 0 -24.5 9.5t-9.5 23.5q0 17 14 29t31 12h118l5 38l-7 18h-109q-15 0 -24.5 9.5t-9.5 23.5q0 17 14 29t31 12z" />
    <glyph glyph-name="dieresis" unicode="&#xa8;" horiz-adv-x="403" 
d="M425 644q0 -22 -16.5 -38t-37.5 -16q-18 0 -30 13t-12 31q0 20 17 36t38 16q18 0 29.5 -12t11.5 -30zM256 644q0 -22 -16.5 -38t-38.5 -16q-18 0 -29 12.5t-11 30.5q0 21 16 37t37 16q19 0 30.5 -12t11.5 -30z" />
    <glyph glyph-name="copyright" unicode="&#xa9;" horiz-adv-x="740" 
d="M724 365q0 -164 -96 -269t-260 -105q-128 0 -196.5 73.5t-68.5 196.5q0 164 96 269t260 105q128 0 196.5 -73.5t68.5 -196.5zM663 355q0 100 -55 160t-158 60q-132 0 -209 -85.5t-77 -218.5q0 -100 55 -160t158 -60q132 0 209 85.5t77 218.5zM275 283l9 61
q10 66 51.5 106.5t112.5 40.5q37 0 70.5 -11t33.5 -35q0 -11 -9.5 -20.5t-21.5 -9.5q-7 0 -13 3q-32 18 -61 18q-88 0 -101 -92l-9 -61q-14 -92 75 -92q27 0 67 18q7 3 13 3q10 0 17 -7t7 -18q0 -26 -39 -38.5t-79 -12.5q-72 0 -102 40.5t-21 106.5z" />
    <glyph glyph-name="guillemotleft" unicode="&#xab;" horiz-adv-x="431" 
d="M168 258l111 -208q3 -6 3 -13q0 -18 -13.5 -31.5t-32.5 -13.5q-21 0 -35 27l-124 237l184 229q21 26 41 26q13 0 23 -9.5t10 -23.5q0 -13 -8 -23zM328 256l73 -142q3 -6 3 -14q0 -17 -14.5 -29.5t-29.5 -12.5q-20 0 -33 26l-90 172l138 172q21 26 41 26q13 0 23 -9.5
t10 -23.5q0 -13 -8 -23z" />
    <glyph glyph-name="registered" unicode="&#xae;" horiz-adv-x="700" 
d="M699 472q0 -150 -88.5 -245.5t-242.5 -95.5q-121 0 -185 67t-64 179q0 151 89.5 249.5t242.5 98.5q120 0 184 -69t64 -184zM639 463q0 92 -50.5 147t-145.5 55q-122 0 -192.5 -79t-70.5 -200q0 -89 50.5 -142t145.5 -53q122 0 192.5 76t70.5 196zM530 500q0 -73 -65 -101
l50 -97q2 -8 2 -9q0 -10 -12 -16t-23 -6q-18 0 -25 10l-54 108h-47l-13 -93q-2 -10 -12 -17.5t-22 -7.5t-19.5 7.5t-6.5 17.5l36 255q1 13 13 23.5t25 10.5h77q49 0 72.5 -24.5t23.5 -60.5zM469 492q0 34 -45 34h-48l-12 -79h51q54 0 54 45z" />
    <glyph glyph-name="macron" unicode="&#xaf;" horiz-adv-x="403" 
d="M452 641q0 -16 -12.5 -28t-29.5 -12h-249q-14 0 -23 9t-9 23q0 16 13 28.5t30 12.5h249q13 0 22 -9.5t9 -23.5z" />
    <glyph glyph-name="degree" unicode="&#xb0;" horiz-adv-x="392" 
d="M257 436q-59 0 -91 34t-32 86q0 67 44 113.5t118 46.5q60 0 91.5 -33.5t31.5 -86.5q0 -67 -43.5 -113.5t-118.5 -46.5zM266 498q85 0 85 94q0 62 -63 62q-86 0 -86 -93q0 -63 64 -63z" />
    <glyph glyph-name="plusminus" unicode="&#xb1;" horiz-adv-x="500" 
d="M251 175v170h-160q-17 0 -28 11.5t-11 27.5t12 27.5t27 11.5h160v170q0 15 11.5 27t27.5 12t27.5 -11t11.5 -28v-170h160q15 0 27 -11.5t12 -27.5t-11 -27.5t-28 -11.5h-160v-170q0 -17 -11.5 -28t-27.5 -11t-27.5 12t-11.5 27zM91 78h398q15 0 27 -11.5t12 -27.5
q0 -17 -11 -28t-28 -11h-398q-17 0 -28 11t-11 28q0 16 12 27.5t27 11.5z" />
    <glyph glyph-name="twosuperior" unicode="&#xb2;" 
d="M285 414q0 -11 -7.5 -17.5t-17.5 -6.5h-162q-24 0 -24 20q0 9 8 24q25 44 104 112q43 39 49 46q35 29 35 67q0 22 -12.5 35.5t-35.5 13.5q-19 0 -46 -9l-13 -6q-14 -7 -20 -7q-9 0 -16 5.5t-7 13.5q0 12 9 19q50 30 99 30q43 0 66.5 -24t23.5 -62q0 -58 -48 -108
q-11 -11 -37 -33l-11 -10q-60 -49 -83 -81h127q8 0 13.5 -6.5t5.5 -15.5z" />
    <glyph glyph-name="threesuperior" unicode="&#xb3;" 
d="M308 699l-92 -100q35 -3 57 -26t22 -60q0 -46 -32.5 -87t-88.5 -41q-28 0 -61.5 8t-33.5 29q0 11 8.5 19t19.5 8q3 0 14 -6q22 -14 50 -14q39 0 57.5 24.5t18.5 54.5q0 50 -55 50q-11 0 -17 -3l-4 -2q-1 -1 -8 -1q-13 0 -17.5 12.5t5.5 23.5l97 108h-99q-10 0 -16.5 5.5
t-6.5 13.5q0 12 9 21t21 9h137q21 0 21 -24q0 -16 -6 -22z" />
    <glyph glyph-name="acute" unicode="&#xb4;" horiz-adv-x="276" 
d="M170 624l89 81q3 2 8 7t7.5 7t6.5 4.5t8.5 3.5t9.5 1q10 0 18.5 -8.5t8.5 -20.5q0 -14 -8 -21l-93 -86q-19 -18 -35 -18q-12 0 -20 8.5t-8 21.5q0 12 8 20z" />
    <glyph glyph-name="periodcentered" unicode="&#xb7;" horiz-adv-x="255" 
d="M217 280q0 -25 -18.5 -42.5t-43.5 -17.5q-19 0 -32.5 14t-13.5 34q0 24 18.5 41.5t42.5 17.5q20 0 33.5 -13.5t13.5 -33.5z" />
    <glyph glyph-name="cedilla" unicode="&#xb8;" horiz-adv-x="300" 
d="M229 -114q0 -46 -41 -76.5t-111 -20.5q-24 3 -38.5 17t-3.5 30q3 5 6.5 7.5t9.5 2.5t10 -1t13 -3.5t15 -3.5q34 -7 54.5 9t20.5 36q0 29 -56 32q-24 2 -31 8t-1 24l23 73h49l-18 -60q99 -1 99 -74z" />
    <glyph glyph-name="onesuperior" unicode="&#xb9;" 
d="M184 407l40 278l-58 -36q-14 -9 -24 -9q-9 0 -15 5.5t-6 13.5q0 13 16 24l106 61q7 5 15 5q11 0 16.5 -7.5t4.5 -19.5l-45 -315q-1 -8 -9 -15t-18 -7q-11 0 -17.5 6.5t-5.5 15.5z" />
    <glyph glyph-name="ordmasculine" unicode="&#xba;" horiz-adv-x="384" 
d="M240 346q-68 0 -99 40t-22 104l11 80q9 64 51.5 104.5t110.5 40.5t99.5 -40.5t22.5 -104.5l-11 -80q-9 -64 -52 -104t-111 -40zM283 652q-74 0 -87 -86l-11 -78q-11 -80 64 -80t86 80l11 78q13 86 -63 86z" />
    <glyph glyph-name="guillemotright" unicode="&#xbb;" horiz-adv-x="431" 
d="M166 50l169 208l-103 197q-3 6 -3 14q0 17 14.5 29.5t29.5 12.5q20 0 33 -26l120 -229l-191 -237q-21 -27 -42 -27q-16 0 -25.5 10.5t-9.5 25.5q0 12 8 22zM62 114l113 142l-73 142q-3 6 -3 14q0 17 14.5 29.5t29.5 12.5q20 0 33 -26l90 -172l-138 -172q-21 -26 -41 -26
q-13 0 -23 9.5t-10 23.5q0 13 8 23z" />
    <glyph glyph-name="questiondown" unicode="&#xbf;" horiz-adv-x="462" 
d="M231 251q-10 -17 -26.5 -33.5t-39.5 -35.5t-35 -31q-100 -98 -100 -210q0 -73 46.5 -119.5t129.5 -46.5q97 0 175 45q31 18 31 42q0 15 -9.5 24t-23.5 9q-8 0 -17.5 -4.5t-23 -12t-23.5 -11.5q-46 -19 -97 -19q-53 0 -80.5 30t-27.5 79q0 69 74 147l34 33l36.5 35.5
t30 35.5t27.5 43q11 20 11 43q0 15 -10 25.5t-25 10.5q-16 0 -29.5 -12t-15.5 -28q-4 -27 -12 -39zM251 449q0 24 19 42.5t43 18.5q20 0 33 -14t13 -35q0 -24 -18.5 -41.5t-43.5 -17.5q-20 0 -33 13.5t-13 33.5z" />
    <glyph glyph-name="Agrave" unicode="&#xc0;" horiz-adv-x="549" 
d="M170 159l-62 -139q-6 -13 -18.5 -21.5t-23.5 -8.5q-16 0 -26.5 9.5t-10.5 25.5q0 13 5 20l281 617q25 53 60 53q21 0 30.5 -13.5t14.5 -39.5l108 -617v-3q1 -3 1 -5q0 -21 -14 -34t-34 -13q-12 0 -22.5 8.5t-12.5 21.5l-23 139h-253zM355 576l-150 -339h206zM354 905
l66 -81q4 -4 4 -12q0 -16 -12 -27t-27 -11q-14 0 -29 18l-69 86q-3 4 -3 13q0 15 12 26t24 11q6 0 11.5 -2t7.5 -4t7.5 -8.5t7.5 -8.5z" />
    <glyph glyph-name="Aacute" unicode="&#xc1;" horiz-adv-x="549" 
d="M108 20l62 139h253l23 -139q2 -13 12.5 -21.5t22.5 -8.5q20 0 34 13t14 34q0 2 -1 5v3l-108 617q-5 26 -14.5 39.5t-30.5 13.5q-35 0 -60 -53l-281 -617q-5 -7 -5 -20q0 -16 10.5 -25.5t26.5 -9.5q11 0 23.5 8.5t18.5 21.5zM205 237l150 339l56 -339h-206zM363 824l89 81
q3 2 8 7t7.5 7t6.5 4.5t8.5 3.5t9.5 1q10 0 18.5 -8.5t8.5 -20.5q0 -14 -8 -21l-93 -86q-20 -18 -35 -18q-12 0 -20 8.5t-8 21.5q0 12 8 20z" />
    <glyph glyph-name="Acircumflex" unicode="&#xc2;" horiz-adv-x="549" 
d="M170 159l-62 -139q-6 -13 -18.5 -21.5t-23.5 -8.5q-16 0 -26.5 9.5t-10.5 25.5q0 13 5 20l281 617q25 53 60 53q21 0 30.5 -13.5t14.5 -39.5l108 -617v-3q1 -3 1 -5q0 -21 -14 -34t-34 -13q-12 0 -22.5 8.5t-12.5 21.5l-23 139h-253zM355 576l-150 -339h206zM392 836
l-83 -61q-8 -6 -20 -6q-9 0 -15.5 7t-6.5 16q0 15 23 33l88 67q12 8 23 8t21 -8l69 -67q14 -14 14 -27q0 -11 -9 -20t-20 -9q-12 0 -18 6z" />
    <glyph glyph-name="Atilde" unicode="&#xc3;" horiz-adv-x="549" 
d="M108 20l62 139h253l23 -139q2 -13 12.5 -21.5t22.5 -8.5q20 0 34 13t14 34q0 2 -1 5v3l-108 617q-5 26 -14.5 39.5t-30.5 13.5q-35 0 -60 -53l-281 -617q-5 -7 -5 -20q0 -16 10.5 -25.5t26.5 -9.5q11 0 23.5 8.5t18.5 21.5zM205 237l150 339l56 -339h-206zM532 854
q0 -26 -29.5 -44.5t-61.5 -20.5q-24 0 -54 15.5t-42 16.5q-20 0 -39.5 -13.5t-28.5 -13.5q-11 0 -18.5 7.5t-7.5 19.5q4 27 31 46t60 19q23 0 52.5 -15.5t43.5 -16.5q21 0 39.5 13.5t28.5 14.5q11 0 18.5 -8t7.5 -20z" />
    <glyph glyph-name="Adieresis" unicode="&#xc4;" horiz-adv-x="549" 
d="M170 159l-62 -139q-6 -13 -18.5 -21.5t-23.5 -8.5q-16 0 -26.5 9.5t-10.5 25.5q0 13 5 20l281 617q25 53 60 53q21 0 30.5 -13.5t14.5 -39.5l108 -617v-3q1 -3 1 -5q0 -21 -14 -34t-34 -13q-12 0 -22.5 8.5t-12.5 21.5l-23 139h-253zM355 576l-150 -339h206zM524 844
q0 -22 -16.5 -38t-37.5 -16q-18 0 -30 13t-12 31q0 20 17 36t38 16q18 0 29.5 -12t11.5 -30zM355 844q0 -22 -16.5 -38t-38.5 -16q-18 0 -29 12.5t-11 30.5q0 21 16 37t37 16q19 0 30.5 -12t11.5 -30z" />
    <glyph glyph-name="Aring" unicode="&#xc5;" horiz-adv-x="549" 
d="M488 738q0 -64 -62 -105l103 -588v-8q0 -21 -14 -34t-34 -13q-12 0 -22.5 8.5t-12.5 21.5l-23 139h-253l-62 -139q-6 -13 -18.5 -21.5t-23.5 -8.5q-16 0 -26.5 9.5t-10.5 25.5q0 10 5 20l269 588q-38 27 -38 79q0 49 38.5 86t89.5 37q41 0 68 -28t27 -69zM355 576
l-150 -339h206zM438 732q0 23 -15 38.5t-37 15.5q-27 0 -48 -20.5t-21 -47.5q0 -22 15 -37.5t37 -15.5q27 0 48 20t21 47z" />
    <glyph glyph-name="AE" unicode="&#xc6;" horiz-adv-x="722" 
d="M414 0q-28 0 -43.5 11t-12.5 36l16 112h-205l-61 -139q-6 -13 -18.5 -21.5t-23.5 -8.5q-17 0 -27 9.5t-10 25.5q0 10 5 20l278 607q25 53 59 53h367q15 0 25 -10.5t10 -24.5q0 -18 -14 -30.5t-32 -12.5h-208l-33 -234h189q14 0 24 -10t10 -25q0 -18 -13 -30.5t-31 -12.5
h-189l-34 -237h218q15 0 25 -9.5t10 -23.5q0 -18 -14 -31.5t-32 -13.5h-235zM439 627h-50q-13 0 -14 -10l-170 -380h180z" />
    <glyph glyph-name="Ccedilla" unicode="&#xc7;" horiz-adv-x="482" 
d="M350 -114q0 -46 -41 -76.5t-111 -20.5q-24 3 -38.5 17t-3.5 30q3 5 6.5 7.5t9.5 2.5t10 -1t13 -3.5t15 -3.5q34 -7 54.5 9t20.5 36q0 29 -56 32q-24 2 -31 8t-1 24l16 49q-82 16 -115 81.5t-18 168.5l30 214q17 119 83 187t178 68q66 0 115.5 -24.5t49.5 -57.5
q0 -16 -12 -27.5t-29 -11.5q-12 0 -34 17q-42 31 -96 31q-81 0 -121.5 -46.5t-53.5 -135.5l-30 -214q-13 -89 15 -135.5t109 -46.5q56 0 105 31l11.5 7t9.5 5.5t7.5 3t9.5 1.5q14 0 22.5 -9t8.5 -22q0 -36 -58.5 -63t-130.5 -27h-9l-9 -31q99 -1 99 -74z" />
    <glyph glyph-name="Egrave" unicode="&#xc8;" horiz-adv-x="474" 
d="M448 45q0 -18 -14.5 -31.5t-32.5 -13.5h-265q-28 0 -43.5 11t-12.5 36l86 611q2 18 18 32.5t36 14.5h271q15 0 24.5 -10t9.5 -25q0 -18 -13.5 -30.5t-31.5 -12.5h-238l-33 -234h219q14 0 24 -10t10 -25q0 -18 -13.5 -30.5t-31.5 -12.5h-219l-34 -237h248q15 0 25.5 -9.5
t10.5 -23.5zM356 905l66 -81q4 -4 4 -12q0 -16 -12 -27t-27 -11q-14 0 -29 18l-69 86q-3 4 -3 13q0 15 12 26t24 11q6 0 11.5 -2t7.5 -4t7.5 -8.5t7.5 -8.5z" />
    <glyph glyph-name="Eacute" unicode="&#xc9;" horiz-adv-x="474" 
d="M448 45q0 -18 -14.5 -31.5t-32.5 -13.5h-265q-28 0 -43.5 11t-12.5 36l86 611q2 18 18 32.5t36 14.5h271q15 0 24.5 -10t9.5 -25q0 -18 -13.5 -30.5t-31.5 -12.5h-238l-33 -234h219q14 0 24 -10t10 -25q0 -18 -13.5 -30.5t-31.5 -12.5h-219l-34 -237h248q15 0 25.5 -9.5
t10.5 -23.5zM323 824l89 81q3 2 8 7t7.5 7t6.5 4.5t8.5 3.5t9.5 1q10 0 18.5 -8.5t8.5 -20.5q0 -14 -8 -21l-93 -86q-20 -18 -35 -18q-12 0 -20 8.5t-8 21.5q0 12 8 20z" />
    <glyph glyph-name="Ecircumflex" unicode="&#xca;" horiz-adv-x="474" 
d="M448 45q0 -18 -14.5 -31.5t-32.5 -13.5h-265q-28 0 -43.5 11t-12.5 36l86 611q2 18 18 32.5t36 14.5h271q15 0 24.5 -10t9.5 -25q0 -18 -13.5 -30.5t-31.5 -12.5h-238l-33 -234h219q14 0 24 -10t10 -25q0 -18 -13.5 -30.5t-31.5 -12.5h-219l-34 -237h248q15 0 25.5 -9.5
t10.5 -23.5zM379 836l-83 -61q-8 -6 -20 -6q-9 0 -15.5 7t-6.5 16q0 15 23 33l88 67q12 8 23 8t21 -8l69 -67q14 -14 14 -27q0 -11 -9 -20t-20 -9q-12 0 -18 6z" />
    <glyph glyph-name="Edieresis" unicode="&#xcb;" horiz-adv-x="474" 
d="M448 45q0 -18 -14.5 -31.5t-32.5 -13.5h-265q-28 0 -43.5 11t-12.5 36l86 611q2 18 18 32.5t36 14.5h271q15 0 24.5 -10t9.5 -25q0 -18 -13.5 -30.5t-31.5 -12.5h-238l-33 -234h219q14 0 24 -10t10 -25q0 -18 -13.5 -30.5t-31.5 -12.5h-219l-34 -237h248q15 0 25.5 -9.5
t10.5 -23.5zM510 844q0 -22 -16.5 -38t-37.5 -16q-18 0 -30 13t-12 31q0 20 17 36t38 16q18 0 29.5 -12t11.5 -30zM341 844q0 -22 -16.5 -38t-38.5 -16q-18 0 -29 12.5t-11 30.5q0 21 16 37t37 16q19 0 30.5 -12t11.5 -30z" />
    <glyph glyph-name="Igrave" unicode="&#xcc;" horiz-adv-x="227" 
d="M77 30l91 645q2 16 15.5 28t29.5 12t26.5 -12t8.5 -28l-91 -645q-2 -16 -16 -28t-30 -12t-26 12t-8 28zM206 905l66 -81q4 -4 4 -12q0 -16 -12 -27t-27 -11q-14 0 -29 18l-69 86q-3 4 -3 13q0 15 12 26t24 11q6 0 11.5 -2t7.5 -4t7.5 -8.5t7.5 -8.5z" />
    <glyph glyph-name="Iacute" unicode="&#xcd;" horiz-adv-x="227" 
d="M77 30l91 645q2 16 15.5 28t29.5 12t26.5 -12t8.5 -28l-91 -645q-2 -16 -16 -28t-30 -12t-26 12t-8 28zM186 824l89 81q3 2 8 7t7.5 7t6.5 4.5t8.5 3.5t9.5 1q10 0 18.5 -8.5t8.5 -20.5q0 -14 -8 -21l-93 -86q-19 -18 -35 -18q-12 0 -20 8.5t-8 21.5q0 12 8 20z" />
    <glyph glyph-name="Icircumflex" unicode="&#xce;" horiz-adv-x="227" 
d="M77 30l91 645q2 16 15.5 28t29.5 12t26.5 -12t8.5 -28l-91 -645q-2 -16 -16 -28t-30 -12t-26 12t-8 28zM232 836l-83 -61q-8 -6 -20 -6q-9 0 -15.5 7t-6.5 16q0 15 23 33l88 67q12 8 23 8t21 -8l69 -67q14 -14 14 -27q0 -11 -9 -20t-20 -9q-12 0 -18 6z" />
    <glyph glyph-name="Idieresis" unicode="&#xcf;" horiz-adv-x="227" 
d="M77 30l91 645q2 16 15.5 28t29.5 12t26.5 -12t8.5 -28l-91 -645q-2 -16 -16 -28t-30 -12t-26 12t-8 28zM363 844q0 -22 -16.5 -38t-37.5 -16q-18 0 -30 13t-12 31q0 20 17 36t38 16q18 0 29.5 -12t11.5 -30zM194 844q0 -22 -16.5 -38t-38.5 -16q-18 0 -29 12.5t-11 30.5
q0 21 16 37t37 16q19 0 30.5 -12t11.5 -30z" />
    <glyph glyph-name="Eth" unicode="&#xd0;" horiz-adv-x="574" 
d="M565 264q-16 -115 -92 -189.5t-219 -74.5h-113q-20 0 -32.5 14.5t-9.5 33.5l38 269h-39q-14 0 -23 9t-9 23q0 16 13 28.5t30 12.5h38l38 268q3 20 19.5 34t35.5 14h113q74 0 125.5 -20.5t77.5 -57t34 -80.5t1 -97zM389 357q0 -16 -12.5 -28t-29.5 -12h-130l-33 -239h98
q93 0 142.5 51t60.5 135l26 187q11 80 -24.5 128.5t-127.5 48.5h-98l-33 -238h130q13 0 22 -9.5t9 -23.5z" />
    <glyph glyph-name="Ntilde" unicode="&#xd1;" horiz-adv-x="600" 
d="M480 -10q-27 0 -37 23l-214 533l-72 -515q-2 -16 -16 -28.5t-31 -12.5q-16 0 -25.5 12t-7.5 29l90 640q2 19 16 31.5t33 12.5q29 0 39 -24l213 -532l72 515q2 16 16 28.5t31 12.5q16 0 25.5 -12t7.5 -29l-89 -640q-3 -18 -17.5 -31t-33.5 -13zM558 854q0 -26 -29.5 -44.5
t-61.5 -20.5q-24 0 -54 15.5t-42 16.5q-20 0 -39.5 -13.5t-28.5 -13.5q-11 0 -18.5 7.5t-7.5 19.5q4 27 31 46t60 19q23 0 52.5 -15.5t43.5 -16.5q21 0 39.5 13.5t28.5 14.5q11 0 18.5 -8t7.5 -20z" />
    <glyph glyph-name="Ograve" unicode="&#xd2;" horiz-adv-x="551" 
d="M274 -10q-110 0 -160 72t-34 184l30 214q16 113 82.5 184t183.5 71t163.5 -71t30.5 -184l-30 -214q-16 -112 -86 -184t-180 -72zM365 637q-150 0 -175 -177l-30 -214q-12 -82 19 -130t106 -48t119 48t56 130l30 214q25 177 -125 177zM374 905l66 -81q4 -4 4 -12
q0 -16 -12 -27t-27 -11q-14 0 -29 18l-69 86q-3 4 -3 13q0 15 12 26t24 11q6 0 11.5 -2t7.5 -4t7.5 -8.5t7.5 -8.5z" />
    <glyph glyph-name="Oacute" unicode="&#xd3;" horiz-adv-x="551" 
d="M274 -10q-110 0 -160 72t-34 184l30 214q16 113 82.5 184t183.5 71t163.5 -71t30.5 -184l-30 -214q-16 -112 -86 -184t-180 -72zM365 637q-150 0 -175 -177l-30 -214q-12 -82 19 -130t106 -48t119 48t56 130l30 214q25 177 -125 177zM350 824l89 81q3 2 8 7t7.5 7
t6.5 4.5t8.5 3.5t9.5 1q10 0 18.5 -8.5t8.5 -20.5q0 -14 -8 -21l-93 -86q-19 -18 -35 -18q-12 0 -20 8.5t-8 21.5q0 12 8 20z" />
    <glyph glyph-name="Ocircumflex" unicode="&#xd4;" horiz-adv-x="551" 
d="M274 -10q-110 0 -160 72t-34 184l30 214q16 113 82.5 184t183.5 71t163.5 -71t30.5 -184l-30 -214q-16 -112 -86 -184t-180 -72zM365 637q-150 0 -175 -177l-30 -214q-12 -82 19 -130t106 -48t119 48t56 130l30 214q25 177 -125 177zM393 836l-83 -61q-8 -6 -20 -6
q-9 0 -15.5 7t-6.5 16q0 15 23 33l88 67q12 8 23 8t21 -8l69 -67q14 -14 14 -27q0 -11 -9 -20t-20 -9q-12 0 -18 6z" />
    <glyph glyph-name="Otilde" unicode="&#xd5;" horiz-adv-x="551" 
d="M274 -10q-110 0 -160 72t-34 184l30 214q16 113 82.5 184t183.5 71t163.5 -71t30.5 -184l-30 -214q-16 -112 -86 -184t-180 -72zM365 637q-150 0 -175 -177l-30 -214q-12 -82 19 -130t106 -48t119 48t56 130l30 214q25 177 -125 177zM533 854q0 -26 -29.5 -44.5
t-61.5 -20.5q-24 0 -54 15.5t-42 16.5q-20 0 -39.5 -13.5t-28.5 -13.5q-11 0 -18.5 7.5t-7.5 19.5q4 27 31 46t60 19q23 0 52.5 -15.5t43.5 -16.5q21 0 39.5 13.5t28.5 14.5q11 0 18.5 -8t7.5 -20z" />
    <glyph glyph-name="Odieresis" unicode="&#xd6;" horiz-adv-x="551" 
d="M274 -10q-110 0 -160 72t-34 184l30 214q16 113 82.5 184t183.5 71t163.5 -71t30.5 -184l-30 -214q-16 -112 -86 -184t-180 -72zM365 637q-150 0 -175 -177l-30 -214q-12 -82 19 -130t106 -48t119 48t56 130l30 214q25 177 -125 177zM525 844q0 -22 -16.5 -38t-37.5 -16
q-18 0 -30 13t-12 31q0 20 17 36t38 16q18 0 29.5 -12t11.5 -30zM356 844q0 -22 -16.5 -38t-38.5 -16q-18 0 -29 12.5t-11 30.5q0 21 16 37t37 16q19 0 30.5 -12t11.5 -30z" />
    <glyph glyph-name="multiply" unicode="&#xd7;" horiz-adv-x="500" 
d="M492 474l-138 -120l104 -120q10 -12 8 -28t-16 -27q-13 -12 -29.5 -11.5t-25.5 11.5l-104 120l-136 -120q-12 -11 -28.5 -11.5t-26.5 11.5q-10 11 -8 27t16 28l137 120l-104 120q-10 10 -7.5 27t15.5 28q13 12 29 12t26 -12l103 -120l137 120q14 12 29.5 12t25.5 -12
q10 -11 8 -27.5t-15 -27.5z" />
    <glyph glyph-name="Oslash" unicode="&#xd8;" horiz-adv-x="551" 
d="M31 39l59 70q-21 59 -10 137l30 214q16 113 82.5 184t183.5 71q113 0 163 -71l43 51q7 9 18.5 11t19.5 -4t8 -16.5t-7 -19.5l-59 -70q19 -60 8 -136l-30 -214q-16 -112 -86 -184t-180 -72q-108 0 -161 72l-43 -52q-7 -9 -18.5 -11t-19.5 4t-8 16.5t7 19.5zM365 637
q-150 0 -175 -177l-30 -214q-5 -36 -3 -57l324 386q-29 62 -116 62zM490 460q4 24 2 54l-322 -384q30 -62 115 -62q75 0 119 48t56 130z" />
    <glyph glyph-name="Ugrave" unicode="&#xd9;" horiz-adv-x="572" 
d="M539 230q-15 -106 -83.5 -173t-170.5 -67q-104 0 -153.5 67t-34.5 173l63 443q2 18 16 30t31 12q16 0 25.5 -12.5t7.5 -29.5l-63 -443q-10 -75 19.5 -118.5t99.5 -43.5q69 0 110.5 44t51.5 118l63 443q2 17 15.5 29.5t29.5 12.5q18 0 28 -12.5t8 -29.5zM371 905l66 -81
q4 -4 4 -12q0 -16 -12 -27t-27 -11q-14 0 -29 18l-69 86q-3 4 -3 13q0 15 12 26t24 11q6 0 11.5 -2t7.5 -4t7.5 -8.5t7.5 -8.5z" />
    <glyph glyph-name="Uacute" unicode="&#xda;" horiz-adv-x="572" 
d="M539 230q-15 -106 -83.5 -173t-170.5 -67q-104 0 -153.5 67t-34.5 173l63 443q2 18 16 30t31 12q16 0 25.5 -12.5t7.5 -29.5l-63 -443q-10 -75 19.5 -118.5t99.5 -43.5q69 0 110.5 44t51.5 118l63 443q2 17 15.5 29.5t29.5 12.5q18 0 28 -12.5t8 -29.5zM367 824l89 81
q3 2 8 7t7.5 7t6.5 4.5t8.5 3.5t9.5 1q10 0 18.5 -8.5t8.5 -20.5q0 -14 -8 -21l-93 -86q-20 -18 -35 -18q-12 0 -20 8.5t-8 21.5q0 12 8 20z" />
    <glyph glyph-name="Ucircumflex" unicode="&#xdb;" horiz-adv-x="572" 
d="M539 230q-15 -106 -83.5 -173t-170.5 -67q-104 0 -153.5 67t-34.5 173l63 443q2 18 16 30t31 12q16 0 25.5 -12.5t7.5 -29.5l-63 -443q-10 -75 19.5 -118.5t99.5 -43.5q69 0 110.5 44t51.5 118l63 443q2 17 15.5 29.5t29.5 12.5q18 0 28 -12.5t8 -29.5zM404 836l-83 -61
q-8 -6 -20 -6q-9 0 -15.5 7t-6.5 16q0 15 23 33l88 67q12 8 23 8t21 -8l69 -67q14 -14 14 -27q0 -11 -9 -20t-20 -9q-12 0 -18 6z" />
    <glyph glyph-name="Udieresis" unicode="&#xdc;" horiz-adv-x="572" 
d="M539 230q-15 -106 -83.5 -173t-170.5 -67q-104 0 -153.5 67t-34.5 173l63 443q2 18 16 30t31 12q16 0 25.5 -12.5t7.5 -29.5l-63 -443q-10 -75 19.5 -118.5t99.5 -43.5q69 0 110.5 44t51.5 118l63 443q2 17 15.5 29.5t29.5 12.5q18 0 28 -12.5t8 -29.5zM535 844
q0 -22 -16.5 -38t-37.5 -16q-18 0 -30 13t-12 31q0 20 17 36t38 16q18 0 29.5 -12t11.5 -30zM366 844q0 -22 -16.5 -38t-38.5 -16q-18 0 -29 12.5t-11 30.5q0 21 16 37t37 16q19 0 30.5 -12t11.5 -30z" />
    <glyph glyph-name="Yacute" unicode="&#xdd;" horiz-adv-x="476" 
d="M236 -10q-17 0 -27 12.5t-8 29.5l35 245l-125 378q-2 8 -2 15q0 18 15 31.5t32 13.5q22 0 29 -16l105 -329l197 329q10 16 33 16q14 0 25 -11t11 -26q0 -9 -7 -23l-232 -380l-34 -243q-2 -17 -16 -29.5t-31 -12.5zM284 824l89 81q3 2 8 7t7.5 7t6.5 4.5t8.5 3.5t9.5 1
q10 0 18.5 -8.5t8.5 -20.5q0 -14 -8 -21l-93 -86q-19 -18 -35 -18q-12 0 -20 8.5t-8 21.5q0 12 8 20z" />
    <glyph glyph-name="Thorn" unicode="&#xde;" horiz-adv-x="530" 
d="M77 30l91 645q2 16 15.5 28t29.5 12t26.5 -12t8.5 -28l-13 -89h115q102 0 149.5 -53t47.5 -136q0 -120 -71.5 -188.5t-188.5 -68.5h-115l-15 -110q-2 -16 -16 -28t-30 -12t-26 12t-8 28zM224 508l-41 -290h115q168 0 168 171q0 119 -127 119h-115z" />
    <glyph glyph-name="germandbls" unicode="&#xdf;" horiz-adv-x="544" 
d="M538 186q0 -86 -54.5 -138t-149.5 -52q-122 0 -122 43q0 14 11.5 26.5t34.5 12.5q11 0 40 -5.5t45 -5.5q44 0 79.5 27t35.5 81q0 45 -30 75t-71 45l-15.5 5t-17 6l-14.5 6.5t-14.5 8.5t-10.5 10t-8.5 14t-2.5 17q0 45 46 67q8 4 30 12.5t36.5 16.5t31.5 21t26 33.5
t9 46.5q0 42 -27 65t-72 23q-58 0 -90.5 -37t-43.5 -113l-73 -523q-2 -16 -15.5 -27.5t-29.5 -11.5t-25.5 11.5t-7.5 27.5l73 520q15 106 74.5 165.5t153.5 59.5q73 0 117 -37.5t44 -105.5q0 -118 -109 -164q-4 -2 -27.5 -10t-33 -14t-8.5 -14q1 -3 3.5 -6t8 -5.5t11.5 -4.5
t17 -6l20 -7q125 -49 125 -159z" />
    <glyph glyph-name="agrave" unicode="&#xe0;" horiz-adv-x="482" 
d="M302 514q89 0 122.5 -51t19.5 -151l-31 -220q-5 -30 14 -30q1 0 3.5 0.5t4.5 0.5q25 0 25 -29q0 -20 -15 -29.5t-35 -9.5q-50 0 -67 46q-82 -49 -144 -49q-73 0 -106.5 51.5t-21.5 137.5l18 127q14 95 66 150.5t147 55.5zM337 105l33 233q8 54 -12 79t-71 25
q-56 0 -83 -31t-37 -103l-18 -127q-17 -119 76 -119q55 0 112 43zM312 705l66 -81q4 -4 4 -12q0 -16 -12 -27t-27 -11q-14 0 -29 18l-69 86q-3 4 -3 13q0 15 12 26t24 11q6 0 11.5 -2t7.5 -4t7.5 -8.5t7.5 -8.5z" />
    <glyph glyph-name="aacute" unicode="&#xe1;" horiz-adv-x="482" 
d="M302 514q-95 0 -147 -55.5t-66 -150.5l-18 -127q-12 -86 21.5 -137.5t106.5 -51.5q62 0 144 49q17 -46 67 -46q20 0 35 9.5t15 29.5q0 29 -25 29q-2 0 -4.5 -0.5t-3.5 -0.5q-19 0 -14 30l31 220q14 100 -19.5 151t-122.5 51zM337 105q-57 -43 -112 -43q-93 0 -76 119
l18 127q10 72 37 103t83 31q51 0 71 -25t12 -79zM288 624l89 81q3 2 8 7t7.5 7t6.5 4.5t8.5 3.5t9.5 1q10 0 18.5 -8.5t8.5 -20.5q0 -14 -8 -21l-93 -86q-19 -18 -35 -18q-12 0 -20 8.5t-8 21.5q0 12 8 20z" />
    <glyph glyph-name="acircumflex" unicode="&#xe2;" horiz-adv-x="482" 
d="M302 514q89 0 122.5 -51t19.5 -151l-31 -220q-5 -30 14 -30q1 0 3.5 0.5t4.5 0.5q25 0 25 -29q0 -20 -15 -29.5t-35 -9.5q-50 0 -67 46q-82 -49 -144 -49q-73 0 -106.5 51.5t-21.5 137.5l18 127q14 95 66 150.5t147 55.5zM337 105l33 233q8 54 -12 79t-71 25
q-56 0 -83 -31t-37 -103l-18 -127q-17 -119 76 -119q55 0 112 43zM330 636l-83 -61q-8 -6 -20 -6q-9 0 -15.5 7t-6.5 16q0 15 23 33l88 67q12 8 23 8t21 -8l69 -67q14 -14 14 -27q0 -11 -9 -20t-20 -9q-12 0 -18 6z" />
    <glyph glyph-name="atilde" unicode="&#xe3;" horiz-adv-x="482" 
d="M302 514q-95 0 -147 -55.5t-66 -150.5l-18 -127q-12 -86 21.5 -137.5t106.5 -51.5q62 0 144 49q17 -46 67 -46q20 0 35 9.5t15 29.5q0 29 -25 29q-2 0 -4.5 -0.5t-3.5 -0.5q-19 0 -14 30l31 220q14 100 -19.5 151t-122.5 51zM337 105q-57 -43 -112 -43q-93 0 -76 119
l18 127q10 72 37 103t83 31q51 0 71 -25t12 -79zM471 654q0 -26 -29.5 -44.5t-61.5 -20.5q-24 0 -54 15.5t-42 16.5q-20 0 -39.5 -13.5t-28.5 -13.5q-11 0 -18.5 7.5t-7.5 19.5q4 27 31 46t60 19q23 0 52.5 -15.5t43.5 -16.5q21 0 39.5 13.5t28.5 14.5q11 0 18.5 -8t7.5 -20
z" />
    <glyph glyph-name="adieresis" unicode="&#xe4;" horiz-adv-x="482" 
d="M302 514q89 0 122.5 -51t19.5 -151l-31 -220q-5 -30 14 -30q1 0 3.5 0.5t4.5 0.5q25 0 25 -29q0 -20 -15 -29.5t-35 -9.5q-50 0 -67 46q-82 -49 -144 -49q-73 0 -106.5 51.5t-21.5 137.5l18 127q14 95 66 150.5t147 55.5zM337 105l33 233q8 54 -12 79t-71 25
q-56 0 -83 -31t-37 -103l-18 -127q-17 -119 76 -119q55 0 112 43zM462 644q0 -22 -16.5 -38t-37.5 -16q-18 0 -30 13t-12 31q0 20 17 36t38 16q18 0 29.5 -12t11.5 -30zM293 644q0 -22 -16.5 -38t-38.5 -16q-18 0 -29 12.5t-11 30.5q0 21 16 37t37 16q19 0 30.5 -12
t11.5 -30z" />
    <glyph glyph-name="aring" unicode="&#xe5;" horiz-adv-x="482" 
d="M302 514q-95 0 -147 -55.5t-66 -150.5l-18 -127q-12 -86 21.5 -137.5t106.5 -51.5q62 0 144 49q17 -46 67 -46q20 0 35 9.5t15 29.5q0 29 -25 29q-2 0 -4.5 -0.5t-3.5 -0.5q-19 0 -14 30l31 220q14 100 -19.5 151t-122.5 51zM337 105q-57 -43 -112 -43q-93 0 -76 119
l18 127q10 72 37 103t83 31q51 0 71 -25t12 -79zM433 656q0 -45 -34.5 -78t-79.5 -33q-38 0 -62.5 25t-24.5 62q0 45 34.5 78t80.5 33q37 0 61.5 -25t24.5 -62zM388 650q0 20 -13.5 34.5t-33.5 14.5q-25 0 -44 -18t-19 -43q0 -20 13.5 -34t33.5 -14q25 0 44 18t19 42z" />
    <glyph glyph-name="ae" unicode="&#xe6;" horiz-adv-x="712" 
d="M530 203q-48 0 -101 9l-8 -59q-6 -43 18.5 -67.5t77.5 -24.5q43 0 108 28q9 3 14 3q14 0 22.5 -9t8.5 -22q0 -34 -57.5 -51.5t-111.5 -17.5q-96 0 -128 71q-78 -71 -177 -71q-76 0 -121.5 53.5t-12.5 97.5l3 4q4 72 55.5 110t141.5 38q52 0 99 -14l8 57q15 107 -92 107
q-37 0 -79 -21q-24 -8 -27 -8q-23 0 -23 30q0 34 44.5 51t104.5 17q101 0 124 -82q52 82 160 82q69 0 105 -36.5t36 -99.5q0 -175 -192 -175zM645 369q0 74 -80 74q-48 0 -79 -24.5t-37 -66.5l-11 -76q65 -7 104 -7q103 0 103 100zM336 106l16 108q-48 15 -100 15
q-17 0 -30.5 -2.5t-24 -8t-17 -10t-13 -14.5t-9 -15t-7.5 -17.5t-7 -15.5l-2 -4q-2 -40 13.5 -60t62.5 -20q61 0 118 44z" />
    <glyph glyph-name="ccedilla" unicode="&#xe7;" horiz-adv-x="393" 
d="M317 -114q0 -46 -41 -76.5t-111 -20.5q-24 3 -38 17t-3 30q3 5 6.5 7.5t9 2.5t9.5 -1t13 -3.5t15 -3.5q34 -7 54.5 9t20.5 36q0 29 -55 32q-24 2 -31 8t-2 24l15 49q-66 12 -92.5 60.5t-16.5 119.5l21 151q11 82 63 133t142 51q45 0 88 -14t43 -43q0 -15 -12 -26.5
t-28 -11.5q-6 0 -15 3q-44 23 -78 23q-109 0 -125 -115l-21 -151q-16 -115 92 -115q35 0 85 23q9 3 16 3q13 0 21.5 -9t8.5 -21q0 -33 -46 -48.5t-97 -16.5l-10 -32q99 -1 99 -74z" />
    <glyph glyph-name="egrave" unicode="&#xe8;" horiz-adv-x="435" 
d="M241 61q43 0 108 28q6 3 14 3q13 0 21.5 -9.5t8.5 -21.5q0 -18 -18.5 -32.5t-46.5 -22t-55.5 -11t-50.5 -3.5q-83 0 -124 46.5t-31 119.5l27 187q11 75 65.5 122t140.5 47q72 0 109 -36t37 -100q0 -82 -47 -128.5t-145 -46.5q-50 0 -101 9l-8 -59q-6 -43 18.5 -67.5
t77.5 -24.5zM368 369q0 74 -80 74q-48 0 -79 -24.5t-37 -66.5l-11 -76q52 -7 105 -7q102 0 102 100zM269 705l66 -81q4 -4 4 -12q0 -16 -12 -27t-27 -11q-14 0 -29 18l-69 86q-3 4 -3 13q0 15 12 26t24 11q6 0 11.5 -2t7.5 -4t7.5 -8.5t7.5 -8.5z" />
    <glyph glyph-name="eacute" unicode="&#xe9;" horiz-adv-x="435" 
d="M241 61q-53 0 -77.5 24.5t-18.5 67.5l8 59q51 -9 101 -9q98 0 145 46.5t47 128.5q0 64 -37 100t-109 36q-86 0 -140.5 -47t-65.5 -122l-27 -187q-10 -73 31 -119.5t124 -46.5q23 0 50.5 3.5t55.5 11t46.5 22t18.5 32.5q0 12 -8.5 21.5t-21.5 9.5q-8 0 -14 -3
q-65 -28 -108 -28zM368 369q0 -100 -102 -100q-53 0 -105 7l11 76q6 42 37 66.5t79 24.5q80 0 80 -74zM272 624l89 81q3 2 8 7t7.5 7t6.5 4.5t8.5 3.5t9.5 1q10 0 18.5 -8.5t8.5 -20.5q0 -14 -8 -21l-93 -86q-19 -18 -35 -18q-12 0 -20 8.5t-8 21.5q0 12 8 20z" />
    <glyph glyph-name="ecircumflex" unicode="&#xea;" horiz-adv-x="435" 
d="M241 61q43 0 108 28q6 3 14 3q13 0 21.5 -9.5t8.5 -21.5q0 -18 -18.5 -32.5t-46.5 -22t-55.5 -11t-50.5 -3.5q-83 0 -124 46.5t-31 119.5l27 187q11 75 65.5 122t140.5 47q72 0 109 -36t37 -100q0 -82 -47 -128.5t-145 -46.5q-50 0 -101 9l-8 -59q-6 -43 18.5 -67.5
t77.5 -24.5zM368 369q0 74 -80 74q-48 0 -79 -24.5t-37 -66.5l-11 -76q52 -7 105 -7q102 0 102 100zM306 636l-83 -61q-8 -6 -20 -6q-9 0 -15.5 7t-6.5 16q0 15 23 33l88 67q12 8 23 8t21 -8l69 -67q14 -14 14 -27q0 -11 -9 -20t-20 -9q-12 0 -18 6z" />
    <glyph glyph-name="edieresis" unicode="&#xeb;" horiz-adv-x="435" 
d="M241 61q-53 0 -77.5 24.5t-18.5 67.5l8 59q51 -9 101 -9q98 0 145 46.5t47 128.5q0 64 -37 100t-109 36q-86 0 -140.5 -47t-65.5 -122l-27 -187q-10 -73 31 -119.5t124 -46.5q23 0 50.5 3.5t55.5 11t46.5 22t18.5 32.5q0 12 -8.5 21.5t-21.5 9.5q-8 0 -14 -3
q-65 -28 -108 -28zM368 369q0 -100 -102 -100q-53 0 -105 7l11 76q6 42 37 66.5t79 24.5q80 0 80 -74zM439 644q0 -22 -16.5 -38t-37.5 -16q-18 0 -30 13t-12 31q0 20 17 36t38 16q18 0 29.5 -12t11.5 -30zM270 644q0 -22 -16.5 -38t-38.5 -16q-18 0 -29 12.5t-11 30.5
q0 21 16 37t37 16q19 0 30.5 -12t11.5 -30z" />
    <glyph glyph-name="igrave" unicode="&#xec;" horiz-adv-x="245" 
d="M97 94l53 378q2 16 15 27.5t29 11.5t26 -11.5t8 -27.5l-53 -378q-5 -33 7 -47q5 -8 5 -16q0 -16 -12.5 -27.5t-29.5 -11.5q-63 0 -48 102zM182 705l66 -81q4 -4 4 -12q0 -16 -12 -27t-27 -11q-14 0 -29 18l-69 86q-3 4 -3 13q0 15 12 26t24 11q6 0 11.5 -2t7.5 -4
t7.5 -8.5t7.5 -8.5z" />
    <glyph glyph-name="iacute" unicode="&#xed;" horiz-adv-x="245" 
d="M97 94l53 378q2 16 15 27.5t29 11.5t26 -11.5t8 -27.5l-53 -378q-5 -33 7 -47q5 -8 5 -16q0 -16 -12.5 -27.5t-29.5 -11.5q-63 0 -48 102zM175 624l89 81q3 2 8 7t7.5 7t6.5 4.5t8.5 3.5t9.5 1q10 0 18.5 -8.5t8.5 -20.5q0 -14 -8 -21l-93 -86q-20 -18 -35 -18
q-12 0 -20 8.5t-8 21.5q0 12 8 20z" />
    <glyph glyph-name="icircumflex" unicode="&#xee;" horiz-adv-x="245" 
d="M97 94l53 378q2 16 15 27.5t29 11.5t26 -11.5t8 -27.5l-53 -378q-5 -33 7 -47q5 -8 5 -16q0 -16 -12.5 -27.5t-29.5 -11.5q-63 0 -48 102zM212 636l-83 -61q-8 -6 -20 -6q-9 0 -15.5 7t-6.5 16q0 15 23 33l88 67q12 8 23 8t21 -8l69 -67q14 -14 14 -27q0 -11 -9 -20
t-20 -9q-12 0 -18 6z" />
    <glyph glyph-name="idieresis" unicode="&#xef;" horiz-adv-x="245" 
d="M97 94l53 378q2 16 15 27.5t29 11.5t26 -11.5t8 -27.5l-53 -378q-5 -33 7 -47q5 -8 5 -16q0 -16 -12.5 -27.5t-29.5 -11.5q-63 0 -48 102zM344 644q0 -22 -16.5 -38t-37.5 -16q-18 0 -30 13t-12 31q0 20 17 36t38 16q18 0 29.5 -12t11.5 -30zM175 644q0 -22 -16.5 -38
t-38.5 -16q-18 0 -29 12.5t-11 30.5q0 21 16 37t37 16q19 0 30.5 -12t11.5 -30z" />
    <glyph glyph-name="eth" unicode="&#xf0;" horiz-adv-x="500" 
d="M584 647l1 -8q-5 -17 -19 -24l-64 -32q13 -54 13 -145q0 -167 -30 -267t-85 -140.5t-144 -40.5q-95 0 -142 50t-47 134q0 109 60.5 186t160.5 77q91 0 143 -47q14 102 2 158l-70 -35q-14 -7 -24 -7q-11 0 -18.5 10.5t-4.5 22.5q5 17 19 24l76 38q-25 34 -95 42
q-9 1 -13.5 2.5t-9.5 9t0 22.5q4 17 16 24.5t43 7.5q87 0 129 -73l57 29q12 6 24 6q11 0 16.5 -6t5.5 -12v-6zM418 281l4 28q-19 24 -60 40t-77 16q-63 0 -101 -49t-38 -129q0 -56 28.5 -89.5t87.5 -33.5q70 0 104.5 50t51.5 167z" />
    <glyph glyph-name="ntilde" unicode="&#xf1;" horiz-adv-x="509" 
d="M368 94l32 229q8 57 -11 88t-64 31q-57 0 -117 -42q0 -21 -1 -29l-48 -340q-2 -17 -13.5 -27.5t-30.5 -10.5t-27.5 10.5t-6.5 27.5l48 340q3 20 3 33t-1 16.5t-5 11.5t-5 9q-5 15 -5 17q0 16 12.5 27t29.5 11q24 0 38 -29q71 45 150 45q78 0 111 -51t21 -138l-32 -229
q-5 -33 7 -47q5 -7 5 -16q0 -16 -12.5 -27.5t-29.5 -11.5q-63 0 -48 102zM473 654q0 -26 -29.5 -44.5t-61.5 -20.5q-24 0 -54 15.5t-42 16.5q-20 0 -39.5 -13.5t-28.5 -13.5q-11 0 -18.5 7.5t-7.5 19.5q4 27 31 46t60 19q23 0 52.5 -15.5t43.5 -16.5q21 0 39.5 13.5
t28.5 14.5q11 0 18.5 -8t7.5 -20z" />
    <glyph glyph-name="ograve" unicode="&#xf2;" horiz-adv-x="464" 
d="M231 -8q-89 0 -131 50t-31 128l24 167q11 78 67 128t145 50t131 -50t31 -128l-24 -167q-11 -78 -67 -128t-145 -50zM241 64q53 0 85 28t39 78l24 168q7 49 -17.5 77t-77.5 28t-84.5 -27.5t-38.5 -77.5l-24 -168q-7 -50 17 -78t77 -28zM296 705l66 -81q4 -4 4 -12
q0 -16 -12 -27t-27 -11q-14 0 -29 18l-69 86q-3 4 -3 13q0 15 12 26t24 11q6 0 11.5 -2t7.5 -4t7.5 -8.5t7.5 -8.5z" />
    <glyph glyph-name="oacute" unicode="&#xf3;" horiz-adv-x="464" 
d="M231 -8q-89 0 -131 50t-31 128l24 167q11 78 67 128t145 50t131 -50t31 -128l-24 -167q-11 -78 -67 -128t-145 -50zM241 64q53 0 85 28t39 78l24 168q7 49 -17.5 77t-77.5 28t-84.5 -27.5t-38.5 -77.5l-24 -168q-7 -50 17 -78t77 -28zM249 624l89 81q3 2 8 7t7.5 7
t6.5 4.5t8.5 3.5t9.5 1q10 0 18.5 -8.5t8.5 -20.5q0 -14 -8 -21l-93 -86q-20 -18 -35 -18q-12 0 -20 8.5t-8 21.5q0 12 8 20z" />
    <glyph glyph-name="ocircumflex" unicode="&#xf4;" horiz-adv-x="464" 
d="M231 -8q-89 0 -131 50t-31 128l24 167q11 78 67 128t145 50t131 -50t31 -128l-24 -167q-11 -78 -67 -128t-145 -50zM241 64q53 0 85 28t39 78l24 168q7 49 -17.5 77t-77.5 28t-84.5 -27.5t-38.5 -77.5l-24 -168q-7 -50 17 -78t77 -28zM321 636l-83 -61q-8 -6 -20 -6
q-9 0 -15.5 7t-6.5 16q0 15 23 33l88 67q12 8 23 8t21 -8l69 -67q14 -14 14 -27q0 -11 -9 -20t-20 -9q-12 0 -18 6z" />
    <glyph glyph-name="otilde" unicode="&#xf5;" horiz-adv-x="464" 
d="M231 -8q-89 0 -131 50t-31 128l24 167q11 78 67 128t145 50t131 -50t31 -128l-24 -167q-11 -78 -67 -128t-145 -50zM241 64q53 0 85 28t39 78l24 168q7 49 -17.5 77t-77.5 28t-84.5 -27.5t-38.5 -77.5l-24 -168q-7 -50 17 -78t77 -28zM462 654q0 -26 -29.5 -44.5
t-61.5 -20.5q-24 0 -54 15.5t-42 16.5q-20 0 -39.5 -13.5t-28.5 -13.5q-11 0 -18.5 7.5t-7.5 19.5q4 27 31 46t60 19q23 0 52.5 -15.5t43.5 -16.5q21 0 39.5 13.5t28.5 14.5q11 0 18.5 -8t7.5 -20z" />
    <glyph glyph-name="odieresis" unicode="&#xf6;" horiz-adv-x="464" 
d="M231 -8q-89 0 -131 50t-31 128l24 167q11 78 67 128t145 50t131 -50t31 -128l-24 -167q-11 -78 -67 -128t-145 -50zM241 64q53 0 85 28t39 78l24 168q7 49 -17.5 77t-77.5 28t-84.5 -27.5t-38.5 -77.5l-24 -168q-7 -50 17 -78t77 -28zM453 644q0 -22 -16.5 -38t-37.5 -16
q-18 0 -30 13t-12 31q0 20 17 36t38 16q18 0 29.5 -12t11.5 -30zM284 644q0 -22 -16.5 -38t-38.5 -16q-18 0 -29 12.5t-11 30.5q0 21 16 37t37 16q19 0 30.5 -12t11.5 -30z" />
    <glyph glyph-name="oslash" unicode="&#xf8;" horiz-adv-x="464" 
d="M43 21l39 47q-21 40 -13 102l23 167q11 78 67 128t145 50q77 0 120 -40l33 39q7 9 18 10.5t19 -4.5q20 -15 2 -36l-42 -49q20 -42 12 -98l-23 -167q-11 -78 -67 -128t-145 -50q-73 0 -118 37l-32 -38q-7 -8 -17.5 -10t-18.5 4t-8.5 16.5t6.5 19.5zM147 170q-2 -10 -2 -27
l227 270q-25 30 -78 30t-85 -27.5t-39 -77.5zM241 64q53 0 85 28t39 78l23 168q2 14 2 20l-226 -268q24 -26 77 -26z" />
    <glyph glyph-name="ugrave" unicode="&#xf9;" horiz-adv-x="509" 
d="M370 123l49 350q2 17 13.5 27.5t30.5 10.5t27.5 -10.5t6.5 -27.5l-49 -350q-3 -19 -3 -32t1.5 -17.5t5 -11t4.5 -9.5q4 -12 4 -17q0 -15 -12.5 -26.5t-29.5 -11.5q-24 0 -39 30q-68 -36 -147 -36q-78 0 -111 51t-21 138l41 292q2 16 14 27t30 11t27 -11t7 -27l-41 -292
q-8 -57 11 -88t64 -31q58 0 115 33q0 12 2 28zM305 705l66 -81q4 -4 4 -12q0 -16 -12 -27t-27 -11q-14 0 -29 18l-69 86q-3 4 -3 13q0 15 12 26t24 11q6 0 11.5 -2t7.5 -4t7.5 -8.5t7.5 -8.5z" />
    <glyph glyph-name="uacute" unicode="&#xfa;" horiz-adv-x="509" 
d="M370 123l49 350q2 17 13.5 27.5t30.5 10.5t27.5 -10.5t6.5 -27.5l-49 -350q-3 -19 -3 -32t1.5 -17.5t5 -11t4.5 -9.5q4 -12 4 -17q0 -15 -12.5 -26.5t-29.5 -11.5q-24 0 -39 30q-68 -36 -147 -36q-78 0 -111 51t-21 138l41 292q2 16 14 27t30 11t27 -11t7 -27l-41 -292
q-8 -57 11 -88t64 -31q58 0 115 33q0 12 2 28zM305 624l89 81q3 2 8 7t7.5 7t6.5 4.5t8.5 3.5t9.5 1q10 0 18.5 -8.5t8.5 -20.5q0 -14 -8 -21l-93 -86q-19 -18 -35 -18q-12 0 -20 8.5t-8 21.5q0 12 8 20z" />
    <glyph glyph-name="ucircumflex" unicode="&#xfb;" horiz-adv-x="509" 
d="M370 123l49 350q2 17 13.5 27.5t30.5 10.5t27.5 -10.5t6.5 -27.5l-49 -350q-3 -19 -3 -32t1.5 -17.5t5 -11t4.5 -9.5q4 -12 4 -17q0 -15 -12.5 -26.5t-29.5 -11.5q-24 0 -39 30q-68 -36 -147 -36q-78 0 -111 51t-21 138l41 292q2 16 14 27t30 11t27 -11t7 -27l-41 -292
q-8 -57 11 -88t64 -31q58 0 115 33q0 12 2 28zM343 636l-83 -61q-8 -6 -20 -6q-9 0 -15.5 7t-6.5 16q0 15 23 33l88 67q12 8 23 8t21 -8l69 -67q14 -14 14 -27q0 -11 -9 -20t-20 -9q-12 0 -18 6z" />
    <glyph glyph-name="udieresis" unicode="&#xfc;" horiz-adv-x="509" 
d="M370 123l49 350q2 17 13.5 27.5t30.5 10.5t27.5 -10.5t6.5 -27.5l-49 -350q-3 -19 -3 -32t1.5 -17.5t5 -11t4.5 -9.5q4 -12 4 -17q0 -15 -12.5 -26.5t-29.5 -11.5q-24 0 -39 30q-68 -36 -147 -36q-78 0 -111 51t-21 138l41 292q2 16 14 27t30 11t27 -11t7 -27l-41 -292
q-8 -57 11 -88t64 -31q58 0 115 33q0 12 2 28zM476 644q0 -22 -16.5 -38t-37.5 -16q-18 0 -30 13t-12 31q0 20 17 36t38 16q18 0 29.5 -12t11.5 -30zM307 644q0 -22 -16.5 -38t-38.5 -16q-18 0 -29 12.5t-11 30.5q0 21 16 37t37 16q19 0 30.5 -12t11.5 -30z" />
    <glyph glyph-name="yacute" unicode="&#xfd;" horiz-adv-x="509" 
d="M377 107l51 366q2 16 14 27t31 11q38 0 33 -38l-72 -513q-11 -82 -63 -133t-141 -51q-46 0 -88.5 14t-42.5 43q0 15 11.5 26.5t27.5 11.5q8 0 15 -3q44 -23 78 -23q109 0 125 115l10 70q-63 -37 -133 -37q-160 0 -134 182l41 298q2 16 14.5 27t30.5 11t26.5 -11t6.5 -27
l-41 -298q-16 -114 82 -114q69 0 118 46zM316 624l89 81q3 2 8 7t7.5 7t6.5 4.5t8.5 3.5t9.5 1q10 0 18.5 -8.5t8.5 -20.5q0 -14 -8 -21l-93 -86q-19 -18 -35 -18q-12 0 -20 8.5t-8 21.5q0 12 8 20z" />
    <glyph glyph-name="thorn" unicode="&#xfe;" horiz-adv-x="485" 
d="M208 396l-37 -264q37 -50 106 -50q96 0 109 88l26 188q13 88 -83 88q-69 0 -121 -50zM49 -179l122 866q2 16 14 27t30 11t27 -11t7 -27l-30 -214q63 41 138 41q154 0 133 -156l-26 -188q-23 -156 -177 -156q-75 0 -127 41l-33 -234q-2 -16 -14.5 -27t-30.5 -11t-26.5 11
t-6.5 27z" />
    <glyph glyph-name="ydieresis" unicode="&#xff;" horiz-adv-x="509" 
d="M377 107l51 366q2 16 14 27t31 11q38 0 33 -38l-72 -513q-11 -82 -63 -133t-141 -51q-46 0 -88.5 14t-42.5 43q0 15 11.5 26.5t27.5 11.5q8 0 15 -3q44 -23 78 -23q109 0 125 115l10 70q-63 -37 -133 -37q-160 0 -134 182l41 298q2 16 14.5 27t30.5 11t26.5 -11t6.5 -27
l-41 -298q-16 -114 82 -114q69 0 118 46zM476 644q0 -22 -16.5 -38t-37.5 -16q-18 0 -30 13t-12 31q0 20 17 36t38 16q18 0 29.5 -12t11.5 -30zM307 644q0 -22 -16.5 -38t-38.5 -16q-18 0 -29 12.5t-11 30.5q0 21 16 37t37 16q19 0 30.5 -12t11.5 -30z" />
    <glyph glyph-name="Amacron" unicode="&#x100;" horiz-adv-x="549" 
d="M170 159l-62 -139q-6 -13 -18.5 -21.5t-23.5 -8.5q-16 0 -26.5 9.5t-10.5 25.5q0 13 5 20l281 617q25 53 60 53q21 0 30.5 -13.5t14.5 -39.5l108 -617v-3q1 -3 1 -5q0 -21 -14 -34t-34 -13q-12 0 -22.5 8.5t-12.5 21.5l-23 139h-253zM355 576l-150 -339h206zM553 841
q0 -16 -12.5 -28t-29.5 -12h-249q-14 0 -23 9t-9 23q0 16 13 28.5t30 12.5h249q13 0 22 -9.5t9 -23.5z" />
    <glyph glyph-name="amacron" unicode="&#x101;" horiz-adv-x="482" 
d="M302 514q-95 0 -147 -55.5t-66 -150.5l-18 -127q-12 -86 21.5 -137.5t106.5 -51.5q62 0 144 49q17 -46 67 -46q20 0 35 9.5t15 29.5q0 29 -25 29q-2 0 -4.5 -0.5t-3.5 -0.5q-19 0 -14 30l31 220q14 100 -19.5 151t-122.5 51zM337 105q-57 -43 -112 -43q-93 0 -76 119
l18 127q10 72 37 103t83 31q51 0 71 -25t12 -79zM469 641q0 -16 -12.5 -28t-29.5 -12h-249q-14 0 -23 9t-9 23q0 16 13 28.5t30 12.5h249q13 0 22 -9.5t9 -23.5z" />
    <glyph glyph-name="Abreve" unicode="&#x102;" horiz-adv-x="549" 
d="M170 159l-62 -139q-6 -13 -18.5 -21.5t-23.5 -8.5q-16 0 -26.5 9.5t-10.5 25.5q0 13 5 20l281 617q25 53 60 53q21 0 30.5 -13.5t14.5 -39.5l108 -617v-3q1 -3 1 -5q0 -21 -14 -34t-34 -13q-12 0 -22.5 8.5t-12.5 21.5l-23 139h-253zM355 576l-150 -339h206zM392 833
q36 0 70 41q13 16 33 16q14 0 21 -9.5t0 -27.5q-15 -38 -55 -59.5t-78 -21.5t-72 21.5t-38 59.5q-2 18 8 27.5t24 9.5q18 0 27 -16q22 -41 60 -41z" />
    <glyph glyph-name="abreve" unicode="&#x103;" horiz-adv-x="482" 
d="M302 514q-95 0 -147 -55.5t-66 -150.5l-18 -127q-12 -86 21.5 -137.5t106.5 -51.5q62 0 144 49q17 -46 67 -46q20 0 35 9.5t15 29.5q0 29 -25 29q-2 0 -4.5 -0.5t-3.5 -0.5q-19 0 -14 30l31 220q14 100 -19.5 151t-122.5 51zM337 105q-57 -43 -112 -43q-93 0 -76 119
l18 127q10 72 37 103t83 31q51 0 71 -25t12 -79zM330 633q36 0 70 41q13 16 33 16q14 0 21 -9.5t0 -27.5q-15 -38 -55 -59.5t-78 -21.5t-72 21.5t-38 59.5q-2 18 8 27.5t24 9.5q18 0 27 -16q22 -41 60 -41z" />
    <glyph glyph-name="Aogonek" unicode="&#x104;" horiz-adv-x="549" 
d="M571 -153q0 -42 -83 -42q-92 0 -92 76q0 55 58 122q-6 5 -8 17l-23 139h-253l-62 -139q-6 -13 -18.5 -21.5t-23.5 -8.5q-16 0 -26.5 9.5t-10.5 25.5q0 13 5 20l281 617q25 53 60 53q21 0 30.5 -13.5t14.5 -39.5l108 -617v-3q1 -3 1 -5q0 -18 -20 -38q-19 -19 -31 -47
t-12 -48q0 -38 38 -38q14 0 26.5 2.5t16.5 2.5q10 0 17 -7t7 -17zM355 576l-150 -339h206z" />
    <glyph glyph-name="aogonek" unicode="&#x105;" horiz-adv-x="482" 
d="M343 41q-82 -49 -144 -49q-73 0 -106.5 51.5t-21.5 137.5l18 127q14 95 66 150.5t147 55.5q89 0 122.5 -51t19.5 -151l-31 -220q-5 -30 14 -30q1 0 3.5 0.5t4.5 0.5q25 0 25 -29q0 -5 -1 -9t-2.5 -6.5t-4.5 -5.5t-5 -4.5t-5.5 -4.5t-5.5 -4q-20 -17 -32 -46t-12 -50
q0 -38 38 -38q14 0 26.5 2.5t16.5 2.5q10 0 17 -7t7 -17q0 -42 -83 -42q-92 0 -92 76q0 54 57 120q-25 10 -36 40zM337 105l33 233q8 54 -12 79t-71 25q-56 0 -83 -31t-37 -103l-18 -127q-17 -119 76 -119q55 0 112 43z" />
    <glyph glyph-name="Cacute" unicode="&#x106;" horiz-adv-x="482" 
d="M80 246l30 214q17 119 83 187t178 68q66 0 115.5 -24.5t49.5 -57.5q0 -16 -12 -27.5t-29 -11.5q-12 0 -34 17q-42 31 -96 31q-81 0 -121.5 -46.5t-53.5 -135.5l-30 -214q-13 -89 15 -135.5t109 -46.5q54 0 105 31q28 17 38 17q14 0 22.5 -9t8.5 -22q0 -36 -58.5 -63
t-130.5 -27q-112 0 -159 68t-30 187zM354 824l89 81q3 2 8 7t7.5 7t6.5 4.5t8.5 3.5t9.5 1q10 0 18.5 -8.5t8.5 -20.5q0 -14 -8 -21l-93 -86q-19 -18 -35 -18q-12 0 -20 8.5t-8 21.5q0 12 8 20z" />
    <glyph glyph-name="cacute" unicode="&#x107;" horiz-adv-x="393" 
d="M70 176l21 151q11 82 63 133t142 51q45 0 87.5 -14t42.5 -43q0 -15 -11.5 -26.5t-27.5 -11.5q-10 0 -15 3q-48 23 -78 23q-109 0 -125 -115l-22 -151q-16 -115 93 -115q31 0 85 23q6 3 16 3q13 0 21.5 -9t8.5 -21q0 -33 -49.5 -49t-98.5 -16q-90 0 -127.5 51t-25.5 133z
M264 624l89 81q3 2 8 7t7.5 7t6.5 4.5t8.5 3.5t9.5 1q10 0 18.5 -8.5t8.5 -20.5q0 -14 -8 -21l-93 -86q-19 -18 -35 -18q-12 0 -20 8.5t-8 21.5q0 12 8 20z" />
    <glyph glyph-name="Ccircumflex" unicode="&#x108;" horiz-adv-x="482" 
d="M80 246l30 214q17 119 83 187t178 68q66 0 115.5 -24.5t49.5 -57.5q0 -16 -12 -27.5t-29 -11.5q-12 0 -34 17q-42 31 -96 31q-81 0 -121.5 -46.5t-53.5 -135.5l-30 -214q-13 -89 15 -135.5t109 -46.5q54 0 105 31q28 17 38 17q14 0 22.5 -9t8.5 -22q0 -36 -58.5 -63
t-130.5 -27q-112 0 -159 68t-30 187zM385 836l-83 -61q-8 -6 -20 -6q-9 0 -15.5 7t-6.5 16q0 15 23 33l88 67q12 8 23 8t21 -8l69 -67q14 -14 14 -27q0 -11 -9 -20t-20 -9q-12 0 -18 6z" />
    <glyph glyph-name="ccircumflex" unicode="&#x109;" horiz-adv-x="393" 
d="M70 176l21 151q11 82 63 133t142 51q45 0 87.5 -14t42.5 -43q0 -15 -11.5 -26.5t-27.5 -11.5q-10 0 -15 3q-48 23 -78 23q-109 0 -125 -115l-22 -151q-16 -115 93 -115q31 0 85 23q6 3 16 3q13 0 21.5 -9t8.5 -21q0 -33 -49.5 -49t-98.5 -16q-90 0 -127.5 51t-25.5 133z
M286 636l-83 -61q-8 -6 -20 -6q-9 0 -15.5 7t-6.5 16q0 15 23 33l88 67q12 8 23 8t21 -8l69 -67q14 -14 14 -27q0 -11 -9 -20t-20 -9q-12 0 -18 6z" />
    <glyph glyph-name="Cdotaccent" unicode="&#x10a;" horiz-adv-x="482" 
d="M80 246l30 214q17 119 83 187t178 68q66 0 115.5 -24.5t49.5 -57.5q0 -16 -12 -27.5t-29 -11.5q-12 0 -34 17q-42 31 -96 31q-81 0 -121.5 -46.5t-53.5 -135.5l-30 -214q-13 -89 15 -135.5t109 -46.5q54 0 105 31q28 17 38 17q14 0 22.5 -9t8.5 -22q0 -36 -58.5 -63
t-130.5 -27q-112 0 -159 68t-30 187zM406 844q0 -22 -16.5 -38t-38.5 -16q-18 0 -29 12.5t-11 30.5q0 21 16 37t37 16q19 0 30.5 -12t11.5 -30z" />
    <glyph glyph-name="cdotaccent" unicode="&#x10b;" horiz-adv-x="393" 
d="M70 176l21 151q11 82 63 133t142 51q45 0 87.5 -14t42.5 -43q0 -15 -11.5 -26.5t-27.5 -11.5q-10 0 -15 3q-48 23 -78 23q-109 0 -125 -115l-22 -151q-16 -115 93 -115q31 0 85 23q6 3 16 3q13 0 21.5 -9t8.5 -21q0 -33 -49.5 -49t-98.5 -16q-90 0 -127.5 51t-25.5 133z
M333 644q0 -22 -16.5 -38t-38.5 -16q-18 0 -29 12.5t-11 30.5q0 21 16 37t37 16q19 0 30.5 -12t11.5 -30z" />
    <glyph glyph-name="Ccaron" unicode="&#x10c;" horiz-adv-x="482" 
d="M80 246l30 214q17 119 83 187t178 68q66 0 115.5 -24.5t49.5 -57.5q0 -16 -12 -27.5t-29 -11.5q-12 0 -34 17q-42 31 -96 31q-81 0 -121.5 -46.5t-53.5 -135.5l-30 -214q-13 -89 15 -135.5t109 -46.5q54 0 105 31q28 17 38 17q14 0 22.5 -9t8.5 -22q0 -36 -58.5 -63
t-130.5 -27q-112 0 -159 68t-30 187zM383 762q-12 0 -23 9l-77 73q-16 14 -16 30q0 14 11 23.5t24 9.5q8 0 17 -7l74 -67l93 67q11 7 18 7q11 0 19.5 -7.5t8.5 -18.5q0 -19 -25 -37l-99 -73q-13 -9 -25 -9z" />
    <glyph glyph-name="ccaron" unicode="&#x10d;" horiz-adv-x="393" 
d="M70 176l21 151q11 82 63 133t142 51q45 0 87.5 -14t42.5 -43q0 -15 -11.5 -26.5t-27.5 -11.5q-10 0 -15 3q-48 23 -78 23q-109 0 -125 -115l-22 -151q-16 -115 93 -115q31 0 85 23q6 3 16 3q13 0 21.5 -9t8.5 -21q0 -33 -49.5 -49t-98.5 -16q-90 0 -127.5 51t-25.5 133z
M302 562q-12 0 -23 9l-77 73q-16 14 -16 30q0 14 11 23.5t24 9.5q8 0 17 -7l74 -67l93 67q11 7 18 7q11 0 19.5 -7.5t8.5 -18.5q0 -19 -25 -37l-99 -73q-13 -9 -25 -9z" />
    <glyph glyph-name="Dcaron" unicode="&#x10e;" horiz-adv-x="554" 
d="M545 264q-16 -115 -92 -189.5t-219 -74.5h-113q-20 0 -32 14.5t-9 33.5l85 610q3 20 19.5 34t35.5 14h113q74 0 125.5 -20.5t77.5 -57t34 -80.5t1 -97zM465 264l26 187q11 80 -24.5 128.5t-127.5 48.5h-98l-77 -550h98q93 0 142.5 51t60.5 135zM384 762q-12 0 -23 9
l-77 73q-16 14 -16 30q0 14 11 23.5t24 9.5q8 0 17 -7l74 -67l93 67q11 7 18 7q11 0 19.5 -7.5t8.5 -18.5q0 -19 -25 -37l-99 -73q-13 -9 -25 -9z" />
    <glyph glyph-name="dcaron" unicode="&#x10f;" horiz-adv-x="605" 
d="M284 510q54 0 108 -19l28 196q2 16 14 27t30 11t27 -11t7 -27l-81 -573q-6 -40 18 -60q4 -10 4 -16q0 -17 -12.5 -28t-27.5 -11q-33 0 -48 32q-83 -39 -148 -39q-77 0 -110.5 51.5t-21.5 137.5l18 127q14 96 59.5 149t135.5 53zM339 114l43 307q-47 21 -98 21
q-54 0 -80.5 -31.5t-36.5 -102.5l-18 -127q-17 -119 80 -119q51 0 109 29q-1 9 1 23zM676 678q0 -44 -38 -107t-61 -63q-17 0 -17 14q0 18 21 47t29 48q-19 2 -30.5 15.5t-11.5 32.5q0 25 18.5 42.5t43.5 17.5q20 0 33 -13.5t13 -33.5z" />
    <glyph glyph-name="Dcroat" unicode="&#x110;" horiz-adv-x="574" 
d="M565 264q-16 -115 -92 -189.5t-219 -74.5h-113q-20 0 -32.5 14.5t-9.5 33.5l38 269h-39q-14 0 -23 9t-9 23q0 16 13 28.5t30 12.5h38l38 268q3 20 19.5 34t35.5 14h113q74 0 125.5 -20.5t77.5 -57t34 -80.5t1 -97zM389 357q0 -16 -12.5 -28t-29.5 -12h-130l-33 -239h98
q93 0 142.5 51t60.5 135l26 187q11 80 -24.5 128.5t-127.5 48.5h-98l-33 -238h130q13 0 22 -9.5t9 -23.5z" />
    <glyph glyph-name="dcroat" unicode="&#x111;" horiz-adv-x="488" 
d="M570 610q0 -16 -12.5 -28t-29.5 -12h-47l-64 -456q-6 -40 18 -60q4 -10 4 -16q0 -17 -12.5 -28t-27.5 -11q-33 0 -48 32q-83 -39 -148 -39q-77 0 -110.5 51.5t-21.5 137.5l18 127q14 96 59.5 149t135.5 53q54 0 108 -19l11 79h-124q-14 0 -23 9t-9 23q0 16 13 28.5
t30 12.5h124l6 44q2 16 14 27t30 11t27 -11t7 -27l-6 -44h47q13 0 22 -9.5t9 -23.5zM339 114l43 307q-47 21 -98 21q-54 0 -80.5 -31.5t-36.5 -102.5l-18 -127q-17 -119 80 -119q51 0 109 29q-1 9 1 23z" />
    <glyph glyph-name="Emacron" unicode="&#x112;" horiz-adv-x="474" 
d="M448 45q0 -18 -14.5 -31.5t-32.5 -13.5h-265q-28 0 -43.5 11t-12.5 36l86 611q2 18 18 32.5t36 14.5h271q15 0 24.5 -10t9.5 -25q0 -18 -13.5 -30.5t-31.5 -12.5h-238l-33 -234h219q14 0 24 -10t10 -25q0 -18 -13.5 -30.5t-31.5 -12.5h-219l-34 -237h248q15 0 25.5 -9.5
t10.5 -23.5zM516 841q0 -16 -12.5 -28t-29.5 -12h-249q-14 0 -23 9t-9 23q0 16 13 28.5t30 12.5h249q13 0 22 -9.5t9 -23.5z" />
    <glyph glyph-name="emacron" unicode="&#x113;" horiz-adv-x="435" 
d="M241 61q-53 0 -77.5 24.5t-18.5 67.5l8 59q51 -9 101 -9q98 0 145 46.5t47 128.5q0 64 -37 100t-109 36q-86 0 -140.5 -47t-65.5 -122l-27 -187q-10 -73 31 -119.5t124 -46.5q23 0 50.5 3.5t55.5 11t46.5 22t18.5 32.5q0 12 -8.5 21.5t-21.5 9.5q-8 0 -14 -3
q-65 -28 -108 -28zM368 369q0 -100 -102 -100q-53 0 -105 7l11 76q6 42 37 66.5t79 24.5q80 0 80 -74zM468 641q0 -16 -12.5 -28t-29.5 -12h-249q-14 0 -23 9t-9 23q0 16 13 28.5t30 12.5h249q13 0 22 -9.5t9 -23.5z" />
    <glyph glyph-name="Ebreve" unicode="&#x114;" horiz-adv-x="474" 
d="M448 45q0 -18 -14.5 -31.5t-32.5 -13.5h-265q-28 0 -43.5 11t-12.5 36l86 611q2 18 18 32.5t36 14.5h271q15 0 24.5 -10t9.5 -25q0 -18 -13.5 -30.5t-31.5 -12.5h-238l-33 -234h219q14 0 24 -10t10 -25q0 -18 -13.5 -30.5t-31.5 -12.5h-219l-34 -237h248q15 0 25.5 -9.5
t10.5 -23.5zM355 833q36 0 70 41q13 16 33 16q14 0 21 -9.5t0 -27.5q-15 -38 -55 -59.5t-78 -21.5t-72 21.5t-38 59.5q-2 18 8 27.5t24 9.5q18 0 27 -16q22 -41 60 -41z" />
    <glyph glyph-name="ebreve" unicode="&#x115;" horiz-adv-x="435" 
d="M241 61q-53 0 -77.5 24.5t-18.5 67.5l8 59q51 -9 101 -9q98 0 145 46.5t47 128.5q0 64 -37 100t-109 36q-86 0 -140.5 -47t-65.5 -122l-27 -187q-10 -73 31 -119.5t124 -46.5q23 0 50.5 3.5t55.5 11t46.5 22t18.5 32.5q0 12 -8.5 21.5t-21.5 9.5q-8 0 -14 -3
q-65 -28 -108 -28zM368 369q0 -100 -102 -100q-53 0 -105 7l11 76q6 42 37 66.5t79 24.5q80 0 80 -74zM306 633q36 0 70 41q13 16 33 16q14 0 21 -9.5t0 -27.5q-15 -38 -55 -59.5t-78 -21.5t-72 21.5t-38 59.5q-2 18 8 27.5t24 9.5q18 0 27 -16q22 -41 60 -41z" />
    <glyph glyph-name="Edotaccent" unicode="&#x116;" horiz-adv-x="474" 
d="M448 45q0 -18 -14.5 -31.5t-32.5 -13.5h-265q-28 0 -43.5 11t-12.5 36l86 611q2 18 18 32.5t36 14.5h271q15 0 24.5 -10t9.5 -25q0 -18 -13.5 -30.5t-31.5 -12.5h-238l-33 -234h219q14 0 24 -10t10 -25q0 -18 -13.5 -30.5t-31.5 -12.5h-219l-34 -237h248q15 0 25.5 -9.5
t10.5 -23.5zM402 844q0 -22 -16.5 -38t-38.5 -16q-18 0 -29 12.5t-11 30.5q0 21 16 37t37 16q19 0 30.5 -12t11.5 -30z" />
    <glyph glyph-name="edotaccent" unicode="&#x117;" horiz-adv-x="435" 
d="M241 61q-53 0 -77.5 24.5t-18.5 67.5l8 59q51 -9 101 -9q98 0 145 46.5t47 128.5q0 64 -37 100t-109 36q-86 0 -140.5 -47t-65.5 -122l-27 -187q-10 -73 31 -119.5t124 -46.5q23 0 50.5 3.5t55.5 11t46.5 22t18.5 32.5q0 12 -8.5 21.5t-21.5 9.5q-8 0 -14 -3
q-65 -28 -108 -28zM368 369q0 -100 -102 -100q-53 0 -105 7l11 76q6 42 37 66.5t79 24.5q80 0 80 -74zM354 644q0 -22 -16.5 -38t-38.5 -16q-18 0 -29 12.5t-11 30.5q0 21 16 37t37 16q19 0 30.5 -12t11.5 -30z" />
    <glyph glyph-name="Eogonek" unicode="&#x118;" horiz-adv-x="474" 
d="M462 -153q0 -42 -83 -42q-92 0 -92 76q0 55 54 119h-205q-28 0 -43.5 11t-12.5 36l86 611q2 18 18 32.5t36 14.5h271q15 0 24.5 -10t9.5 -25q0 -18 -13.5 -30.5t-31.5 -12.5h-238l-33 -234h219q14 0 24 -10t10 -25q0 -18 -13.5 -30.5t-31.5 -12.5h-219l-34 -237h248
q15 0 25.5 -9.5t10.5 -23.5q0 -18 -14.5 -31.5t-32.5 -13.5q-2 -4 -11 -18t-13 -21t-9.5 -18.5t-8 -20.5t-2.5 -18q0 -38 39 -38q14 0 26 2.5t16 2.5q10 0 17 -7t7 -17z" />
    <glyph glyph-name="eogonek" unicode="&#x119;" horiz-adv-x="435" 
d="M372 -153q0 -42 -82 -42q-92 0 -92 76q0 54 48 112q-5 0 -13 -0.5t-11 -0.5q-83 0 -124 46.5t-31 119.5l27 187q11 75 65.5 122t140.5 47q72 0 109 -36t37 -100q0 -82 -47 -128.5t-145 -46.5q-50 0 -101 9l-8 -59q-6 -43 18.5 -67.5t77.5 -24.5q43 0 108 28q6 3 14 3
q13 0 21.5 -9.5t8.5 -21.5q0 -10 -7 -18.5t-14.5 -13t-25 -12.5t-26.5 -13q-21 -12 -34 -36t-15.5 -39t-2.5 -25q0 -38 38 -38q14 0 26.5 2.5t16.5 2.5q10 0 16.5 -7t6.5 -17zM368 369q0 74 -80 74q-48 0 -79 -24.5t-37 -66.5l-11 -76q52 -7 105 -7q102 0 102 100z" />
    <glyph glyph-name="Ecaron" unicode="&#x11a;" horiz-adv-x="474" 
d="M448 45q0 -18 -14.5 -31.5t-32.5 -13.5h-265q-28 0 -43.5 11t-12.5 36l86 611q2 18 18 32.5t36 14.5h271q15 0 24.5 -10t9.5 -25q0 -18 -13.5 -30.5t-31.5 -12.5h-238l-33 -234h219q14 0 24 -10t10 -25q0 -18 -13.5 -30.5t-31.5 -12.5h-219l-34 -237h248q15 0 25.5 -9.5
t10.5 -23.5zM374 762q-12 0 -23 9l-77 73q-16 14 -16 30q0 14 11 23.5t24 9.5q8 0 17 -7l74 -67l93 67q11 7 18 7q11 0 19.5 -7.5t8.5 -18.5q0 -19 -25 -37l-99 -73q-13 -9 -25 -9z" />
    <glyph glyph-name="ecaron" unicode="&#x11b;" horiz-adv-x="435" 
d="M241 61q-53 0 -77.5 24.5t-18.5 67.5l8 59q51 -9 101 -9q98 0 145 46.5t47 128.5q0 64 -37 100t-109 36q-86 0 -140.5 -47t-65.5 -122l-27 -187q-10 -73 31 -119.5t124 -46.5q23 0 50.5 3.5t55.5 11t46.5 22t18.5 32.5q0 12 -8.5 21.5t-21.5 9.5q-8 0 -14 -3
q-65 -28 -108 -28zM368 369q0 -100 -102 -100q-53 0 -105 7l11 76q6 42 37 66.5t79 24.5q80 0 80 -74zM296 562q-12 0 -23 9l-77 73q-16 14 -16 30q0 14 11 23.5t24 9.5q8 0 17 -7l74 -67l93 67q11 7 18 7q11 0 19.5 -7.5t8.5 -18.5q0 -19 -25 -37l-99 -73q-13 -9 -25 -9z
" />
    <glyph glyph-name="Gcircumflex" unicode="&#x11c;" horiz-adv-x="520" 
d="M190 460l-30 -214q-13 -89 15 -135.5t109 -46.5q65 0 118 37l30 215h-97q-14 0 -23.5 10t-9.5 24q0 17 13.5 29.5t30.5 12.5h119q25 0 39.5 -11.5t11.5 -34.5l-34 -239q-8 -56 -72.5 -86t-140.5 -30q-112 0 -159 68t-30 187l30 214q17 119 83 187t178 68
q66 0 115.5 -24.5t49.5 -57.5q0 -16 -12 -27.5t-29 -11.5q-12 0 -34 17q-42 31 -96 31q-81 0 -121.5 -46.5t-53.5 -135.5zM378 836l-83 -61q-8 -6 -20 -6q-9 0 -15.5 7t-6.5 16q0 15 23 33l88 67q12 8 23 8t21 -8l69 -67q14 -14 14 -27q0 -11 -9 -20t-20 -9q-12 0 -18 6z
" />
    <glyph glyph-name="gcircumflex" unicode="&#x11d;" horiz-adv-x="485" 
d="M348 107l35 246q6 42 -19 65.5t-74 23.5q-106 0 -120 -109l-22 -158q-16 -114 82 -114q69 0 118 46zM461 353l-56 -393q-11 -82 -63 -133t-141 -51q-46 0 -88.5 14t-42.5 43q0 15 11.5 26.5t27.5 11.5q7 0 15 -3q44 -23 78 -23q109 0 125 115l10 70q-63 -37 -133 -37
q-160 0 -134 182l22 158q11 80 65.5 130.5t142.5 50.5q85 0 128 -45.5t33 -115.5zM316 636l-83 -61q-8 -6 -20 -6q-9 0 -15.5 7t-6.5 16q0 15 23 33l88 67q12 8 23 8t21 -8l69 -67q14 -14 14 -27q0 -11 -9 -20t-20 -9q-12 0 -18 6z" />
    <glyph glyph-name="Gbreve" unicode="&#x11e;" horiz-adv-x="520" 
d="M190 460l-30 -214q-13 -89 15 -135.5t109 -46.5q65 0 118 37l30 215h-97q-14 0 -23.5 10t-9.5 24q0 17 13.5 29.5t30.5 12.5h119q25 0 39.5 -11.5t11.5 -34.5l-34 -239q-8 -56 -72.5 -86t-140.5 -30q-112 0 -159 68t-30 187l30 214q17 119 83 187t178 68
q66 0 115.5 -24.5t49.5 -57.5q0 -16 -12 -27.5t-29 -11.5q-12 0 -34 17q-42 31 -96 31q-81 0 -121.5 -46.5t-53.5 -135.5zM378 833q36 0 70 41q13 16 33 16q14 0 21 -9.5t0 -27.5q-15 -38 -55 -59.5t-78 -21.5t-72 21.5t-38 59.5q-2 18 8 27.5t24 9.5q18 0 27 -16
q22 -41 60 -41z" />
    <glyph glyph-name="gbreve" unicode="&#x11f;" horiz-adv-x="485" 
d="M348 107l35 246q6 42 -19 65.5t-74 23.5q-106 0 -120 -109l-22 -158q-16 -114 82 -114q69 0 118 46zM461 353l-56 -393q-11 -82 -63 -133t-141 -51q-46 0 -88.5 14t-42.5 43q0 15 11.5 26.5t27.5 11.5q7 0 15 -3q44 -23 78 -23q109 0 125 115l10 70q-63 -37 -133 -37
q-160 0 -134 182l22 158q11 80 65.5 130.5t142.5 50.5q85 0 128 -45.5t33 -115.5zM317 633q36 0 70 41q13 16 33 16q14 0 21 -9.5t0 -27.5q-15 -38 -55 -59.5t-78 -21.5t-72 21.5t-38 59.5q-2 18 8 27.5t24 9.5q18 0 27 -16q22 -41 60 -41z" />
    <glyph glyph-name="Gdotaccent" unicode="&#x120;" horiz-adv-x="520" 
d="M190 460l-30 -214q-13 -89 15 -135.5t109 -46.5q65 0 118 37l30 215h-97q-14 0 -23.5 10t-9.5 24q0 17 13.5 29.5t30.5 12.5h119q25 0 39.5 -11.5t11.5 -34.5l-34 -239q-8 -56 -72.5 -86t-140.5 -30q-112 0 -159 68t-30 187l30 214q17 119 83 187t178 68
q66 0 115.5 -24.5t49.5 -57.5q0 -16 -12 -27.5t-29 -11.5q-12 0 -34 17q-42 31 -96 31q-81 0 -121.5 -46.5t-53.5 -135.5zM425 844q0 -22 -16.5 -38t-38.5 -16q-18 0 -29 12.5t-11 30.5q0 21 16 37t37 16q19 0 30.5 -12t11.5 -30z" />
    <glyph glyph-name="gdotaccent" unicode="&#x121;" horiz-adv-x="485" 
d="M348 107l35 246q6 42 -19 65.5t-74 23.5q-106 0 -120 -109l-22 -158q-16 -114 82 -114q69 0 118 46zM461 353l-56 -393q-11 -82 -63 -133t-141 -51q-46 0 -88.5 14t-42.5 43q0 15 11.5 26.5t27.5 11.5q7 0 15 -3q44 -23 78 -23q109 0 125 115l10 70q-63 -37 -133 -37
q-160 0 -134 182l22 158q11 80 65.5 130.5t142.5 50.5q85 0 128 -45.5t33 -115.5zM367 644q0 -22 -16.5 -38t-38.5 -16q-18 0 -29 12.5t-11 30.5q0 21 16 37t37 16q19 0 30.5 -12t11.5 -30z" />
    <glyph glyph-name="uni0122" unicode="&#x122;" horiz-adv-x="520" 
d="M190 460l-30 -214q-13 -89 15 -135.5t109 -46.5q65 0 118 37l30 215h-97q-14 0 -23.5 10t-9.5 24q0 17 13.5 29.5t30.5 12.5h119q25 0 39.5 -11.5t11.5 -34.5l-34 -239q-8 -56 -72.5 -86t-140.5 -30q-112 0 -159 68t-30 187l30 214q17 119 83 187t178 68
q66 0 115.5 -24.5t49.5 -57.5q0 -16 -12 -27.5t-29 -11.5q-12 0 -34 17q-42 31 -96 31q-81 0 -121.5 -46.5t-53.5 -135.5zM320 -98q0 -38 -36 -89t-59 -51q-17 0 -17 15q0 13 19.5 32.5t26.5 31.5q-18 1 -30 15t-12 33q0 25 18.5 42.5t43.5 17.5q20 0 33 -13.5t13 -33.5z
" />
    <glyph glyph-name="uni0123" unicode="&#x123;" horiz-adv-x="485" 
d="M264 631q0 38 36 89t59 51q17 0 17 -15q0 -13 -19.5 -32.5t-26.5 -31.5q18 -1 30 -15t12 -33q0 -25 -18.5 -42.5t-43.5 -17.5q-20 0 -33 13.5t-13 33.5zM348 107l35 246q6 42 -19 65.5t-74 23.5q-106 0 -120 -109l-22 -158q-16 -114 82 -114q69 0 118 46zM461 353
l-56 -393q-11 -82 -63 -133t-141 -51q-46 0 -88.5 14t-42.5 43q0 15 11.5 26.5t27.5 11.5q7 0 15 -3q44 -23 78 -23q109 0 125 115l10 70q-63 -37 -133 -37q-160 0 -134 182l22 158q11 80 65.5 130.5t142.5 50.5q85 0 128 -45.5t33 -115.5z" />
    <glyph glyph-name="Hcircumflex" unicode="&#x124;" horiz-adv-x="580" 
d="M510 31q-2 -17 -16 -29t-30 -12t-26 12.5t-8 28.5l40 283h-273l-40 -283q-2 -17 -16 -29t-30 -12t-26 12t-8 29l91 644q2 16 15.5 28t29.5 12t26.5 -12t8.5 -28l-40 -283h273l40 283q2 16 15.5 28t29.5 12t26.5 -12t8.5 -28zM408 836l-83 -61q-8 -6 -20 -6q-9 0 -15.5 7
t-6.5 16q0 15 23 33l88 67q12 8 23 8t21 -8l69 -67q14 -14 14 -27q0 -11 -9 -20t-20 -9q-12 0 -18 6z" />
    <glyph glyph-name="Itilde" unicode="&#x128;" horiz-adv-x="227" 
d="M77 30l91 645q2 16 15.5 28t29.5 12t26.5 -12t8.5 -28l-91 -645q-2 -16 -16 -28t-30 -12t-26 12t-8 28zM372 854q0 -26 -29.5 -44.5t-61.5 -20.5q-24 0 -54 15.5t-42 16.5q-20 0 -39.5 -13.5t-28.5 -13.5q-11 0 -18.5 7.5t-7.5 19.5q4 27 31 46t60 19q23 0 52.5 -15.5
t43.5 -16.5q21 0 39.5 13.5t28.5 14.5q11 0 18.5 -8t7.5 -20z" />
    <glyph glyph-name="itilde" unicode="&#x129;" horiz-adv-x="245" 
d="M97 94l53 378q2 16 15 27.5t29 11.5t26 -11.5t8 -27.5l-53 -378q-5 -33 7 -47q5 -8 5 -16q0 -16 -12.5 -27.5t-29.5 -11.5q-63 0 -48 102zM353 654q0 -26 -29.5 -44.5t-61.5 -20.5q-24 0 -54 15.5t-42 16.5q-20 0 -39.5 -13.5t-28.5 -13.5q-11 0 -18.5 7.5t-7.5 19.5
q4 27 31 46t60 19q23 0 52.5 -15.5t43.5 -16.5q21 0 39.5 13.5t28.5 14.5q11 0 18.5 -8t7.5 -20z" />
    <glyph glyph-name="Imacron" unicode="&#x12a;" horiz-adv-x="227" 
d="M77 30l91 645q2 16 15.5 28t29.5 12t26.5 -12t8.5 -28l-91 -645q-2 -16 -16 -28t-30 -12t-26 12t-8 28zM393 841q0 -16 -12.5 -28t-29.5 -12h-249q-14 0 -23 9t-9 23q0 16 13 28.5t30 12.5h249q13 0 22 -9.5t9 -23.5z" />
    <glyph glyph-name="imacron" unicode="&#x12b;" horiz-adv-x="245" 
d="M97 94l53 378q2 16 15 27.5t29 11.5t26 -11.5t8 -27.5l-53 -378q-5 -33 7 -47q5 -8 5 -16q0 -16 -12.5 -27.5t-29.5 -11.5q-63 0 -48 102zM374 641q0 -16 -12.5 -28t-29.5 -12h-249q-14 0 -23 9t-9 23q0 16 13 28.5t30 12.5h249q13 0 22 -9.5t9 -23.5z" />
    <glyph glyph-name="Ibreve" unicode="&#x12c;" horiz-adv-x="227" 
d="M77 30l91 645q2 16 15.5 28t29.5 12t26.5 -12t8.5 -28l-91 -645q-2 -16 -16 -28t-30 -12t-26 12t-8 28zM232 833q36 0 70 41q13 16 33 16q14 0 21 -9.5t0 -27.5q-15 -38 -55 -59.5t-78 -21.5t-72 21.5t-38 59.5q-2 18 8 27.5t24 9.5q18 0 27 -16q22 -41 60 -41z" />
    <glyph glyph-name="ibreve" unicode="&#x12d;" horiz-adv-x="245" 
d="M97 94l53 378q2 16 15 27.5t29 11.5t26 -11.5t8 -27.5l-53 -378q-5 -33 7 -47q5 -8 5 -16q0 -16 -12.5 -27.5t-29.5 -11.5q-63 0 -48 102zM212 633q36 0 70 41q13 16 33 16q14 0 21 -9.5t0 -27.5q-15 -38 -55 -59.5t-78 -21.5t-72 21.5t-38 59.5q-2 18 8 27.5t24 9.5
q18 0 27 -16q22 -41 60 -41z" />
    <glyph glyph-name="Iogonek" unicode="&#x12e;" horiz-adv-x="227" 
d="M199 -153q0 -42 -82 -42q-92 0 -92 76q0 59 58 122q-8 11 -6 27l91 645q2 16 16 28t30 12t26 -12t8 -28l-91 -645q-2 -12 -18 -30q-18 -21 -31 -48.5t-13 -47.5q0 -38 38 -38q14 0 26.5 2.5t16.5 2.5q10 0 16.5 -7t6.5 -17z" />
    <glyph glyph-name="iogonek" unicode="&#x12f;" horiz-adv-x="245" 
d="M206 -153q0 -42 -82 -42q-92 0 -92 76q0 60 61 124q-8 11 -6 26l62 441q2 16 15.5 27.5t29.5 11.5t25.5 -11.5t7.5 -27.5l-62 -441q-2 -12 -19 -31q-19 -19 -31.5 -47t-12.5 -49q0 -38 38 -38q14 0 26.5 2.5t16.5 2.5q10 0 16.5 -7t6.5 -17zM264 674q0 -22 -16.5 -38
t-38.5 -16q-18 0 -30 12.5t-12 30.5q0 22 16.5 37.5t39.5 15.5q18 0 29.5 -12t11.5 -30z" />
    <glyph glyph-name="Idotaccent" unicode="&#x130;" horiz-adv-x="227" 
d="M77 30l91 645q2 16 15.5 28t29.5 12t26.5 -12t8.5 -28l-91 -645q-2 -16 -16 -28t-30 -12t-26 12t-8 28zM279 844q0 -22 -16.5 -38t-38.5 -16q-18 0 -29 12.5t-11 30.5q0 21 16 37t37 16q19 0 30.5 -12t11.5 -30z" />
    <glyph glyph-name="dotlessi" unicode="&#x131;" horiz-adv-x="245" 
d="M97 94l53 378q2 16 15 27.5t29 11.5t26 -11.5t8 -27.5l-53 -378q-5 -33 7 -47q5 -8 5 -16q0 -16 -12.5 -27.5t-29.5 -11.5q-63 0 -48 102z" />
    <glyph glyph-name="Jcircumflex" unicode="&#x134;" horiz-adv-x="385" 
d="M406 675l-63 -450q-16 -116 -70 -175.5t-165 -59.5q-79 0 -79 40q0 19 13.5 31.5t27.5 12.5q3 0 22.5 -3.5t37.5 -3.5q65 0 93 39t40 119l63 450q2 17 15.5 28.5t30.5 11.5q16 0 26 -12t8 -28zM388 836l-83 -61q-8 -6 -20 -6q-9 0 -15.5 7t-6.5 16q0 15 23 33l88 67
q12 8 23 8t21 -8l69 -67q14 -14 14 -27q0 -11 -9 -20t-20 -9q-12 0 -18 6z" />
    <glyph glyph-name="jcircumflex" unicode="&#x135;" horiz-adv-x="245" 
d="M227 472l-68 -487q-11 -79 -54.5 -128t-112.5 -59q-8 -1 -19 -1q-27 0 -30 26q-2 18 10 29t26 14q44 9 69 35.5t32 79.5l69 491q2 16 15.5 27.5t29.5 11.5t25.5 -11.5t7.5 -27.5zM212 636l-83 -61q-8 -6 -20 -6q-9 0 -15.5 7t-6.5 16q0 15 23 33l88 67q12 8 23 8t21 -8
l69 -67q14 -14 14 -27q0 -11 -9 -20t-20 -9q-12 0 -18 6z" />
    <glyph glyph-name="uni0136" unicode="&#x136;" horiz-adv-x="498" 
d="M421 9l-173 315l-58 -61l-33 -232q-2 -17 -16 -29t-30 -12t-26 12t-8 29l91 644q2 16 15.5 28t29.5 12t26.5 -12t8.5 -28l-41 -291l297 312q15 19 38 19q14 0 24 -10.5t6 -29.5q-2 -12 -13 -25l-252 -264l186 -334q3 -8 3 -14q0 -17 -10.5 -32.5t-33.5 -15.5
q-21 0 -31 19zM327 -98q0 -38 -36 -89t-59 -51q-17 0 -17 15q0 13 19.5 32.5t26.5 31.5q-18 1 -30 15t-12 33q0 25 18.5 42.5t43.5 17.5q20 0 33 -13.5t13 -33.5z" />
    <glyph glyph-name="uni0137" unicode="&#x137;" horiz-adv-x="439" 
d="M248 686l-52 -373l207 188q9 9 25 9q15 0 24 -9t9 -23q0 -17 -14 -30l-169 -150l134 -250q5 -10 3 -23q-7 -33 -41 -33q-20 0 -30 19l-121 236l-42 -37l-25 -179q-2 -17 -15 -28t-29 -11q-17 0 -26.5 11.5t-7.5 27.5l92 655q2 16 15 27.5t30 11.5q16 0 25.5 -11t7.5 -28z
M286 -98q0 -38 -36 -89t-59 -51q-17 0 -17 15q0 13 19.5 32.5t26.5 31.5q-18 1 -30 15t-12 33q0 25 18.5 42.5t43.5 17.5q20 0 33 -13.5t13 -33.5z" />
    <glyph glyph-name="Lacute" unicode="&#x139;" horiz-adv-x="448" 
d="M444 43q0 -18 -13 -30.5t-31 -12.5h-282q-18 0 -29.5 13t-9.5 32l89 630q2 16 16 28t30 12t26 -12t8 -28l-84 -598h247q14 0 23.5 -10t9.5 -24zM210 824l89 81q3 2 8 7t7.5 7t6.5 4.5t8.5 3.5t9.5 1q10 0 18.5 -8.5t8.5 -20.5q0 -14 -8 -21l-93 -86q-19 -18 -35 -18
q-12 0 -20 8.5t-8 21.5q0 12 8 20z" />
    <glyph glyph-name="lacute" unicode="&#x13a;" horiz-adv-x="228" 
d="M88 94l83 592q2 16 15 27.5t29 11.5q17 0 26.5 -11.5t7.5 -27.5l-83 -592q-5 -33 7 -47q5 -8 5 -16q0 -16 -12.5 -27.5t-29.5 -11.5q-63 0 -48 102zM200 810l89 81q3 2 8 7t7.5 7t6.5 4.5t8.5 3.5t9.5 1q10 0 18.5 -8.5t8.5 -20.5q0 -14 -8 -21l-93 -86q-19 -18 -35 -18
q-12 0 -20 8.5t-8 21.5q0 12 8 20z" />
    <glyph glyph-name="uni013B" unicode="&#x13b;" horiz-adv-x="448" 
d="M444 43q0 -18 -13 -30.5t-31 -12.5h-282q-18 0 -29.5 13t-9.5 32l89 630q2 16 16 28t30 12t26 -12t8 -28l-84 -598h247q14 0 23.5 -10t9.5 -24zM309 -98q0 -38 -36 -89t-59 -51q-17 0 -17 15q0 13 19.5 32.5t26.5 31.5q-18 1 -30 15t-12 33q0 25 18.5 42.5t43.5 17.5
q20 0 33 -13.5t13 -33.5z" />
    <glyph glyph-name="uni013C" unicode="&#x13c;" horiz-adv-x="228" 
d="M88 94l83 592q2 16 15 27.5t29 11.5q17 0 26.5 -11.5t7.5 -27.5l-83 -592q-5 -33 7 -47q5 -8 5 -16q0 -16 -12.5 -27.5t-29.5 -11.5q-63 0 -48 102zM154 -98q0 -38 -36 -89t-59 -51q-17 0 -17 15q0 13 19.5 32.5t26.5 31.5q-18 1 -30 15t-12 33q0 25 18.5 42.5t43.5 17.5
q20 0 33 -13.5t13 -33.5z" />
    <glyph glyph-name="Lcaron" unicode="&#x13d;" horiz-adv-x="448" 
d="M444 43q0 -18 -13 -30.5t-31 -12.5h-282q-18 0 -29.5 13t-9.5 32l89 630q2 16 16 28t30 12t26 -12t8 -28l-84 -598h247q14 0 23.5 -10t9.5 -24zM492 678q0 -44 -38 -107t-61 -63q-17 0 -17 14q0 18 21 47t29 48q-19 2 -30.5 15.5t-11.5 32.5q0 25 18.5 42.5t43.5 17.5
q20 0 33 -13.5t13 -33.5z" />
    <glyph glyph-name="lcaron" unicode="&#x13e;" horiz-adv-x="359" 
d="M88 94l83 592q2 16 15 27.5t29 11.5q17 0 26.5 -11.5t7.5 -27.5l-83 -592q-5 -33 7 -47q5 -8 5 -16q0 -16 -12.5 -27.5t-29.5 -11.5q-63 0 -48 102zM429 678q0 -44 -38 -107t-61 -63q-17 0 -17 14q0 18 21 47t29 48q-19 2 -30.5 15.5t-11.5 32.5q0 25 18.5 42.5
t43.5 17.5q20 0 33 -13.5t13 -33.5z" />
    <glyph glyph-name="Lslash" unicode="&#x141;" horiz-adv-x="494" 
d="M490 43q0 -18 -13 -30.5t-31 -12.5h-282q-18 0 -29.5 13t-8.5 32l34 247l-43 -26q-18 -11 -25 -11q-36 0 -36 33q0 21 22 35l95 57l41 295q2 16 16 28t30 12t26 -12t8 -28l-34 -243l59 36q17 10 30 10q25 0 30 -25q0 -1 0.5 -4t0.5 -5q0 -19 -21 -32l-111 -67l-38 -268
h247q14 0 23.5 -10t9.5 -24z" />
    <glyph glyph-name="lslash" unicode="&#x142;" horiz-adv-x="337" 
d="M133 94l28 199l-44 -27q-18 -11 -25 -11q-36 0 -36 33q0 21 22 35l96 57l43 306q2 16 15 27.5t29 11.5q17 0 26.5 -11.5t7.5 -27.5l-36 -254l60 36q17 10 30 10q25 0 30 -25q0 -1 0.5 -4t0.5 -5q0 -19 -21 -32l-113 -68l-35 -250q-4 -32 8 -47q4 -6 4 -16
q0 -16 -12 -27.5t-29 -11.5q-64 0 -49 102z" />
    <glyph glyph-name="Nacute" unicode="&#x143;" horiz-adv-x="600" 
d="M480 -10q-27 0 -37 23l-214 533l-72 -515q-2 -16 -16 -28.5t-31 -12.5q-16 0 -25.5 12t-7.5 29l90 640q2 19 16 31.5t33 12.5q29 0 39 -24l213 -532l72 515q2 16 16 28.5t31 12.5q16 0 25.5 -12t7.5 -29l-89 -640q-3 -18 -17.5 -31t-33.5 -13zM386 824l89 81q3 2 8 7
t7.5 7t6.5 4.5t8.5 3.5t9.5 1q10 0 18.5 -8.5t8.5 -20.5q0 -14 -8 -21l-93 -86q-19 -18 -35 -18q-12 0 -20 8.5t-8 21.5q0 12 8 20z" />
    <glyph glyph-name="nacute" unicode="&#x144;" horiz-adv-x="509" 
d="M368 94l32 229q8 57 -11 88t-64 31q-57 0 -117 -42q0 -21 -1 -29l-48 -340q-2 -17 -13.5 -27.5t-30.5 -10.5t-27.5 10.5t-6.5 27.5l48 340q3 20 3 33t-1 16.5t-5 11.5t-5 9q-5 15 -5 17q0 16 12.5 27t29.5 11q24 0 38 -29q71 45 150 45q78 0 111 -51t21 -138l-32 -229
q-5 -33 7 -47q5 -7 5 -16q0 -16 -12.5 -27.5t-29.5 -11.5q-63 0 -48 102zM272 624l89 81q3 2 8 7t7.5 7t6.5 4.5t8.5 3.5t9.5 1q10 0 18.5 -8.5t8.5 -20.5q0 -14 -8 -21l-93 -86q-19 -18 -35 -18q-12 0 -20 8.5t-8 21.5q0 12 8 20z" />
    <glyph glyph-name="uni0145" unicode="&#x145;" horiz-adv-x="600" 
d="M480 -10q-27 0 -37 23l-214 533l-72 -515q-2 -16 -16 -28.5t-31 -12.5q-16 0 -25.5 12t-7.5 29l90 640q2 19 16 31.5t33 12.5q29 0 39 -24l213 -532l72 515q2 16 16 28.5t31 12.5q16 0 25.5 -12t7.5 -29l-89 -640q-3 -18 -17.5 -31t-33.5 -13zM340 -98q0 -38 -36 -89
t-59 -51q-17 0 -17 15q0 13 19.5 32.5t26.5 31.5q-18 1 -30 15t-12 33q0 25 18.5 42.5t43.5 17.5q20 0 33 -13.5t13 -33.5z" />
    <glyph glyph-name="uni0146" unicode="&#x146;" horiz-adv-x="509" 
d="M368 94l32 229q8 57 -11 88t-64 31q-57 0 -117 -42q0 -21 -1 -29l-48 -340q-2 -17 -13.5 -27.5t-30.5 -10.5t-27.5 10.5t-6.5 27.5l48 340q3 20 3 33t-1 16.5t-5 11.5t-5 9q-5 15 -5 17q0 16 12.5 27t29.5 11q24 0 38 -29q71 45 150 45q78 0 111 -51t21 -138l-32 -229
q-5 -33 7 -47q5 -7 5 -16q0 -16 -12.5 -27.5t-29.5 -11.5q-63 0 -48 102zM294 -98q0 -38 -36 -89t-59 -51q-17 0 -17 15q0 13 19.5 32.5t26.5 31.5q-18 1 -30 15t-12 33q0 25 18.5 42.5t43.5 17.5q20 0 33 -13.5t13 -33.5z" />
    <glyph glyph-name="Ncaron" unicode="&#x147;" horiz-adv-x="600" 
d="M480 -10q-27 0 -37 23l-214 533l-72 -515q-2 -16 -16 -28.5t-31 -12.5q-16 0 -25.5 12t-7.5 29l90 640q2 19 16 31.5t33 12.5q29 0 39 -24l213 -532l72 515q2 16 16 28.5t31 12.5q16 0 25.5 -12t7.5 -29l-89 -640q-3 -18 -17.5 -31t-33.5 -13zM407 762q-12 0 -23 9
l-77 73q-16 14 -16 30q0 14 11 23.5t24 9.5q8 0 17 -7l74 -67l93 67q11 7 18 7q11 0 19.5 -7.5t8.5 -18.5q0 -19 -25 -37l-99 -73q-13 -9 -25 -9z" />
    <glyph glyph-name="ncaron" unicode="&#x148;" horiz-adv-x="509" 
d="M368 94l32 229q8 57 -11 88t-64 31q-57 0 -117 -42q0 -21 -1 -29l-48 -340q-2 -17 -13.5 -27.5t-30.5 -10.5t-27.5 10.5t-6.5 27.5l48 340q3 20 3 33t-1 16.5t-5 11.5t-5 9q-5 15 -5 17q0 16 12.5 27t29.5 11q24 0 38 -29q71 45 150 45q78 0 111 -51t21 -138l-32 -229
q-5 -33 7 -47q5 -7 5 -16q0 -16 -12.5 -27.5t-29.5 -11.5q-63 0 -48 102zM333 562q-12 0 -23 9l-77 73q-16 14 -16 30q0 14 11 23.5t24 9.5q8 0 17 -7l74 -67l93 67q11 7 18 7q11 0 19.5 -7.5t8.5 -18.5q0 -19 -25 -37l-99 -73q-13 -9 -25 -9z" />
    <glyph glyph-name="Omacron" unicode="&#x14c;" horiz-adv-x="551" 
d="M274 -10q-110 0 -160 72t-34 184l30 214q16 113 82.5 184t183.5 71t163.5 -71t30.5 -184l-30 -214q-16 -112 -86 -184t-180 -72zM365 637q-150 0 -175 -177l-30 -214q-12 -82 19 -130t106 -48t119 48t56 130l30 214q25 177 -125 177zM554 841q0 -16 -12.5 -28t-29.5 -12
h-249q-14 0 -23 9t-9 23q0 16 13 28.5t30 12.5h249q13 0 22 -9.5t9 -23.5z" />
    <glyph glyph-name="omacron" unicode="&#x14d;" horiz-adv-x="464" 
d="M231 -8q-89 0 -131 50t-31 128l24 167q11 78 67 128t145 50t131 -50t31 -128l-24 -167q-11 -78 -67 -128t-145 -50zM241 64q53 0 85 28t39 78l24 168q7 49 -17.5 77t-77.5 28t-84.5 -27.5t-38.5 -77.5l-24 -168q-7 -50 17 -78t77 -28zM483 641q0 -16 -12.5 -28t-29.5 -12
h-249q-14 0 -23 9t-9 23q0 16 13 28.5t30 12.5h249q13 0 22 -9.5t9 -23.5z" />
    <glyph glyph-name="Obreve" unicode="&#x14e;" horiz-adv-x="551" 
d="M274 -10q-110 0 -160 72t-34 184l30 214q16 113 82.5 184t183.5 71t163.5 -71t30.5 -184l-30 -214q-16 -112 -86 -184t-180 -72zM365 637q-150 0 -175 -177l-30 -214q-12 -82 19 -130t106 -48t119 48t56 130l30 214q25 177 -125 177zM393 833q36 0 70 41q13 16 33 16
q14 0 21 -9.5t0 -27.5q-15 -38 -55 -59.5t-78 -21.5t-72 21.5t-38 59.5q-2 18 8 27.5t24 9.5q18 0 27 -16q22 -41 60 -41z" />
    <glyph glyph-name="obreve" unicode="&#x14f;" horiz-adv-x="464" 
d="M231 -8q-89 0 -131 50t-31 128l24 167q11 78 67 128t145 50t131 -50t31 -128l-24 -167q-11 -78 -67 -128t-145 -50zM241 64q53 0 85 28t39 78l24 168q7 49 -17.5 77t-77.5 28t-84.5 -27.5t-38.5 -77.5l-24 -168q-7 -50 17 -78t77 -28zM321 633q36 0 70 41q13 16 33 16
q14 0 21 -9.5t0 -27.5q-15 -38 -55 -59.5t-78 -21.5t-72 21.5t-38 59.5q-2 18 8 27.5t24 9.5q18 0 27 -16q22 -41 60 -41z" />
    <glyph glyph-name="Ohungarumlaut" unicode="&#x150;" horiz-adv-x="551" 
d="M274 -10q-110 0 -160 72t-34 184l30 214q16 113 82.5 184t183.5 71t163.5 -71t30.5 -184l-30 -214q-16 -112 -86 -184t-180 -72zM365 637q-150 0 -175 -177l-30 -214q-12 -82 19 -130t106 -48t119 48t56 130l30 214q25 177 -125 177zM285 812l76 94q3 3 7 8.5t7 8l7 6
t8.5 5t10.5 1.5q12 0 20.5 -9.5t8.5 -21.5q0 -6 -4 -14l-79 -99q-22 -24 -36 -24q-13 0 -21.5 8t-8.5 21q0 11 4 16zM420 812l77 94q1 2 4.5 6t5 6t4.5 5.5t5 5t5.5 3.5t6.5 2.5t7 0.5q11 0 21 -9.5t10 -20.5q0 -8 -5 -15l-79 -99q-1 -2 -4.5 -5t-4.5 -4.5t-3.5 -4t-4 -3.5
t-4 -3t-5 -2.5l-5 -1t-5.5 -0.5q-13 0 -21.5 8t-8.5 21q0 11 4 16z" />
    <glyph glyph-name="ohungarumlaut" unicode="&#x151;" horiz-adv-x="464" 
d="M231 -8q-89 0 -131 50t-31 128l24 167q11 78 67 128t145 50t131 -50t31 -128l-24 -167q-11 -78 -67 -128t-145 -50zM241 64q53 0 85 28t39 78l24 168q7 49 -17.5 77t-77.5 28t-84.5 -27.5t-38.5 -77.5l-24 -168q-7 -50 17 -78t77 -28zM221 612l76 94q3 3 7 8.5t7 8l7 6
t8.5 5t10.5 1.5q12 0 20.5 -9.5t8.5 -21.5q0 -6 -4 -14l-79 -99q-22 -24 -36 -24q-13 0 -21.5 8t-8.5 21q0 11 4 16zM356 612l77 94q1 2 4.5 6t5 6t4.5 5.5t5 5t5.5 3.5t6.5 2.5t7 0.5q11 0 21 -9.5t10 -20.5q0 -8 -5 -15l-79 -99q-1 -2 -4.5 -5t-4.5 -4.5t-3.5 -4t-4 -3.5
t-4 -3t-5 -2.5l-5 -1t-5.5 -0.5q-13 0 -21.5 8t-8.5 21q0 11 4 16z" />
    <glyph glyph-name="OE" unicode="&#x152;" horiz-adv-x="756" 
d="M729 45q0 -18 -14 -31.5t-32 -13.5h-235q-28 0 -44 10.5t-13 34.5q-60 -55 -138 -55q-100 0 -145.5 67t-31.5 169l36 254q15 105 75.5 170t167.5 65q81 0 123 -50q6 16 20.5 28t32.5 12h241q15 0 24.5 -10t9.5 -25q0 -18 -13.5 -30.5t-31.5 -12.5h-208l-33 -234h189
q14 0 24 -10t10 -25q0 -18 -13.5 -30.5t-31.5 -12.5h-189l-34 -237h218q15 0 25.5 -9.5t10.5 -23.5zM344 637q-130 0 -152 -157l-36 -254q-10 -73 16.5 -115.5t91.5 -42.5t103.5 42.5t48.5 115.5l36 254q22 157 -108 157z" />
    <glyph glyph-name="oe" unicode="&#x153;" horiz-adv-x="731" 
d="M227 -8q-85 0 -127 50.5t-31 127.5l23 167q11 77 67 127.5t141 50.5q110 0 139 -85q53 84 161 84q68 0 105 -37t37 -100q0 -82 -47 -128t-145 -46q-50 0 -101 9l-8 -59q-6 -43 18.5 -67.5t77.5 -24.5q43 0 108 28q6 3 14 3q13 0 21.5 -9.5t8.5 -21.5q0 -34 -57 -51.5
t-111 -17.5q-104 0 -132 83q-54 -83 -162 -83zM241 64q53 0 85 28t39 78l24 168q7 49 -17.5 77t-77.5 28t-85 -27.5t-39 -77.5l-23 -168q-7 -50 17 -78t77 -28zM664 369q0 74 -80 74q-48 0 -79 -24.5t-37 -66.5l-11 -76q65 -7 105 -7q102 0 102 100z" />
    <glyph glyph-name="Racute" unicode="&#x154;" horiz-adv-x="575" 
d="M584 535q0 -89 -49.5 -146t-134.5 -74l123 -263q2 -4 2 -17q0 -18 -17 -31t-32 -13q-22 0 -30 19l-135 300h-115l-39 -278q-2 -17 -16.5 -29.5t-30.5 -12.5t-25.5 12.5t-7.5 29.5l88 625q3 20 18.5 34t34.5 14h174q101 0 146.5 -48t45.5 -122zM503 525q0 102 -126 102
h-136l-34 -240h142q74 0 114 35.5t40 102.5zM333 824l89 81q3 2 8 7t7.5 7t6.5 4.5t8.5 3.5t9.5 1q10 0 18.5 -8.5t8.5 -20.5q0 -14 -8 -21l-93 -86q-19 -18 -35 -18q-12 0 -20 8.5t-8 21.5q0 12 8 20z" />
    <glyph glyph-name="racute" unicode="&#x155;" horiz-adv-x="337" 
d="M207 369l-48 -338q-2 -17 -15 -28t-29 -11q-17 0 -26.5 11.5t-7.5 27.5l48 338q5 45 -7 70q-4 7 -4 16q0 17 12.5 28t28.5 11q24 0 36 -27q75 43 143 43q48 0 48 -32q0 -20 -14 -33.5t-32 -12.5q-26 1 -41 -0.5t-40 -10t-51 -25.5q0 -19 -1 -27zM250 624l89 81q3 2 8 7
t7.5 7t6.5 4.5t8.5 3.5t9.5 1q10 0 18.5 -8.5t8.5 -20.5q0 -14 -8 -21l-93 -86q-19 -18 -35 -18q-12 0 -20 8.5t-8 21.5q0 12 8 20z" />
    <glyph glyph-name="uni0156" unicode="&#x156;" horiz-adv-x="575" 
d="M584 535q0 -89 -49.5 -146t-134.5 -74l123 -263q2 -4 2 -17q0 -18 -17 -31t-32 -13q-22 0 -30 19l-135 300h-115l-39 -278q-2 -17 -16.5 -29.5t-30.5 -12.5t-25.5 12.5t-7.5 29.5l88 625q3 20 18.5 34t34.5 14h174q101 0 146.5 -48t45.5 -122zM503 525q0 102 -126 102
h-136l-34 -240h142q74 0 114 35.5t40 102.5zM327 -98q0 -38 -36 -89t-59 -51q-17 0 -17 15q0 13 19.5 32.5t26.5 31.5q-18 1 -30 15t-12 33q0 25 18.5 42.5t43.5 17.5q20 0 33 -13.5t13 -33.5z" />
    <glyph glyph-name="uni0157" unicode="&#x157;" horiz-adv-x="337" 
d="M207 369l-48 -338q-2 -17 -15 -28t-29 -11q-17 0 -26.5 11.5t-7.5 27.5l48 338q5 45 -7 70q-4 7 -4 16q0 17 12.5 28t28.5 11q24 0 36 -27q75 43 143 43q48 0 48 -32q0 -20 -14 -33.5t-32 -12.5q-26 1 -41 -0.5t-40 -10t-51 -25.5q0 -19 -1 -27zM154 -98q0 -38 -36 -89
t-59 -51q-17 0 -17 15q0 13 19.5 32.5t26.5 31.5q-18 1 -30 15t-12 33q0 25 18.5 42.5t43.5 17.5q20 0 33 -13.5t13 -33.5z" />
    <glyph glyph-name="Rcaron" unicode="&#x158;" horiz-adv-x="575" 
d="M584 535q0 -89 -49.5 -146t-134.5 -74l123 -263q2 -4 2 -17q0 -18 -17 -31t-32 -13q-22 0 -30 19l-135 300h-115l-39 -278q-2 -17 -16.5 -29.5t-30.5 -12.5t-25.5 12.5t-7.5 29.5l88 625q3 20 18.5 34t34.5 14h174q101 0 146.5 -48t45.5 -122zM503 525q0 102 -126 102
h-136l-34 -240h142q74 0 114 35.5t40 102.5zM394 762q-12 0 -23 9l-77 73q-16 14 -16 30q0 14 11 23.5t24 9.5q8 0 17 -7l74 -67l93 67q11 7 18 7q11 0 19.5 -7.5t8.5 -18.5q0 -19 -25 -37l-99 -73q-13 -9 -25 -9z" />
    <glyph glyph-name="rcaron" unicode="&#x159;" horiz-adv-x="337" 
d="M207 369l-48 -338q-2 -17 -15 -28t-29 -11q-17 0 -26.5 11.5t-7.5 27.5l48 338q5 45 -7 70q-4 7 -4 16q0 17 12.5 28t28.5 11q24 0 36 -27q75 43 143 43q48 0 48 -32q0 -20 -14 -33.5t-32 -12.5q-26 1 -41 -0.5t-40 -10t-51 -25.5q0 -19 -1 -27zM248 562q-12 0 -23 9
l-77 73q-16 14 -16 30q0 14 11 23.5t24 9.5q8 0 17 -7l74 -67l93 67q11 7 18 7q11 0 19.5 -7.5t8.5 -18.5q0 -19 -25 -37l-99 -73q-13 -9 -25 -9z" />
    <glyph glyph-name="Sacute" unicode="&#x15a;" horiz-adv-x="486" 
d="M389 210q0 57 -45 82q-19 11 -54.5 23.5t-63 24t-55 30t-43 49.5t-15.5 73q0 101 63.5 162t168.5 61q22 0 46.5 -3t52 -9t45.5 -19.5t18 -32.5q0 -16 -13 -29t-33 -13q-11 0 -46.5 14t-74.5 14q-61 0 -102 -30t-41 -100q0 -55 46 -82q19 -11 55 -24t63.5 -24.5t55 -30
t43 -49t15.5 -72.5q0 -107 -72 -171t-179 -64q-59 0 -116.5 18t-57.5 52q0 16 13 29.5t29 13.5q8 0 53.5 -17.5t90.5 -17.5q74 0 113.5 37.5t39.5 104.5zM334 824l89 81q3 2 8 7t7.5 7t6.5 4.5t8.5 3.5t9.5 1q10 0 18.5 -8.5t8.5 -20.5q0 -14 -8 -21l-93 -86
q-19 -18 -35 -18q-12 0 -20 8.5t-8 21.5q0 12 8 20z" />
    <glyph glyph-name="sacute" unicode="&#x15b;" horiz-adv-x="406" 
d="M103 350q0 73 49 118.5t135 45.5q46 0 86 -13t40 -39q0 -16 -12.5 -28t-29.5 -12q-7 0 -17 5q-36 18 -73 18q-100 0 -100 -80q0 -34 39 -54q13 -7 39.5 -17t44.5 -19t38 -23.5t30.5 -38t10.5 -54.5q0 -77 -49.5 -122t-140.5 -45q-50 0 -94.5 12.5t-44.5 41.5
q0 15 12 27.5t30 12.5q4 0 10 -2q56 -23 97 -23q48 0 75.5 21t27.5 64q0 35 -29 51q-12 7 -38 16.5t-47 19t-42.5 23.5t-34 38t-12.5 56zM264 624l89 81q3 2 8 7t7.5 7t6.5 4.5t8.5 3.5t9.5 1q10 0 18.5 -8.5t8.5 -20.5q0 -14 -8 -21l-93 -86q-19 -18 -35 -18q-12 0 -20 8.5
t-8 21.5q0 12 8 20z" />
    <glyph glyph-name="Scircumflex" unicode="&#x15c;" horiz-adv-x="486" 
d="M389 210q0 57 -45 82q-19 11 -54.5 23.5t-63 24t-55 30t-43 49.5t-15.5 73q0 101 63.5 162t168.5 61q22 0 46.5 -3t52 -9t45.5 -19.5t18 -32.5q0 -16 -13 -29t-33 -13q-11 0 -46.5 14t-74.5 14q-61 0 -102 -30t-41 -100q0 -55 46 -82q19 -11 55 -24t63.5 -24.5t55 -30
t43 -49t15.5 -72.5q0 -107 -72 -171t-179 -64q-59 0 -116.5 18t-57.5 52q0 16 13 29.5t29 13.5q8 0 53.5 -17.5t90.5 -17.5q74 0 113.5 37.5t39.5 104.5zM361 836l-83 -61q-8 -6 -20 -6q-9 0 -15.5 7t-6.5 16q0 15 23 33l88 67q12 8 23 8t21 -8l69 -67q14 -14 14 -27
q0 -11 -9 -20t-20 -9q-12 0 -18 6z" />
    <glyph glyph-name="scircumflex" unicode="&#x15d;" horiz-adv-x="406" 
d="M103 350q0 73 49 118.5t135 45.5q46 0 86 -13t40 -39q0 -16 -12.5 -28t-29.5 -12q-7 0 -17 5q-36 18 -73 18q-100 0 -100 -80q0 -34 39 -54q13 -7 39.5 -17t44.5 -19t38 -23.5t30.5 -38t10.5 -54.5q0 -77 -49.5 -122t-140.5 -45q-50 0 -94.5 12.5t-44.5 41.5
q0 15 12 27.5t30 12.5q4 0 10 -2q56 -23 97 -23q48 0 75.5 21t27.5 64q0 35 -29 51q-12 7 -38 16.5t-47 19t-42.5 23.5t-34 38t-12.5 56zM292 636l-83 -61q-8 -6 -20 -6q-9 0 -15.5 7t-6.5 16q0 15 23 33l88 67q12 8 23 8t21 -8l69 -67q14 -14 14 -27q0 -11 -9 -20t-20 -9
q-12 0 -18 6z" />
    <glyph glyph-name="Scedilla" unicode="&#x15e;" horiz-adv-x="486" 
d="M343 -114q0 -46 -41 -76.5t-111 -20.5q-24 3 -38.5 17t-3.5 30q3 5 6.5 7.5t9.5 2.5t10 -1t13 -3.5t15 -3.5q34 -7 54.5 9t20.5 36q0 29 -56 32q-24 2 -30.5 8t-1.5 24l13 44q-57 3 -105 20.5t-48 48.5q0 16 13 29.5t29 13.5q8 0 53.5 -17.5t90.5 -17.5q74 0 113.5 37.5
t39.5 104.5q0 57 -45 82q-19 11 -54.5 23.5t-63 24t-55 30t-43 49.5t-15.5 73q0 101 63.5 162t168.5 61q22 0 46.5 -3t52 -9t45.5 -19.5t18 -32.5q0 -16 -13 -29t-33 -13q-11 0 -46.5 14t-74.5 14q-61 0 -102 -30t-41 -100q0 -55 46 -82q19 -11 55 -24t63.5 -24.5t55 -30
t43 -49t15.5 -72.5q0 -99 -62.5 -161.5t-159.5 -71.5l-9 -32q99 -1 99 -74z" />
    <glyph glyph-name="scedilla" unicode="&#x15f;" horiz-adv-x="406" 
d="M304 -114q0 -46 -41 -76.5t-111 -20.5q-24 3 -38.5 17t-3.5 30q3 5 6.5 7.5t9.5 2.5t10 -1t13 -3.5t15 -3.5q34 -7 54.5 9t20.5 36q0 29 -56 32q-24 2 -30.5 8t-1.5 24l14 46q-111 9 -111 53q0 15 12 27.5t30 12.5q4 0 10 -2q56 -23 97 -23q48 0 75.5 21t27.5 64
q0 35 -29 51q-12 7 -38 16.5t-47 19t-42.5 23.5t-33.5 38t-12 56q0 73 48.5 118.5t135.5 45.5q46 0 85.5 -13t39.5 -39q0 -16 -12.5 -28t-28.5 -12q-8 0 -18 5q-36 18 -73 18q-100 0 -100 -80q0 -34 39 -54q13 -7 39.5 -17t45 -19t38.5 -23.5t30.5 -38t10.5 -54.5
q0 -72 -44 -116t-126 -50l-9 -33q99 -1 99 -74z" />
    <glyph glyph-name="Scaron" unicode="&#x160;" horiz-adv-x="486" 
d="M389 210q0 57 -45 82q-19 11 -54.5 23.5t-63 24t-55 30t-43 49.5t-15.5 73q0 101 63.5 162t168.5 61q22 0 46.5 -3t52 -9t45.5 -19.5t18 -32.5q0 -16 -13 -29t-33 -13q-11 0 -46.5 14t-74.5 14q-61 0 -102 -30t-41 -100q0 -55 46 -82q19 -11 55 -24t63.5 -24.5t55 -30
t43 -49t15.5 -72.5q0 -107 -72 -171t-179 -64q-59 0 -116.5 18t-57.5 52q0 16 13 29.5t29 13.5q8 0 53.5 -17.5t90.5 -17.5q74 0 113.5 37.5t39.5 104.5zM350 762q-12 0 -23 9l-77 73q-16 14 -16 30q0 14 11 23.5t24 9.5q8 0 17 -7l74 -67l93 67q11 7 18 7q11 0 19.5 -7.5
t8.5 -18.5q0 -19 -25 -37l-99 -73q-13 -9 -25 -9z" />
    <glyph glyph-name="scaron" unicode="&#x161;" horiz-adv-x="406" 
d="M103 350q0 73 49 118.5t135 45.5q46 0 86 -13t40 -39q0 -16 -12.5 -28t-29.5 -12q-7 0 -17 5q-36 18 -73 18q-100 0 -100 -80q0 -34 39 -54q13 -7 39.5 -17t44.5 -19t38 -23.5t30.5 -38t10.5 -54.5q0 -77 -49.5 -122t-140.5 -45q-50 0 -94.5 12.5t-44.5 41.5
q0 15 12 27.5t30 12.5q4 0 10 -2q56 -23 97 -23q48 0 75.5 21t27.5 64q0 35 -29 51q-12 7 -38 16.5t-47 19t-42.5 23.5t-34 38t-12.5 56zM282 562q-12 0 -23 9l-77 73q-16 14 -16 30q0 14 11 23.5t24 9.5q8 0 17 -7l74 -67l93 67q11 7 18 7q11 0 19.5 -7.5t8.5 -18.5
q0 -19 -25 -37l-99 -73q-13 -9 -25 -9z" />
    <glyph glyph-name="uni0162" unicode="&#x162;" horiz-adv-x="483" 
d="M205 30l84 597h-136q-15 0 -25 10t-10 25t14.5 29t31.5 14h352q15 0 25.5 -10t10.5 -25q0 -17 -14.5 -30t-32.5 -13h-136l-84 -597q-3 -20 -22 -32l-11 -38q99 -1 99 -74q0 -46 -41 -76.5t-111 -20.5q-24 3 -38 17t-3 30q3 5 6.5 7.5t9 2.5t9.5 -1t13 -3.5t15 -3.5
q34 -7 54.5 9t20.5 36q0 29 -55 32q-24 2 -31 8t-2 24l16 53q-12 12 -9 30z" />
    <glyph glyph-name="uni0163" unicode="&#x163;" horiz-adv-x="321" 
d="M286 -114q0 -46 -41 -76.5t-111 -20.5q-24 3 -38.5 17t-3.5 30q3 5 6.5 7.5t9.5 2.5t10 -1t13 -3.5t15 -3.5q34 -7 54.5 9t20.5 36q0 29 -56 32q-23 1 -29.5 7.5t-2.5 24.5q9 41 20 66q-40 21 -51 69t1 121l59 418q2 16 14 27t30 11t27 -11t7 -27l-19 -138h103
q13 0 22 -9t9 -23q0 -18 -12 -30t-29 -12h-104l-28 -199q-13 -77 -1 -109t63 -32q3 0 9.5 0.5t9.5 0.5q48 0 48 -31q0 -43 -63 -43q-21 0 -53 4q-9 -25 -8 -40q99 -1 99 -74z" />
    <glyph glyph-name="Tcaron" unicode="&#x164;" horiz-adv-x="483" 
d="M205 30l84 597h-136q-15 0 -25 10t-10 25t14.5 29t31.5 14h352q15 0 25.5 -10t10.5 -25q0 -17 -14.5 -30t-32.5 -13h-136l-84 -597q-2 -16 -16 -28t-30 -12t-26 12t-8 28zM348 762q-12 0 -23 9l-77 73q-16 14 -16 30q0 14 11 23.5t24 9.5q8 0 17 -7l74 -67l93 67
q11 7 18 7q11 0 19.5 -7.5t8.5 -18.5q0 -19 -25 -37l-99 -73q-13 -9 -25 -9z" />
    <glyph glyph-name="tcaron" unicode="&#x165;" horiz-adv-x="431" 
d="M102 203l59 418q2 16 14 27t30 11t27 -11t7 -27l-19 -138h104q13 0 22 -9t9 -23q0 -18 -12.5 -30t-29.5 -12h-104l-28 -199q-13 -77 -1 -109t64 -32q3 0 9.5 0.5t9.5 0.5q47 0 47 -31q0 -43 -63 -43q-100 0 -130 48.5t-15 158.5zM509 678q0 -44 -38 -107t-61 -63
q-17 0 -17 14q0 18 21 47t29 48q-19 2 -30.5 15.5t-11.5 32.5q0 25 18.5 42.5t43.5 17.5q20 0 33 -13.5t13 -33.5z" />
    <glyph glyph-name="Utilde" unicode="&#x168;" horiz-adv-x="572" 
d="M539 230q-15 -106 -83.5 -173t-170.5 -67q-104 0 -153.5 67t-34.5 173l63 443q2 18 16 30t31 12q16 0 25.5 -12.5t7.5 -29.5l-63 -443q-10 -75 19.5 -118.5t99.5 -43.5q69 0 110.5 44t51.5 118l63 443q2 17 15.5 29.5t29.5 12.5q18 0 28 -12.5t8 -29.5zM544 854
q0 -26 -29.5 -44.5t-61.5 -20.5q-24 0 -54 15.5t-42 16.5q-20 0 -39.5 -13.5t-28.5 -13.5q-11 0 -18.5 7.5t-7.5 19.5q4 27 31 46t60 19q23 0 52.5 -15.5t43.5 -16.5q21 0 39.5 13.5t28.5 14.5q11 0 18.5 -8t7.5 -20z" />
    <glyph glyph-name="utilde" unicode="&#x169;" horiz-adv-x="509" 
d="M370 123l49 350q2 17 13.5 27.5t30.5 10.5t27.5 -10.5t6.5 -27.5l-49 -350q-3 -19 -3 -32t1.5 -17.5t5 -11t4.5 -9.5q4 -12 4 -17q0 -15 -12.5 -26.5t-29.5 -11.5q-24 0 -39 30q-68 -36 -147 -36q-78 0 -111 51t-21 138l41 292q2 16 14 27t30 11t27 -11t7 -27l-41 -292
q-8 -57 11 -88t64 -31q58 0 115 33q0 12 2 28zM484 654q0 -26 -29.5 -44.5t-61.5 -20.5q-24 0 -54 15.5t-42 16.5q-20 0 -39.5 -13.5t-28.5 -13.5q-11 0 -18.5 7.5t-7.5 19.5q4 27 31 46t60 19q23 0 52.5 -15.5t43.5 -16.5q21 0 39.5 13.5t28.5 14.5q11 0 18.5 -8t7.5 -20z
" />
    <glyph glyph-name="Umacron" unicode="&#x16a;" horiz-adv-x="572" 
d="M539 230q-15 -106 -83.5 -173t-170.5 -67q-104 0 -153.5 67t-34.5 173l63 443q2 18 16 30t31 12q16 0 25.5 -12.5t7.5 -29.5l-63 -443q-10 -75 19.5 -118.5t99.5 -43.5q69 0 110.5 44t51.5 118l63 443q2 17 15.5 29.5t29.5 12.5q18 0 28 -12.5t8 -29.5zM565 841
q0 -16 -12.5 -28t-29.5 -12h-249q-14 0 -23 9t-9 23q0 16 13 28.5t30 12.5h249q13 0 22 -9.5t9 -23.5z" />
    <glyph glyph-name="umacron" unicode="&#x16b;" horiz-adv-x="509" 
d="M370 123l49 350q2 17 13.5 27.5t30.5 10.5t27.5 -10.5t6.5 -27.5l-49 -350q-3 -19 -3 -32t1.5 -17.5t5 -11t4.5 -9.5q4 -12 4 -17q0 -15 -12.5 -26.5t-29.5 -11.5q-24 0 -39 30q-68 -36 -147 -36q-78 0 -111 51t-21 138l41 292q2 16 14 27t30 11t27 -11t7 -27l-41 -292
q-8 -57 11 -88t64 -31q58 0 115 33q0 12 2 28zM505 641q0 -16 -12.5 -28t-29.5 -12h-249q-14 0 -23 9t-9 23q0 16 13 28.5t30 12.5h249q13 0 22 -9.5t9 -23.5z" />
    <glyph glyph-name="Ubreve" unicode="&#x16c;" horiz-adv-x="572" 
d="M539 230q-15 -106 -83.5 -173t-170.5 -67q-104 0 -153.5 67t-34.5 173l63 443q2 18 16 30t31 12q16 0 25.5 -12.5t7.5 -29.5l-63 -443q-10 -75 19.5 -118.5t99.5 -43.5q69 0 110.5 44t51.5 118l63 443q2 17 15.5 29.5t29.5 12.5q18 0 28 -12.5t8 -29.5zM404 833
q36 0 70 41q13 16 33 16q14 0 21 -9.5t0 -27.5q-15 -38 -55 -59.5t-78 -21.5t-72 21.5t-38 59.5q-2 18 8 27.5t24 9.5q18 0 27 -16q22 -41 60 -41z" />
    <glyph glyph-name="ubreve" unicode="&#x16d;" horiz-adv-x="509" 
d="M370 123l49 350q2 17 13.5 27.5t30.5 10.5t27.5 -10.5t6.5 -27.5l-49 -350q-3 -19 -3 -32t1.5 -17.5t5 -11t4.5 -9.5q4 -12 4 -17q0 -15 -12.5 -26.5t-29.5 -11.5q-24 0 -39 30q-68 -36 -147 -36q-78 0 -111 51t-21 138l41 292q2 16 14 27t30 11t27 -11t7 -27l-41 -292
q-8 -57 11 -88t64 -31q58 0 115 33q0 12 2 28zM343 633q36 0 70 41q13 16 33 16q14 0 21 -9.5t0 -27.5q-15 -38 -55 -59.5t-78 -21.5t-72 21.5t-38 59.5q-2 18 8 27.5t24 9.5q18 0 27 -16q22 -41 60 -41z" />
    <glyph glyph-name="Uring" unicode="&#x16e;" horiz-adv-x="572" 
d="M539 230q-15 -106 -83.5 -173t-170.5 -67q-104 0 -153.5 67t-34.5 173l63 443q2 18 16 30t31 12q16 0 25.5 -12.5t7.5 -29.5l-63 -443q-10 -75 19.5 -118.5t99.5 -43.5q69 0 110.5 44t51.5 118l63 443q2 17 15.5 29.5t29.5 12.5q18 0 28 -12.5t8 -29.5zM505 856
q0 -45 -34.5 -78t-79.5 -33q-38 0 -62.5 25t-24.5 62q0 45 34.5 78t80.5 33q37 0 61.5 -25t24.5 -62zM460 850q0 20 -13.5 34.5t-33.5 14.5q-25 0 -44 -18t-19 -43q0 -20 13.5 -34t33.5 -14q25 0 44 18t19 42z" />
    <glyph glyph-name="uring" unicode="&#x16f;" horiz-adv-x="509" 
d="M370 123l49 350q2 17 13.5 27.5t30.5 10.5t27.5 -10.5t6.5 -27.5l-49 -350q-3 -19 -3 -32t1.5 -17.5t5 -11t4.5 -9.5q4 -12 4 -17q0 -15 -12.5 -26.5t-29.5 -11.5q-24 0 -39 30q-68 -36 -147 -36q-78 0 -111 51t-21 138l41 292q2 16 14 27t30 11t27 -11t7 -27l-41 -292
q-8 -57 11 -88t64 -31q58 0 115 33q0 12 2 28zM446 656q0 -45 -34.5 -78t-79.5 -33q-38 0 -62.5 25t-24.5 62q0 45 34.5 78t80.5 33q37 0 61.5 -25t24.5 -62zM401 650q0 20 -13.5 34.5t-33.5 14.5q-25 0 -44 -18t-19 -43q0 -20 13.5 -34t33.5 -14q25 0 44 18t19 42z" />
    <glyph glyph-name="Uhungarumlaut" unicode="&#x170;" horiz-adv-x="572" 
d="M539 230q-15 -106 -83.5 -173t-170.5 -67q-104 0 -153.5 67t-34.5 173l63 443q2 18 16 30t31 12q16 0 25.5 -12.5t7.5 -29.5l-63 -443q-10 -75 19.5 -118.5t99.5 -43.5q69 0 110.5 44t51.5 118l63 443q2 17 15.5 29.5t29.5 12.5q18 0 28 -12.5t8 -29.5zM304 812l76 94
q3 3 7 8.5t7 8l7 6t8.5 5t10.5 1.5q12 0 20.5 -9.5t8.5 -21.5q0 -6 -4 -14l-79 -99q-22 -24 -36 -24q-13 0 -21.5 8t-8.5 21q0 11 4 16zM439 812l77 94q1 2 4.5 6t5 6t4.5 5.5t5 5t5.5 3.5t6.5 2.5t7 0.5q11 0 21 -9.5t10 -20.5q0 -8 -5 -15l-79 -99q-1 -2 -4.5 -5
t-4.5 -4.5t-3.5 -4t-4 -3.5t-4 -3t-5 -2.5l-5 -1t-5.5 -0.5q-13 0 -21.5 8t-8.5 21q0 11 4 16z" />
    <glyph glyph-name="uhungarumlaut" unicode="&#x171;" horiz-adv-x="509" 
d="M370 123l49 350q2 17 13.5 27.5t30.5 10.5t27.5 -10.5t6.5 -27.5l-49 -350q-3 -19 -3 -32t1.5 -17.5t5 -11t4.5 -9.5q4 -12 4 -17q0 -15 -12.5 -26.5t-29.5 -11.5q-24 0 -39 30q-68 -36 -147 -36q-78 0 -111 51t-21 138l41 292q2 16 14 27t30 11t27 -11t7 -27l-41 -292
q-8 -57 11 -88t64 -31q58 0 115 33q0 12 2 28zM242 612l76 94q3 3 7 8.5t7 8l7 6t8.5 5t10.5 1.5q12 0 20.5 -9.5t8.5 -21.5q0 -6 -4 -14l-79 -99q-22 -24 -36 -24q-13 0 -21.5 8t-8.5 21q0 11 4 16zM377 612l77 94q1 2 4.5 6t5 6t4.5 5.5t5 5t5.5 3.5t6.5 2.5t7 0.5
q11 0 21 -9.5t10 -20.5q0 -8 -5 -15l-79 -99q-1 -2 -4.5 -5t-4.5 -4.5t-3.5 -4t-4 -3.5t-4 -3t-5 -2.5l-5 -1t-5.5 -0.5q-13 0 -21.5 8t-8.5 21q0 11 4 16z" />
    <glyph glyph-name="Uogonek" unicode="&#x172;" horiz-adv-x="572" 
d="M539 230q-11 -77 -51 -135t-103 -85q-1 -2 -7 -11t-8.5 -12t-7.5 -11.5l-7.5 -12.5t-6.5 -11.5t-6 -12.5t-4 -11.5t-3 -12.5t-1 -11q0 -38 38 -38q14 0 26.5 2.5t16.5 2.5q10 0 16.5 -7t6.5 -17q0 -42 -82 -42q-92 0 -92 76q0 53 47 110q-9 -1 -26 -1q-104 0 -153.5 67
t-34.5 173l63 443q2 18 16 30t31 12q16 0 25.5 -12.5t7.5 -29.5l-63 -443q-10 -75 19.5 -118.5t99.5 -43.5q69 0 110.5 44t51.5 118l63 443q2 17 15.5 29.5t29.5 12.5q18 0 28 -12.5t8 -29.5z" />
    <glyph glyph-name="uogonek" unicode="&#x173;" horiz-adv-x="509" 
d="M502 -153q0 -42 -83 -42q-92 0 -92 76q0 60 65 128q-8 7 -13 18q-69 -35 -147 -35t-111 51t-21 138l41 292q2 16 14 27t30 11t27 -11t7 -27l-41 -292q-8 -57 11 -88t64 -31q57 0 115 32q-1 6 2 29l49 350q2 17 13.5 27.5t30.5 10.5t27.5 -10.5t6.5 -27.5l-49 -350
q-3 -19 -3 -32t1.5 -17.5t5 -11t4.5 -9.5q4 -12 4 -17q0 -12 -14 -28q-20 -23 -34.5 -52.5t-14.5 -51.5q0 -38 39 -38q14 0 26 2.5t16 2.5q10 0 17 -7t7 -17z" />
    <glyph glyph-name="Wcircumflex" unicode="&#x174;" horiz-adv-x="776" 
d="M510 47l-45 503l-187 -504q-22 -56 -61 -56q-40 0 -46 56l-62 619v3q0 20 16 31.5t35 11.5q29 0 32 -29l49 -533l187 508q12 31 24 44.5t36 13.5q22 0 31 -14.5t12 -43.5l45 -508l200 533q11 29 37 29q16 0 29.5 -8.5t13.5 -23.5q0 -3 -4 -15l-236 -618q-21 -56 -61 -56
q-41 0 -45 57zM506 836l-83 -61q-8 -6 -20 -6q-9 0 -15.5 7t-6.5 16q0 15 23 33l88 67q12 8 23 8t21 -8l69 -67q14 -14 14 -27q0 -11 -9 -20t-20 -9q-12 0 -18 6z" />
    <glyph glyph-name="wcircumflex" unicode="&#x175;" horiz-adv-x="655" 
d="M694 465l-175 -428q-10 -24 -22.5 -34.5t-33.5 -10.5q-37 0 -42 34l-40 351l-139 -351q-14 -34 -51 -34q-38 0 -44 45l-56 431v3q0 15 13 27.5t31 12.5q29 0 32 -28l43 -368l141 361q14 35 49 35q34 0 38 -35q4 -44 41 -361l145 368q5 12 15.5 20t23.5 8q14 0 23.5 -10
t9.5 -24q0 -8 -2 -12zM416 636l-83 -61q-8 -6 -20 -6q-9 0 -15.5 7t-6.5 16q0 15 23 33l88 67q12 8 23 8t21 -8l69 -67q14 -14 14 -27q0 -11 -9 -20t-20 -9q-12 0 -18 6z" />
    <glyph glyph-name="Ycircumflex" unicode="&#x176;" horiz-adv-x="476" 
d="M236 -10q-17 0 -27 12.5t-8 29.5l35 245l-125 378q-2 8 -2 15q0 18 15 31.5t32 13.5q22 0 29 -16l105 -329l197 329q10 16 33 16q14 0 25 -11t11 -26q0 -9 -7 -23l-232 -380l-34 -243q-2 -17 -16 -29.5t-31 -12.5zM356 836l-83 -61q-8 -6 -20 -6q-9 0 -15.5 7t-6.5 16
q0 15 23 33l88 67q12 8 23 8t21 -8l69 -67q14 -14 14 -27q0 -11 -9 -20t-20 -9q-12 0 -18 6z" />
    <glyph glyph-name="ycircumflex" unicode="&#x177;" horiz-adv-x="509" 
d="M377 107l51 366q2 16 14 27t31 11q38 0 33 -38l-72 -513q-11 -82 -63 -133t-141 -51q-46 0 -88.5 14t-42.5 43q0 15 11.5 26.5t27.5 11.5q8 0 15 -3q44 -23 78 -23q109 0 125 115l10 70q-63 -37 -133 -37q-160 0 -134 182l41 298q2 16 14.5 27t30.5 11t26.5 -11t6.5 -27
l-41 -298q-16 -114 82 -114q69 0 118 46zM343 636l-83 -61q-8 -6 -20 -6q-9 0 -15.5 7t-6.5 16q0 15 23 33l88 67q12 8 23 8t21 -8l69 -67q14 -14 14 -27q0 -11 -9 -20t-20 -9q-12 0 -18 6z" />
    <glyph glyph-name="Ydieresis" unicode="&#x178;" horiz-adv-x="476" 
d="M236 -10q-17 0 -27 12.5t-8 29.5l35 245l-125 378q-2 8 -2 15q0 18 15 31.5t32 13.5q22 0 29 -16l105 -329l197 329q10 16 33 16q14 0 25 -11t11 -26q0 -9 -7 -23l-232 -380l-34 -243q-2 -17 -16 -29.5t-31 -12.5zM487 844q0 -22 -16.5 -38t-37.5 -16q-18 0 -30 13
t-12 31q0 20 17 36t38 16q18 0 29.5 -12t11.5 -30zM318 844q0 -22 -16.5 -38t-38.5 -16q-18 0 -29 12.5t-11 30.5q0 21 16 37t37 16q19 0 30.5 -12t11.5 -30z" />
    <glyph glyph-name="Zacute" unicode="&#x179;" horiz-adv-x="484" 
d="M460 45q0 -18 -14 -31.5t-32 -13.5h-343q-16 0 -26 11t-10 28q0 13 15 37l385 549h-277q-15 0 -24.5 10t-9.5 25q0 17 13.5 31t31.5 14h339q17 0 27.5 -10.5t10.5 -27.5q0 -15 -15 -36l-387 -551h282q14 0 24 -10t10 -25zM327 824l89 81q3 2 8 7t7.5 7t6.5 4.5t8.5 3.5
t9.5 1q10 0 18.5 -8.5t8.5 -20.5q0 -14 -8 -21l-93 -86q-19 -18 -35 -18q-12 0 -20 8.5t-8 21.5q0 12 8 20z" />
    <glyph glyph-name="zacute" unicode="&#x17a;" horiz-adv-x="384" 
d="M432 470q0 -17 -13 -33l-298 -365h221q14 0 23 -9t9 -23q0 -16 -12.5 -28t-29.5 -12h-277q-15 0 -25 10.5t-10 26.5t11 30l299 366h-209q-13 0 -22 9t-9 23q0 17 12.5 28.5t29.5 11.5h265q15 0 25 -9.5t10 -25.5zM260 624l89 81q3 2 8 7t7.5 7t6.5 4.5t8.5 3.5t9.5 1
q10 0 18.5 -8.5t8.5 -20.5q0 -14 -8 -21l-93 -86q-19 -18 -35 -18q-12 0 -20 8.5t-8 21.5q0 12 8 20z" />
    <glyph glyph-name="Zdotaccent" unicode="&#x17b;" horiz-adv-x="484" 
d="M460 45q0 -18 -14 -31.5t-32 -13.5h-343q-16 0 -26 11t-10 28q0 13 15 37l385 549h-277q-15 0 -24.5 10t-9.5 25q0 17 13.5 31t31.5 14h339q17 0 27.5 -10.5t10.5 -27.5q0 -15 -15 -36l-387 -551h282q14 0 24 -10t10 -25zM407 844q0 -22 -16.5 -38t-38.5 -16
q-18 0 -29 12.5t-11 30.5q0 21 16 37t37 16q19 0 30.5 -12t11.5 -30z" />
    <glyph glyph-name="zdotaccent" unicode="&#x17c;" horiz-adv-x="384" 
d="M432 470q0 -17 -13 -33l-298 -365h221q14 0 23 -9t9 -23q0 -16 -12.5 -28t-29.5 -12h-277q-15 0 -25 10.5t-10 26.5t11 30l299 366h-209q-13 0 -22 9t-9 23q0 17 12.5 28.5t29.5 11.5h265q15 0 25 -9.5t10 -25.5zM329 644q0 -22 -16.5 -38t-38.5 -16q-18 0 -29 12.5
t-11 30.5q0 21 16 37t37 16q19 0 30.5 -12t11.5 -30z" />
    <glyph glyph-name="Zcaron" unicode="&#x17d;" horiz-adv-x="484" 
d="M460 45q0 -18 -14 -31.5t-32 -13.5h-343q-16 0 -26 11t-10 28q0 13 15 37l385 549h-277q-15 0 -24.5 10t-9.5 25q0 17 13.5 31t31.5 14h339q17 0 27.5 -10.5t10.5 -27.5q0 -15 -15 -36l-387 -551h282q14 0 24 -10t10 -25zM349 762q-12 0 -23 9l-77 73q-16 14 -16 30
q0 14 11 23.5t24 9.5q8 0 17 -7l74 -67l93 67q11 7 18 7q11 0 19.5 -7.5t8.5 -18.5q0 -19 -25 -37l-99 -73q-13 -9 -25 -9z" />
    <glyph glyph-name="zcaron" unicode="&#x17e;" horiz-adv-x="384" 
d="M432 470q0 -17 -13 -33l-298 -365h221q14 0 23 -9t9 -23q0 -16 -12.5 -28t-29.5 -12h-277q-15 0 -25 10.5t-10 26.5t11 30l299 366h-209q-13 0 -22 9t-9 23q0 17 12.5 28.5t29.5 11.5h265q15 0 25 -9.5t10 -25.5zM274 562q-12 0 -23 9l-77 73q-16 14 -16 30q0 14 11 23.5
t24 9.5q8 0 17 -7l74 -67l93 67q11 7 18 7q11 0 19.5 -7.5t8.5 -18.5q0 -19 -25 -37l-99 -73q-13 -9 -25 -9z" />
    <glyph glyph-name="florin" unicode="&#x192;" horiz-adv-x="492" 
d="M573 679q0 -20 -8.5 -29.5t-19 -8.5t-19.5 1q-16 2 -27 2q-27 0 -48.5 -17t-30.5 -47l-41 -131h84q30 0 30 -29q0 -20 -11.5 -30t-28.5 -10h-96l-134 -422q-26 -82 -65 -125t-104 -43q-20 0 -30.5 0.5t-23 3.5t-17.5 9.5t-5 17.5q0 19 12.5 30.5t32.5 11.5q3 0 13.5 -0.5
t15.5 -0.5q37 0 56.5 21t34.5 69l135 428h-84q-29 0 -29 29q0 20 11 30t28 10h96l45 143q18 57 63.5 90t110.5 33q54 0 54 -36z" />
    <glyph glyph-name="uni0218" unicode="&#x218;" horiz-adv-x="486" 
d="M389 210q0 57 -45 82q-19 11 -54.5 23.5t-63 24t-55 30t-43 49.5t-15.5 73q0 101 63.5 162t168.5 61q22 0 46.5 -3t52 -9t45.5 -19.5t18 -32.5q0 -16 -13 -29t-33 -13q-11 0 -46.5 14t-74.5 14q-61 0 -102 -30t-41 -100q0 -55 46 -82q19 -11 55 -24t63.5 -24.5t55 -30
t43 -49t15.5 -72.5q0 -107 -72 -171t-179 -64q-59 0 -116.5 18t-57.5 52q0 16 13 29.5t29 13.5q8 0 53.5 -17.5t90.5 -17.5q74 0 113.5 37.5t39.5 104.5zM283 -98q0 -38 -36 -89t-59 -51q-17 0 -17 15q0 13 19.5 32.5t26.5 31.5q-18 1 -30 15t-12 33q0 25 18.5 42.5
t43.5 17.5q20 0 33 -13.5t13 -33.5z" />
    <glyph glyph-name="uni0219" unicode="&#x219;" horiz-adv-x="406" 
d="M103 350q0 73 49 118.5t135 45.5q46 0 86 -13t40 -39q0 -16 -12.5 -28t-29.5 -12q-7 0 -17 5q-36 18 -73 18q-100 0 -100 -80q0 -34 39 -54q13 -7 39.5 -17t44.5 -19t38 -23.5t30.5 -38t10.5 -54.5q0 -77 -49.5 -122t-140.5 -45q-50 0 -94.5 12.5t-44.5 41.5
q0 15 12 27.5t30 12.5q4 0 10 -2q56 -23 97 -23q48 0 75.5 21t27.5 64q0 35 -29 51q-12 7 -38 16.5t-47 19t-42.5 23.5t-34 38t-12.5 56zM243 -98q0 -38 -36 -89t-59 -51q-17 0 -17 15q0 13 19.5 32.5t26.5 31.5q-18 1 -30 15t-12 33q0 25 18.5 42.5t43.5 17.5
q20 0 33 -13.5t13 -33.5z" />
    <glyph glyph-name="uni021A" unicode="&#x21a;" horiz-adv-x="483" 
d="M205 30l84 597h-136q-15 0 -25 10t-10 25t14.5 29t31.5 14h352q15 0 25.5 -10t10.5 -25q0 -17 -14.5 -30t-32.5 -13h-136l-84 -597q-2 -16 -16 -28t-30 -12t-26 12t-8 28zM281 -98q0 -38 -36 -89t-59 -51q-17 0 -17 15q0 13 19.5 32.5t26.5 31.5q-18 1 -30 15t-12 33
q0 25 18.5 42.5t43.5 17.5q20 0 33 -13.5t13 -33.5z" />
    <glyph glyph-name="uni021B" unicode="&#x21b;" horiz-adv-x="321" 
d="M102 203l59 418q2 16 14 27t30 11t27 -11t7 -27l-19 -138h104q13 0 22 -9t9 -23q0 -18 -12.5 -30t-29.5 -12h-104l-28 -199q-13 -77 -1 -109t64 -32q3 0 9.5 0.5t9.5 0.5q47 0 47 -31q0 -43 -63 -43q-100 0 -130 48.5t-15 158.5zM260 -98q0 -38 -36 -89t-59 -51
q-17 0 -17 15q0 13 19.5 32.5t26.5 31.5q-18 1 -30 15t-12 33q0 25 18.5 42.5t43.5 17.5q20 0 33 -13.5t13 -33.5z" />
    <glyph glyph-name="dotlessj" unicode="&#x237;" horiz-adv-x="245" 
d="M227 472l-68 -487q-11 -79 -54.5 -128t-112.5 -59q-8 -1 -19 -1q-27 0 -30 26q-2 18 10 29t26 14q44 9 69 35.5t32 79.5l69 491q2 16 15.5 27.5t29.5 11.5t25.5 -11.5t7.5 -27.5z" />
    <glyph glyph-name="circumflex" unicode="&#x2c6;" horiz-adv-x="396" 
d="M286 636l-83 -61q-8 -6 -20 -6q-9 0 -15.5 7t-6.5 16q0 15 23 33l88 67q12 8 23 8t21 -8l69 -67q14 -14 14 -27q0 -11 -9 -20t-20 -9q-12 0 -18 6z" />
    <glyph glyph-name="caron" unicode="&#x2c7;" horiz-adv-x="391" 
d="M274 562q-12 0 -23 9l-77 73q-16 14 -16 30q0 14 11 23.5t24 9.5q8 0 17 -7l74 -67l93 67q11 7 18 7q11 0 19.5 -7.5t8.5 -18.5q0 -19 -25 -37l-99 -73q-13 -9 -25 -9z" />
    <glyph glyph-name="breve" unicode="&#x2d8;" horiz-adv-x="368" 
d="M272 633q36 0 70 41q13 16 33 16q14 0 21 -9.5t0 -27.5q-15 -38 -55 -59.5t-78 -21.5t-72 21.5t-38 59.5q-2 18 8 27.5t24 9.5q18 0 27 -16q22 -41 60 -41z" />
    <glyph glyph-name="dotaccent" unicode="&#x2d9;" horiz-adv-x="238" 
d="M256 644q0 -22 -16.5 -38t-38.5 -16q-18 0 -29 12.5t-11 30.5q0 21 16 37t37 16q19 0 30.5 -12t11.5 -30z" />
    <glyph glyph-name="ring" unicode="&#x2da;" horiz-adv-x="571" 
d="M473 656q0 -45 -34.5 -78t-79.5 -33q-38 0 -62.5 25t-24.5 62q0 45 34.5 78t80.5 33q37 0 61.5 -25t24.5 -62zM428 650q0 20 -13.5 34.5t-33.5 14.5q-25 0 -44 -18t-19 -43q0 -20 13.5 -34t33.5 -14q25 0 44 18t19 42z" />
    <glyph glyph-name="ogonek" unicode="&#x2db;" horiz-adv-x="322" 
d="M227 -153q0 -42 -82 -42q-92 0 -92 76q0 57 54 119h60q-2 -4 -11 -18t-13 -21t-9.5 -18.5t-8 -20.5t-2.5 -18q0 -38 38 -38q14 0 26.5 2.5t16.5 2.5q10 0 16.5 -7t6.5 -17z" />
    <glyph glyph-name="tilde" unicode="&#x2dc;" horiz-adv-x="375" 
d="M425 654q0 -26 -29.5 -44.5t-61.5 -20.5q-24 0 -54 15.5t-42 16.5q-20 0 -39.5 -13.5t-28.5 -13.5q-11 0 -18.5 7.5t-7.5 19.5q4 27 31 46t60 19q23 0 52.5 -15.5t43.5 -16.5q21 0 39.5 13.5t28.5 14.5q11 0 18.5 -8t7.5 -20z" />
    <glyph glyph-name="hungarumlaut" unicode="&#x2dd;" horiz-adv-x="410" 
d="M159 612l76 94q3 3 7 8.5t7 8l7 6t8.5 5t10.5 1.5q12 0 20.5 -9.5t8.5 -21.5q0 -6 -4 -14l-79 -99q-22 -24 -36 -24q-13 0 -21.5 8t-8.5 21q0 11 4 16zM294 612l77 94q1 2 4.5 6t5 6t4.5 5.5t5 5t5.5 3.5t6.5 2.5t7 0.5q11 0 21 -9.5t10 -20.5q0 -8 -5 -15l-79 -99
q-1 -2 -4.5 -5t-4.5 -4.5t-3.5 -4t-4 -3.5t-4 -3t-5 -2.5l-5 -1t-5.5 -0.5q-13 0 -21.5 8t-8.5 21q0 11 4 16z" />
    <glyph glyph-name="uni0400" unicode="&#x400;" horiz-adv-x="474" 
d="M448 45q0 -18 -14.5 -31.5t-32.5 -13.5h-265q-28 0 -43.5 11t-12.5 36l86 611q2 18 18 32.5t36 14.5h271q15 0 24.5 -10t9.5 -25q0 -18 -13.5 -30.5t-31.5 -12.5h-238l-33 -234h219q14 0 24 -10t10 -25q0 -18 -13.5 -30.5t-31.5 -12.5h-219l-34 -237h248q15 0 25.5 -9.5
t10.5 -23.5zM357 906l66 -81q4 -4 4 -12q0 -16 -12 -27t-27 -11q-14 0 -29 18l-69 86q-3 4 -3 13q0 15 12 26t24 11q6 0 11.5 -2t7.5 -4t7.5 -8.5t7.5 -8.5z" />
    <glyph glyph-name="uni0401" unicode="&#x401;" horiz-adv-x="474" 
d="M448 45q0 -18 -14.5 -31.5t-32.5 -13.5h-265q-28 0 -43.5 11t-12.5 36l86 611q2 18 18 32.5t36 14.5h271q15 0 24.5 -10t9.5 -25q0 -18 -13.5 -30.5t-31.5 -12.5h-238l-33 -234h219q14 0 24 -10t10 -25q0 -18 -13.5 -30.5t-31.5 -12.5h-219l-34 -237h248q15 0 25.5 -9.5
t10.5 -23.5zM518 845q0 -22 -16.5 -38t-37.5 -16q-18 0 -30 13t-12 31q0 20 17 36t38 16q18 0 29.5 -12t11.5 -30zM349 845q0 -22 -16.5 -38t-38.5 -16q-18 0 -29 12.5t-11 30.5q0 21 16 37t37 16q19 0 30.5 -12t11.5 -30z" />
    <glyph glyph-name="uni0402" unicode="&#x402;" horiz-adv-x="644" 
d="M165 30l84 598h-96q-15 0 -25 10.5t-10 23.5q0 16 14 30t32 14h352q15 0 25.5 -10t10.5 -25q0 -17 -14.5 -30t-32.5 -13h-176l-29 -209q61 26 133 26q88 0 135 -47t47 -137q0 -120 -58.5 -195.5t-152.5 -75.5q-41 0 -67.5 16t-26.5 40q0 16 12.5 27.5t28.5 11.5
q8 0 21 -8.5t35 -8.5q61 0 94.5 47.5t33.5 137.5q0 60 -29 87t-90 27q-73 0 -128 -28l-43 -309q-2 -16 -16 -28t-30 -12t-26 12t-8 28z" />
    <glyph glyph-name="uni0403" unicode="&#x403;" horiz-adv-x="430" 
d="M241 628l-84 -597q-2 -16 -16 -28t-30 -12t-26 12t-8 28l88 630q2 17 17.5 31t34.5 14h272q15 0 24.5 -10t9.5 -25q0 -18 -13.5 -30.5t-31.5 -12.5h-237zM339 825l89 81q3 2 8 7t7.5 7t6.5 4.5t8.5 3.5t9.5 1q10 0 18.5 -8.5t8.5 -20.5q0 -14 -8 -21l-93 -86
q-20 -18 -35 -18q-12 0 -20 8.5t-8 21.5q0 12 8 20z" />
    <glyph glyph-name="uni0404" unicode="&#x404;" horiz-adv-x="482" 
d="M80 246l30 214q17 119 83 187t178 68q66 0 115.5 -24.5t49.5 -57.5q0 -16 -12 -27.5t-29 -11.5q-12 0 -34 17q-42 31 -96 31q-81 0 -122 -46.5t-53 -135.5l-9 -67h185q14 0 23.5 -10t9.5 -24q0 -18 -13 -31.5t-31 -13.5h-185l-10 -68q-13 -89 15 -135.5t109 -46.5
q55 0 104 31l11.5 7t10 5.5t8 3t9.5 1.5q14 0 22.5 -9t8.5 -22q0 -36 -58.5 -63t-130.5 -27q-112 0 -159 68t-30 187z" />
    <glyph glyph-name="uni0405" unicode="&#x405;" horiz-adv-x="486" 
d="M389 210q0 57 -45 82q-19 11 -54.5 23.5t-63 24t-55 30t-43 49.5t-15.5 73q0 101 63.5 162t168.5 61q22 0 46.5 -3t52 -9t45.5 -19.5t18 -32.5q0 -16 -13 -29t-33 -13q-11 0 -46.5 14t-74.5 14q-61 0 -102 -30t-41 -100q0 -55 46 -82q19 -11 55 -24t63.5 -24.5t55 -30
t43 -49t15.5 -72.5q0 -107 -72 -171t-179 -64q-59 0 -116.5 18t-57.5 52q0 16 13 29.5t29 13.5q8 0 53.5 -17.5t90.5 -17.5q74 0 113.5 37.5t39.5 104.5z" />
    <glyph glyph-name="uni0406" unicode="&#x406;" horiz-adv-x="227" 
d="M77 30l91 645q2 16 15.5 28t29.5 12t26.5 -12t8.5 -28l-91 -645q-2 -16 -16 -28t-30 -12t-26 12t-8 28z" />
    <glyph glyph-name="uni0407" unicode="&#x407;" horiz-adv-x="227" 
d="M77 30l91 645q2 16 15.5 28t29.5 12t26.5 -12t8.5 -28l-91 -645q-2 -16 -16 -28t-30 -12t-26 12t-8 28zM364 845q0 -22 -16.5 -38t-37.5 -16q-18 0 -30 13t-12 31q0 20 17 36t38 16q18 0 29.5 -12t11.5 -30zM195 845q0 -22 -16.5 -38t-38.5 -16q-18 0 -29 12.5t-11 30.5
q0 21 16 37t37 16q19 0 30.5 -12t11.5 -30z" />
    <glyph glyph-name="uni0408" unicode="&#x408;" horiz-adv-x="385" 
d="M406 675l-63 -450q-16 -116 -70 -175.5t-165 -59.5q-79 0 -79 40q0 19 13.5 31.5t27.5 12.5q3 0 22.5 -3.5t37.5 -3.5q65 0 93 39t40 119l63 450q2 17 15.5 28.5t30.5 11.5q16 0 26 -12t8 -28z" />
    <glyph glyph-name="uni0409" unicode="&#x409;" horiz-adv-x="877" 
d="M516 573h1l7 55h-194l-95 -459q-36 -177 -150 -177q-17 0 -27 1t-21.5 4t-17 10t-5.5 19q0 23 12.5 35t30.5 12q6 0 13 -1.5t15 -1.5q27 0 43 22.5t27 70.5l107 504q5 20 17.5 29.5t25.5 9.5h270q16 0 26.5 -11.5t8.5 -27.5l-31 -221h94q92 0 144.5 -48.5t52.5 -137.5
q0 -50 -14.5 -94.5t-43.5 -82.5t-81 -60.5t-121 -22.5h-127q-20 0 -32 14.5t-9 33.5zM534 131h-1l-7 -53h95q52 0 87.5 16.5t52 45t22.5 55t6 56.5q0 117 -127 117h-94z" />
    <glyph glyph-name="uni040A" unicode="&#x40a;" horiz-adv-x="848" 
d="M197 314l-40 -283q-2 -17 -16 -29t-30 -12t-26 12t-8 29l91 644q2 16 15.5 28t29.5 12t26.5 -12t8.5 -28l-40 -283h253l39 281q2 17 16 29.5t30 12.5t26 -12.5t8 -29.5l-32 -227h95q93 0 145 -48.5t52 -137.5q0 -50 -14 -94.5t-43.5 -82.5t-81.5 -60.5t-120 -22.5h-127
q-20 0 -32.5 14.5t-9.5 33.5l37 266h-252zM537 368l-40 -290h95q42 0 73.5 12t49 29t28 42t14 46t3.5 44q0 117 -128 117h-95z" />
    <glyph glyph-name="uni040B" unicode="&#x40b;" horiz-adv-x="644" 
d="M552 671q0 -17 -14.5 -30t-32.5 -13h-176l-29 -209q61 26 133 26q100 0 147 -57.5t32 -163.5l-27 -192q-2 -17 -16 -29.5t-30 -12.5t-26 12.5t-8 29.5l27 191q11 77 -18 110.5t-99 33.5q-72 0 -127 -28l-43 -309q-2 -16 -16 -28t-30 -12t-26 12t-8 28l84 598h-96
q-15 0 -25 10t-10 25t14.5 29t31.5 14h352q15 0 25.5 -10t10.5 -25z" />
    <glyph glyph-name="uni040C" unicode="&#x40c;" horiz-adv-x="516" 
d="M248 675l-40 -283h58l252 304q16 19 35 19q15 0 24 -12t9 -27q0 -9 -8 -23l-253 -301l168 -300q3 -8 3 -14q0 -16 -13.5 -32t-31.5 -16q-20 0 -30 19l-167 305h-57l-40 -283q-2 -17 -16 -29t-30 -12t-26 12t-8 29l91 644q2 16 15.5 28t29.5 12t26.5 -12t8.5 -28zM357 825
l89 81q3 2 8 7t7.5 7t6.5 4.5t8.5 3.5t9.5 1q10 0 18.5 -8.5t8.5 -20.5q0 -14 -8 -21l-93 -86q-19 -18 -35 -18q-12 0 -20 8.5t-8 21.5q0 12 8 20z" />
    <glyph glyph-name="uni040D" unicode="&#x40d;" horiz-adv-x="589" 
d="M115 -10q28 0 44 23l353 528l-72 -510q-2 -17 8.5 -29t26.5 -12t29.5 12t15.5 29l90 640q2 19 -8 31.5t-29 12.5q-29 0 -45 -24l-353 -527l72 510q2 17 -8.5 29t-26.5 12t-29.5 -12t-15.5 -29l-90 -640q-2 -18 8.5 -31t29.5 -13zM366 906l66 -81q4 -4 4 -12
q0 -16 -12 -27t-27 -11q-14 0 -29 18l-69 86q-3 5 -3 13q0 15 12 26t24 11q6 0 11.5 -2t7.5 -4t7.5 -8.5t7.5 -8.5z" />
    <glyph glyph-name="uni040E" unicode="&#x40e;" horiz-adv-x="503" 
d="M570 664l-222 -436l-41 -78t-39.5 -62.5t-47 -53t-53.5 -29t-70 -12.5q-16 0 -25.5 9t-9.5 23q0 16 12.5 28.5t30.5 13.5q47 2 76 24t59 76l-119 498q-1 1 -1 7q0 19 13 31t32 12q25 0 31 -26l96 -418l208 418q12 26 40 26q14 0 24 -9.5t10 -24.5q0 -5 -4 -17zM369 834
q36 0 70 41q13 16 33 16q14 0 21 -9.5t0 -27.5q-15 -38 -55 -59.5t-78 -21.5t-72 21.5t-38 59.5q-2 18 8 27.5t24 9.5q18 0 27 -16q22 -41 60 -41z" />
    <glyph glyph-name="uni040F" unicode="&#x40f;" horiz-adv-x="579" 
d="M232 -120l17 120h-136q-16 0 -26 12t-8 28l89 635q2 17 16 29t30 12t26 -12t8 -29l-84 -597h273l84 597q2 16 16 28.5t30 12.5t26 -12t8 -29l-89 -635q-2 -16 -16 -28t-30 -12h-137l-17 -120q-2 -16 -15.5 -28t-29.5 -12t-26.5 12t-8.5 28z" />
    <glyph glyph-name="uni0410" unicode="&#x410;" horiz-adv-x="549" 
d="M170 159l-62 -139q-6 -13 -18.5 -21.5t-23.5 -8.5q-16 0 -26.5 9.5t-10.5 25.5q0 13 5 20l281 617q25 53 60 53q21 0 30.5 -13.5t14.5 -39.5l108 -617v-3q1 -3 1 -5q0 -21 -14 -34t-34 -13q-12 0 -22.5 8.5t-12.5 21.5l-23 139h-253zM355 576l-150 -339h206z" />
    <glyph glyph-name="uni0411" unicode="&#x411;" horiz-adv-x="531" 
d="M498 628h-257l-28 -202h115q93 0 145.5 -46.5t52.5 -132.5q0 -47 -14 -89.5t-43 -78.5t-81 -57.5t-120 -21.5h-147q-20 0 -32 14.5t-9 33.5l86 613q2 17 17 31t34 14h292q15 0 24.5 -10t9.5 -25q0 -18 -13.5 -30.5t-31.5 -12.5zM164 78h115q51 0 86 15t51.5 41t22.5 50.5
t6 53.5q0 110 -128 110h-115z" />
    <glyph glyph-name="uni0412" unicode="&#x412;" horiz-adv-x="542" 
d="M210 405h115q59 0 107 35.5t48 98.5q0 38 -25.5 63t-81.5 25h-132zM317 327h-118l-35 -249h122q81 0 124 38t43 100q0 53 -37 82t-99 29zM286 0h-165q-20 0 -32 14t-9 34l85 609q3 20 19 34t36 14h169q83 0 127 -46t44 -114q0 -70 -39.5 -111.5t-113.5 -70.5
q27 -9 45 -17.5t39 -24t32 -40.5t11 -58q0 -93 -69.5 -158t-178.5 -65z" />
    <glyph glyph-name="uni0413" unicode="&#x413;" horiz-adv-x="430" 
d="M241 628l-84 -597q-2 -16 -16 -28t-30 -12t-26 12t-8 28l88 630q2 17 17.5 31t34.5 14h272q15 0 24.5 -10t9.5 -25q0 -18 -13.5 -30.5t-31.5 -12.5h-237z" />
    <glyph glyph-name="uni0414" unicode="&#x414;" horiz-adv-x="628" 
d="M595 706q16 0 26 -11.5t8 -27.5l-83 -589h25q17 0 27 -14.5t7 -36.5l-18 -128q-2 -17 -15.5 -28t-30.5 -11t-26.5 11.5t-7.5 27.5l14 101h-416l-14 -101q-2 -17 -15 -28t-29 -11q-17 0 -26.5 11.5t-7.5 27.5l18 128q3 22 16 36.5t30 14.5h29q55 62 94 265l61 324
q4 20 17 29.5t27 9.5h290zM280 343q-31 -177 -96 -265h282l78 550h-213z" />
    <glyph glyph-name="uni0415" unicode="&#x415;" horiz-adv-x="474" 
d="M448 45q0 -18 -14.5 -31.5t-32.5 -13.5h-265q-28 0 -43.5 11t-12.5 36l86 611q2 18 18 32.5t36 14.5h271q15 0 24.5 -10t9.5 -25q0 -18 -13.5 -30.5t-31.5 -12.5h-238l-33 -234h219q14 0 24 -10t10 -25q0 -18 -13.5 -30.5t-31.5 -12.5h-219l-34 -237h248q15 0 25.5 -9.5
t10.5 -23.5z" />
    <glyph glyph-name="uni0416" unicode="&#x416;" horiz-adv-x="746" 
d="M508 675l-40 -283h45l235 304q15 19 35 19q15 0 24 -12t9 -27q0 -10 -9 -23l-227 -301l143 -300q3 -8 3 -14q0 -16 -13.5 -32t-31.5 -16q-20 0 -30 19l-148 305h-46l-40 -283q-2 -17 -16 -29t-30 -12t-26 12t-8 29l40 283h-46l-234 -305q-16 -19 -36 -19q-15 0 -23.5 12
t-8.5 27q0 12 8 23l226 300l-141 301q-3 7 -3 14q0 16 13 32t31 16q19 0 31 -19l147 -304h47l40 283q2 16 15.5 28t29.5 12t26.5 -12t8.5 -28z" />
    <glyph glyph-name="uni0417" unicode="&#x417;" horiz-adv-x="485" 
d="M473 216q0 -91 -70.5 -158.5t-176.5 -67.5q-63 0 -124.5 22t-61.5 58q0 16 12.5 28t27.5 12q8 0 19 -7q64 -41 126 -41q80 0 124.5 42.5t44.5 105.5q0 104 -157 111q-13 1 -21 2.5t-15.5 9t-7.5 20.5q0 8 1.5 14.5t3.5 10.5t6.5 7.5t7 5t9 3t8 2t9.5 0.5l7 1
q35 3 64.5 12t56.5 25t43 44t16 65q0 42 -26.5 71t-82.5 29q-51 0 -94 -20q-8 -4 -21.5 -11.5t-23.5 -12t-18 -4.5q-12 0 -21 8.5t-9 21.5q0 37 67.5 63.5t134.5 26.5q83 0 127 -49t44 -118q0 -126 -144 -185q115 -41 115 -147z" />
    <glyph glyph-name="uni0418" unicode="&#x418;" horiz-adv-x="589" 
d="M115 -10q-19 0 -29.5 13t-8.5 31l90 640q2 17 15.5 29t29.5 12t26.5 -12t8.5 -29l-72 -510l353 527q16 24 45 24q19 0 29 -12.5t8 -31.5l-90 -640q-2 -17 -15.5 -29t-29.5 -12t-26.5 12t-8.5 29l72 510l-353 -528q-16 -23 -44 -23z" />
    <glyph glyph-name="uni0419" unicode="&#x419;" horiz-adv-x="589" 
d="M115 -10q28 0 44 23l353 528l-72 -510q-2 -17 8.5 -29t26.5 -12t29.5 12t15.5 29l90 640q2 19 -8 31.5t-29 12.5q-29 0 -45 -24l-353 -527l72 510q2 17 -8.5 29t-26.5 12t-29.5 -12t-15.5 -29l-90 -640q-2 -18 8.5 -31t29.5 -13zM412 834q36 0 70 41q13 16 33 16
q14 0 21 -9.5t0 -27.5q-15 -38 -55 -59.5t-78 -21.5t-72 21.5t-38 59.5q-2 18 8 27.5t24 9.5q18 0 27 -16q22 -41 60 -41z" />
    <glyph glyph-name="uni041A" unicode="&#x41a;" horiz-adv-x="516" 
d="M248 675l-40 -283h58l252 304q16 19 35 19q15 0 24 -12t9 -27q0 -9 -8 -23l-253 -301l168 -300q3 -8 3 -14q0 -16 -13.5 -32t-31.5 -16q-20 0 -30 19l-167 305h-57l-40 -283q-2 -17 -16 -29t-30 -12t-26 12t-8 29l91 644q2 16 15.5 28t29.5 12t26.5 -12t8.5 -28z" />
    <glyph glyph-name="uni041B" unicode="&#x41b;" horiz-adv-x="610" 
d="M540 31q-3 -16 -16 -27.5t-29 -11.5q-17 0 -27 11t-8 28l84 597h-214l-95 -459q-36 -177 -150 -177q-17 0 -27 1t-21.5 4t-17 10t-5.5 19q0 23 12.5 35t30.5 12q6 0 13 -1.5t15 -1.5q27 0 43 22.5t27 70.5l107 504q5 20 17.5 29.5t25.5 9.5h290q16 0 26.5 -11.5
t8.5 -27.5z" />
    <glyph glyph-name="uni041C" unicode="&#x41c;" horiz-adv-x="690" 
d="M718 673l-90 -644q-2 -16 -15.5 -27.5t-29.5 -11.5t-26.5 11.5t-8.5 27.5l68 487l-209 -344q-15 -24 -42 -24t-35 24l-113 344l-68 -487q-2 -16 -16.5 -27.5t-31.5 -11.5q-16 0 -25 11.5t-7 27.5l90 644q3 18 16.5 30t31.5 12q29 0 40 -26l136 -418l254 419q17 25 45 25
q18 0 28 -12.5t8 -29.5z" />
    <glyph glyph-name="uni041D" unicode="&#x41d;" horiz-adv-x="580" 
d="M510 31q-2 -17 -16 -29t-30 -12t-26 12.5t-8 28.5l40 283h-273l-40 -283q-2 -17 -16 -29t-30 -12t-26 12t-8 29l91 644q2 16 15.5 28t29.5 12t26.5 -12t8.5 -28l-40 -283h273l40 283q2 16 15.5 28t29.5 12t26.5 -12t8.5 -28z" />
    <glyph glyph-name="uni041E" unicode="&#x41e;" horiz-adv-x="551" 
d="M274 -10q-110 0 -160 72t-34 184l30 214q16 113 82.5 184t183.5 71t163.5 -71t30.5 -184l-30 -214q-16 -112 -86 -184t-180 -72zM365 637q-150 0 -175 -177l-30 -214q-12 -82 19 -130t106 -48t119 48t56 130l30 214q25 177 -125 177z" />
    <glyph glyph-name="uni041F" unicode="&#x41f;" horiz-adv-x="579" 
d="M510 31q-2 -17 -16 -29t-30 -12t-26 12.5t-8 28.5l84 597h-273l-84 -597q-2 -17 -16 -29t-30 -12t-26 12t-8 29l89 635q2 16 16 28t30 12h353q16 0 26 -12t8 -28z" />
    <glyph glyph-name="uni0420" unicode="&#x420;" horiz-adv-x="530" 
d="M304 260h-115l-32 -228q-2 -17 -16 -29.5t-30 -12.5t-26 12.5t-8 29.5l88 625q3 20 19.5 34t35.5 14h147q102 0 149.5 -52.5t47.5 -135.5q0 -120 -71.5 -188.5t-188.5 -68.5zM241 627l-41 -289h115q168 0 168 171q0 118 -127 118h-115z" />
    <glyph glyph-name="uni0421" unicode="&#x421;" horiz-adv-x="481" 
d="M80 246l30 214q17 119 83 187t178 68q66 0 115.5 -24.5t49.5 -57.5q0 -16 -12 -27.5t-29 -11.5q-12 0 -34 17q-42 31 -96 31q-81 0 -121.5 -46.5t-53.5 -135.5l-30 -214q-13 -89 15 -135.5t109 -46.5q54 0 105 31q28 17 38 17q14 0 22.5 -9t8.5 -22q0 -36 -58.5 -63
t-130.5 -27q-112 0 -159 68t-30 187z" />
    <glyph glyph-name="uni0422" unicode="&#x422;" horiz-adv-x="483" 
d="M205 30l84 597h-136q-15 0 -25 10t-10 25t14.5 29t31.5 14h352q15 0 25.5 -10t10.5 -25q0 -17 -14.5 -30t-32.5 -13h-136l-84 -597q-2 -16 -16 -28t-30 -12t-26 12t-8 28z" />
    <glyph glyph-name="uni0423" unicode="&#x423;" horiz-adv-x="503" 
d="M570 664l-222 -436l-41 -78t-39.5 -62.5t-47 -53t-53.5 -29t-70 -12.5q-16 0 -25.5 9t-9.5 23q0 16 12.5 28.5t30.5 13.5q47 2 76 24t59 76l-119 498q-1 1 -1 7q0 19 13 31t32 12q25 0 31 -26l96 -418l208 418q12 26 40 26q14 0 24 -9.5t10 -24.5q0 -5 -4 -17z" />
    <glyph glyph-name="uni0424" unicode="&#x424;" horiz-adv-x="750" 
d="M339 30l18 130h-65q-93 0 -145 48.5t-52 137.5q0 50 14.5 94.5t43.5 82.5t81 60.5t121 22.5h64l10 69q2 16 16.5 28t29.5 12q17 0 26.5 -12t7.5 -28l-10 -69h66q101 0 148.5 -53t47.5 -136q0 -120 -71 -188.5t-188 -68.5h-65l-18 -130q-2 -16 -16 -28t-30 -12t-26 12
t-8 28zM554 528h-65l-41 -290h65q168 0 168 171q0 52 -29 85.5t-98 33.5zM303 238h65l41 290h-65q-52 0 -87.5 -16.5t-52 -45t-22.5 -55t-6 -56.5q0 -117 127 -117z" />
    <glyph glyph-name="uni0425" unicode="&#x425;" horiz-adv-x="483" 
d="M284 303l-199 -284q-20 -29 -42 -29q-14 0 -23.5 11t-9.5 26q0 13 9 26l226 314l-126 287q-2 4 -2 17q0 17 13 30.5t29 13.5q23 0 39 -35l104 -249l174 249q26 35 48 35q13 0 22 -10.5t9 -24.5q0 -15 -8 -26l-208 -287l138 -314q4 -8 4 -18q0 -16 -14 -30.5t-29 -14.5
q-23 0 -35 29z" />
    <glyph glyph-name="uni0426" unicode="&#x426;" horiz-adv-x="604" 
d="M113 0q-16 0 -26 12t-8 28l89 634q2 17 16 29t30 12t26 -12t8 -29l-84 -596h273l84 596q2 16 16 28.5t30 12.5t26 -12t8 -29l-84 -596h40q16 0 26.5 -12t8.5 -28l-22 -157q-2 -16 -16 -28.5t-30 -12.5t-26 12.5t-8 28.5l17 119h-394z" />
    <glyph glyph-name="uni0427" unicode="&#x427;" horiz-adv-x="547" 
d="M445 365l43 308q2 17 16 29.5t30 12.5t26 -12.5t8 -29.5l-90 -641q-2 -17 -16 -29.5t-30 -12.5t-26 12.5t-8 29.5l36 254q-64 -26 -134 -26q-100 0 -147 57.5t-32 163.5l27 192q2 17 16 29.5t30 12.5t26 -12.5t8 -29.5l-27 -191q-11 -77 18 -110.5t99 -33.5q72 0 127 27z
" />
    <glyph glyph-name="uni0428" unicode="&#x428;" horiz-adv-x="760" 
d="M781 674l-89 -634q-2 -16 -16 -28t-30 -12h-533q-16 0 -26 12t-8 28l89 634q2 17 16 29t30 12t26 -12t8 -29l-84 -596h186l84 597q2 16 16 28t30 12t26 -12t8 -28l-84 -597h187l84 596q2 16 16 28.5t30 12.5t26 -12t8 -29z" />
    <glyph glyph-name="uni0429" unicode="&#x429;" horiz-adv-x="784" 
d="M781 674l-84 -596h40q16 0 26.5 -12t8.5 -28l-22 -157q-2 -17 -16 -29t-30 -12t-26 12.5t-8 28.5l17 119h-574q-16 0 -26 12t-8 28l89 634q2 17 16 29t30 12t26 -12t8 -29l-84 -596h186l84 597q2 16 16 28t30 12t26 -12t8 -28l-84 -597h187l84 596q2 16 16 28.5t30 12.5
t26 -12t8 -29z" />
    <glyph glyph-name="uni042A" unicode="&#x42a;" horiz-adv-x="654" 
d="M198 48l82 580h-137q-15 0 -24.5 10t-9.5 24q0 18 13.5 31t31.5 13h172q19 0 30 -14t9 -31l-30 -215h114q93 0 145 -48.5t52 -137.5q0 -50 -14 -94.5t-43.5 -82.5t-81.5 -60.5t-120 -22.5h-147q-19 0 -31.5 14t-10.5 34zM283 78h115q42 0 73.5 12t49 29t28 42t14 46
t3.5 44q0 117 -128 117h-115z" />
    <glyph glyph-name="uni042B" unicode="&#x42b;" horiz-adv-x="725" 
d="M215 446h116q92 0 144.5 -48.5t52.5 -137.5q0 -50 -14.5 -94.5t-43.5 -82.5t-81 -60.5t-121 -22.5h-147q-20 0 -32 14.5t-9 33.5l88 625q2 17 15.5 29.5t29.5 12.5t26 -12.5t8 -29.5zM205 368l-41 -290h115q52 0 87.5 16.5t52 45t22.5 55t6 56.5q0 117 -127 117h-115z
M575 30l91 645q2 16 15.5 28t29.5 12t26.5 -12t8.5 -28l-91 -645q-2 -16 -15.5 -28t-29.5 -12t-26.5 12t-8.5 28z" />
    <glyph glyph-name="uni042C" unicode="&#x42c;" horiz-adv-x="535" 
d="M215 446h116q92 0 144.5 -48.5t52.5 -137.5q0 -50 -14.5 -94.5t-43.5 -82.5t-81 -60.5t-121 -22.5h-147q-20 0 -32 14.5t-9 33.5l88 625q2 17 15.5 29.5t29.5 12.5t26 -12.5t8 -29.5zM205 368l-41 -290h115q52 0 87.5 16.5t52 45t22.5 55t6 56.5q0 117 -127 117h-115z
" />
    <glyph glyph-name="uni042D" unicode="&#x42d;" horiz-adv-x="498" 
d="M516 460l-30 -214q-17 -119 -83 -187t-178 -68q-66 0 -115.5 24.5t-49.5 57.5q0 16 12 27.5t29 11.5q6 0 10.5 -1.5t12 -7l11.5 -8.5q40 -31 96 -31q81 0 121.5 46.5t53.5 135.5l10 68h-186q-15 0 -24 10t-9 25q0 18 13.5 31t30.5 13h186l9 67q12 89 -15.5 135.5
t-108.5 46.5q-54 0 -105 -31q-26 -17 -38 -17q-14 0 -22.5 9t-8.5 22q0 36 58.5 63t130.5 27q112 0 159 -68t30 -187z" />
    <glyph glyph-name="uni042E" unicode="&#x42e;" horiz-adv-x="758" 
d="M491 -10q-105 0 -152.5 69.5t-32.5 176.5l11 79h-120l-40 -284q-2 -17 -16 -29t-30 -12t-26 12t-8 29l91 644q2 16 15.5 28t29.5 12t26.5 -12t8.5 -28l-40 -283h120l11 78q15 109 78.5 177t175.5 68t156.5 -68t29.5 -177l-33 -234q-15 -107 -82.5 -176.5t-172.5 -69.5z
M582 637q-140 0 -163 -167l-33 -234q-11 -77 17.5 -122.5t98.5 -45.5t111.5 45.5t52.5 122.5l33 234q23 167 -117 167z" />
    <glyph glyph-name="uni042F" unicode="&#x42f;" horiz-adv-x="561" 
d="M139 476q0 42 13 80.5t40 73.5t77.5 55.5t117.5 20.5h154q19 0 31 -14.5t9 -33.5l-88 -626q-2 -17 -15.5 -29.5t-29.5 -12.5t-26.5 12.5t-8.5 29.5l39 278h-96l-218 -300q-14 -19 -36 -19q-12 0 -25 11t-13 24t9 26l196 263q-62 13 -96 54.5t-34 106.5zM219 486
q0 -48 31.5 -73.5t90.5 -25.5h122l33 241h-116q-49 0 -83 -13.5t-50 -36.5t-22 -45t-6 -47z" />
    <glyph glyph-name="uni0430" unicode="&#x430;" horiz-adv-x="482" 
d="M302 514q89 0 122.5 -51t19.5 -151l-31 -220q-5 -30 14 -30q1 0 3.5 0.5t4.5 0.5q25 0 25 -29q0 -20 -15 -29.5t-35 -9.5q-50 0 -67 46q-82 -49 -144 -49q-73 0 -106.5 51.5t-21.5 137.5l18 127q14 95 66 150.5t147 55.5zM337 105l33 233q8 54 -12 79t-71 25
q-56 0 -83 -31t-37 -103l-18 -127q-17 -119 76 -119q55 0 112 43z" />
    <glyph glyph-name="uni0431" unicode="&#x431;" horiz-adv-x="465" 
d="M112 477q14 97 69 151.5t159 64.5q8 1 18.5 1.5t15.5 1t15 3t24 8t35 14.5q6 3 15 3q13 0 21.5 -9t8.5 -23q0 -56 -161 -68q-18 -2 -30 -4t-32.5 -10.5t-34 -22.5t-26.5 -41t-18 -64l-7 -51q50 55 131 55q79 0 118.5 -50.5t28.5 -127.5l-19 -138q-11 -78 -67 -128
t-145 -50t-131 50t-31 128zM241 64q53 0 85 28t39 78l19 139q15 105 -89 105q-52 0 -86 -26.5t-42 -73.5l-20 -144q-7 -50 17 -78t77 -28z" />
    <glyph glyph-name="uni0432" unicode="&#x432;" horiz-adv-x="468" 
d="M465 385q0 -95 -87 -127q66 -25 66 -97q0 -76 -56.5 -122.5t-150.5 -46.5q-95 0 -137 49.5t-31 128.5l24 167q11 78 69 128t150 50q74 0 113.5 -35.5t39.5 -94.5zM250 64q117 0 117 94q0 65 -92 65h-121l-7 -53q-14 -106 103 -106zM171 338l-7 -49h123q100 0 100 84
q0 70 -89 70q-112 0 -127 -105z" />
    <glyph glyph-name="uni0433" unicode="&#x433;" horiz-adv-x="406" 
d="M409 391q0 -36 -11.5 -64.5t-29 -45t-43 -30.5t-48 -21t-49 -16.5t-41.5 -16.5q-46 -24 -46 -73q0 -63 82 -63q40 0 103 23q6 2 11 2q15 0 23.5 -9.5t8.5 -22.5q0 -23 -29.5 -37.5t-62 -19.5t-64.5 -5q-73 0 -111 33t-38 91q0 43 13.5 74t39.5 50t49 29.5t58.5 22.5
t51.5 19q33 16 45 31.5t12 43.5q0 59 -80 59q-38 0 -78 -18q-10 -5 -19 -5q-14 0 -22.5 9.5t-8.5 22.5q0 30 45 45t96 15q69 0 106 -33.5t37 -89.5z" />
    <glyph glyph-name="uni0434" unicode="&#x434;" horiz-adv-x="500" 
d="M297 653q-6 1 -9.5 1.5t-9 4t-5.5 10t1 18.5q4 17 16 24.5t42 7.5q93 0 144 -72.5t39 -209.5q-21 -253 -77 -350t-181 -97q-95 0 -141.5 53.5t-46.5 143.5q0 121 64 205.5t169 84.5q85 0 135 -47q31 206 -140 223zM418 281l10 68q-19 25 -56.5 40.5t-72.5 15.5
q-68 0 -109.5 -57t-41.5 -150q0 -61 28 -97.5t88 -36.5q69 0 103 50.5t51 166.5z" />
    <glyph glyph-name="uni0435" unicode="&#x435;" horiz-adv-x="433" 
d="M241 61q43 0 108 28q6 3 14 3q13 0 21.5 -9.5t8.5 -21.5q0 -18 -18.5 -32.5t-46.5 -22t-55.5 -11t-50.5 -3.5q-83 0 -124 46.5t-31 119.5l27 187q11 75 65.5 122t140.5 47q72 0 109 -36t37 -100q0 -82 -47 -128.5t-145 -46.5q-50 0 -101 9l-8 -59q-6 -43 18.5 -67.5
t77.5 -24.5zM368 369q0 74 -80 74q-48 0 -79 -24.5t-37 -66.5l-11 -76q52 -7 105 -7q102 0 102 100z" />
    <glyph glyph-name="uni0436" unicode="&#x436;" horiz-adv-x="608" 
d="M347 31q-2 -17 -15 -28t-29 -11q-17 0 -26.5 11.5t-7.5 27.5l28 197h-37l-165 -217q-16 -19 -34 -19q-15 0 -24 8t-9 22q0 16 9 26l154 203l-97 203q-4 7 -2 23q7 33 41 33q21 0 30 -19l93 -197h50l25 178q2 16 15 27.5t29 11.5t26 -11.5t8 -27.5l-25 -178h49l150 197
q12 19 34 19q15 0 24 -8t9 -22q0 -16 -9 -26l-154 -203l96 -203q5 -10 3 -23q-7 -33 -41 -33q-21 0 -30 19l-103 217h-37z" />
    <glyph glyph-name="uni0437" unicode="&#x437;" horiz-adv-x="408" 
d="M408 391q0 -113 -113 -133q90 -17 90 -102q0 -75 -49.5 -119.5t-143.5 -44.5q-51 0 -98.5 13t-47.5 42q0 14 11.5 26.5t33.5 12.5q4 0 8 -2q55 -23 106 -23q104 0 104 91q0 64 -107 70q-44 2 -44 29q0 17 10 25.5t16.5 9.5t24.5 3q68 5 95.5 33.5t27.5 64.5q0 58 -83 58
q-42 0 -86 -18q-12 -5 -19 -5q-14 0 -22.5 9t-8.5 22q0 31 47.5 46t100.5 15q72 0 109.5 -33t37.5 -90z" />
    <glyph glyph-name="uni0438" unicode="&#x438;" horiz-adv-x="509" 
d="M370 123l49 350q2 17 13.5 27.5t30.5 10.5t27.5 -10.5t6.5 -27.5l-49 -350q-3 -20 -3 -33t1 -16.5t5 -11.5t5 -9q4 -12 4 -17q0 -15 -12.5 -26.5t-29.5 -11.5q-24 0 -39 30q-68 -36 -147 -36q-78 0 -111 51t-21 138l41 292q2 16 14 27t30 11t27 -11t7 -27l-41 -292
q-8 -57 11 -88t64 -31q58 0 115 33q0 12 2 28z" />
    <glyph glyph-name="uni0439" unicode="&#x439;" horiz-adv-x="509" 
d="M370 123l49 350q2 17 13.5 27.5t30.5 10.5t27.5 -10.5t6.5 -27.5l-49 -350q-3 -20 -3 -33t1 -16.5t5 -11.5t5 -9q4 -12 4 -17q0 -15 -12.5 -26.5t-29.5 -11.5q-24 0 -39 30q-68 -36 -147 -36q-78 0 -111 51t-21 138l41 292q2 16 14 27t30 11t27 -11t7 -27l-41 -292
q-8 -57 11 -88t64 -31q58 0 115 33q0 12 2 28zM344 633q36 0 70 41q13 16 33 16q14 0 21 -9.5t0 -27.5q-15 -38 -55 -59.5t-78 -21.5t-72 21.5t-38 59.5q-2 18 8 27.5t24 9.5q18 0 27 -16q22 -41 60 -41z" />
    <glyph glyph-name="uni043A" unicode="&#x43a;" horiz-adv-x="436" 
d="M155 31q-2 -17 -15 -28t-29 -11q-17 0 -26.5 11.5t-7.5 27.5l62 441q2 16 15.5 27.5t29.5 11.5t25.5 -11.5t7.5 -27.5l-25 -178h62l157 197q15 19 34 19q14 0 23.5 -8.5t9.5 -21.5q0 -16 -9 -26l-166 -203l108 -203q5 -10 3 -23q-7 -33 -41 -33q-20 0 -30 19l-112 217
h-48z" />
    <glyph glyph-name="uni043B" unicode="&#x43b;" horiz-adv-x="524" 
d="M456 31q-2 -16 -15 -27.5t-30 -11.5q-16 0 -25.5 11t-7.5 28l57 408h-159l-61 -276q-37 -168 -143 -168q-18 0 -28.5 1t-19.5 8t-9 20q0 22 13 33t30 11q3 0 6 -0.5t7 -0.5q26 0 42 21.5t27 68.5l70 309q5 20 17.5 29.5t25.5 9.5h230q16 0 26 -11.5t8 -27.5z" />
    <glyph glyph-name="uni043C" unicode="&#x43c;" horiz-adv-x="640" 
d="M331 83h-2q-24 0 -34 24l-97 235l-44 -311q-2 -16 -15.5 -27.5t-29.5 -11.5t-25 11.5t-7 27.5l62 438q2 18 15.5 30t31.5 12q26 0 37 -26l122 -299l206 299q18 26 43 26q18 0 28.5 -12t8.5 -30l-62 -438q-2 -16 -15.5 -27.5t-28.5 -11.5q-16 0 -25.5 11.5t-7.5 27.5
l44 311l-163 -235q-16 -24 -42 -24z" />
    <glyph glyph-name="uni043D" unicode="&#x43d;" horiz-adv-x="514" 
d="M155 31q-2 -17 -15 -28t-29 -11q-17 0 -26.5 11.5t-7.5 27.5l62 441q2 16 15.5 27.5t29.5 11.5t25.5 -11.5t7.5 -27.5l-25 -178h212l25 178q2 16 15.5 27.5t29.5 11.5t25.5 -11.5t7.5 -27.5l-62 -441q-2 -17 -15 -28t-29 -11q-17 0 -26.5 11.5t-7.5 27.5l28 197h-212z
" />
    <glyph glyph-name="uni043E" unicode="&#x43e;" horiz-adv-x="465" 
d="M231 -8q-89 0 -131 50t-31 128l24 167q11 78 67 128t145 50t131 -50t31 -128l-24 -167q-11 -78 -67 -128t-145 -50zM241 64q53 0 85 28t39 78l24 168q7 49 -17.5 77t-77.5 28t-84.5 -27.5t-38.5 -77.5l-24 -168q-7 -50 17 -78t77 -28z" />
    <glyph glyph-name="uni043F" unicode="&#x43f;" horiz-adv-x="504" 
d="M155 31q-2 -17 -15 -28t-29 -11q-17 0 -26.5 11.5t-7.5 27.5l61 435q2 16 15.5 27.5t29.5 11.5h280q16 0 25.5 -11.5t7.5 -27.5l-61 -435q-2 -17 -15 -28t-29 -11q-17 0 -26.5 11.5t-7.5 27.5l57 408h-202z" />
    <glyph glyph-name="uni0440" unicode="&#x440;" horiz-adv-x="478" 
d="M265 -7q-54 0 -108 19l-27 -189q-2 -16 -14 -27t-30 -11t-27 11t-7 27l77 546q7 45 -6 70q-5 8 -5 16q0 16 13 27.5t27 11.5q22 0 36 -24q88 44 152 44q77 0 111 -51.5t22 -137.5l-19 -130q-14 -96 -59.5 -149t-135.5 -53zM207 369l-40 -287q41 -21 97 -21q54 0 81 31.5
t37 102.5l19 130q17 119 -81 119q-53 0 -113 -34q2 -29 0 -41z" />
    <glyph glyph-name="uni0441" unicode="&#x441;" horiz-adv-x="390" 
d="M70 176l21 151q11 82 63 133t142 51q45 0 87.5 -14t42.5 -43q0 -15 -11.5 -26.5t-27.5 -11.5q-10 0 -15 3q-48 23 -78 23q-109 0 -125 -115l-22 -151q-16 -115 93 -115q31 0 85 23q6 3 16 3q13 0 21.5 -9t8.5 -21q0 -33 -49.5 -49t-98.5 -16q-90 0 -127.5 51t-25.5 133z
" />
    <glyph glyph-name="uni0442" unicode="&#x442;" horiz-adv-x="778" 
d="M638 94l35 248q6 44 -13.5 72t-63.5 28q-32 0 -64 -15t-54 -38q2 -24 -1 -45l-44 -313q-2 -17 -13.5 -27.5t-30.5 -10.5t-27.5 10.5t-6.5 27.5l41 290q4 36 3 63t-18 42.5t-51 15.5q-63 0 -122 -40q0 -22 -1 -31l-48 -340q-2 -17 -13.5 -27.5t-30.5 -10.5t-27.5 10.5
t-6.5 27.5l48 340q3 20 3 33t-1 16.5t-5 11.5t-5 9q-5 15 -5 17q0 16 12.5 27t29.5 11q24 0 37 -27q76 45 152 45q77 0 109 -51q73 51 152 51t116.5 -46.5t26.5 -123.5l-35 -250q-5 -33 7 -47q5 -8 5 -16q0 -16 -12.5 -27.5t-29.5 -11.5q-63 0 -48 102z" />
    <glyph glyph-name="uni0443" unicode="&#x443;" horiz-adv-x="509" 
d="M377 107l51 366q2 16 14 27t31 11q38 0 33 -38l-72 -513q-11 -82 -63 -133t-141 -51q-46 0 -88.5 14t-42.5 43q0 15 11.5 26.5t27.5 11.5q8 0 15 -3q44 -23 78 -23q109 0 125 115l10 70q-63 -37 -133 -37q-160 0 -134 182l41 298q2 16 14.5 27t30.5 11t26.5 -11t6.5 -27
l-41 -298q-16 -114 82 -114q69 0 118 46z" />
    <glyph glyph-name="uni0444" unicode="&#x444;" horiz-adv-x="585" 
d="M228 -176l24 168q-100 0 -145.5 63.5t-30.5 164.5l11 76q14 97 76.5 157.5t161.5 60.5l24 172q2 16 15 27.5t29 11.5q17 0 26.5 -11.5t7.5 -27.5l-24 -172h2q99 0 144.5 -61t31.5 -157l-11 -76q-15 -101 -77.5 -164.5t-161.5 -63.5h-1l-24 -168q-2 -16 -15 -27.5
t-30 -11.5q-16 0 -25.5 11.5t-7.5 27.5zM394 442h-2l-53 -378h2q63 0 101.5 41t49.5 115l11 77q10 68 -18 106.5t-91 38.5zM261 64l53 378q-63 0 -101 -38.5t-48 -106.5l-11 -77q-11 -73 16.5 -114.5t90.5 -41.5z" />
    <glyph glyph-name="uni0445" unicode="&#x445;" horiz-adv-x="431" 
d="M297 258l111 -208q3 -6 3 -13q0 -18 -13.5 -31.5t-32.5 -13.5q-13 0 -20 6t-14 21l-89 174l-143 -181q-16 -20 -35 -20q-15 0 -25 9.5t-10 24.5q0 12 8 22l169 208l-103 198q-4 8 -4 14q0 16 13.5 29.5t31.5 13.5q10 0 18.5 -6.5t11.5 -11.5t9 -16l79 -155l128 163
q20 26 41 26q13 0 23 -9.5t10 -23.5q0 -13 -8 -23z" />
    <glyph glyph-name="uni0446" unicode="&#x446;" horiz-adv-x="531" 
d="M253 62q60 0 120 35q-3 27 2 64l44 312q2 17 13.5 27.5t30.5 10.5t27.5 -10.5t6.5 -27.5l-44 -312q-14 -99 38 -99q17 0 26.5 -11.5t7.5 -27.5l-18 -128q-2 -16 -15 -27.5t-30 -11.5q-16 0 -25.5 11t-7.5 28l15 110q-26 6 -50 32l1 -1q-76 -44 -163 -44q-78 0 -111 51
t-21 138l41 292q2 16 14 27t30 11t27 -11t7 -27l-41 -292q-8 -57 11 -88t64 -31z" />
    <glyph glyph-name="uni0447" unicode="&#x447;" horiz-adv-x="468" 
d="M190 472l-20 -141q-5 -37 9.5 -59.5t66.5 -22.5q36 0 108 14l29 209q2 16 15 27.5t29 11.5t26 -11.5t8 -27.5l-62 -441q-2 -16 -15 -27.5t-30 -11.5q-16 0 -25.5 11t-7.5 28l23 166q-58 -14 -104 -14q-169 0 -148 148l20 141q2 16 15 27.5t29 11.5t26 -11.5t8 -27.5z" />
    <glyph glyph-name="uni0448" unicode="&#x448;" horiz-adv-x="772" 
d="M217 473l-44 -312q-6 -44 13.5 -72t63.5 -28q31 0 63 15t54 37q-1 18 2 46l44 314q2 16 14.5 27t30.5 11t26.5 -11t6.5 -27l-41 -291q-4 -36 -3 -63t18 -42.5t51 -15.5q61 0 118 38l53 374q2 16 14.5 27t30.5 11t26.5 -11t6.5 -27l-50 -359q-5 -34 17 -60q5 -7 5 -15
q0 -17 -12.5 -28.5t-27.5 -11.5q-32 0 -49 32q-74 -42 -149 -42q-77 0 -109 50q-76 -50 -152 -50q-79 0 -116.5 46.5t-26.5 123.5l44 314q2 16 14.5 27t30.5 11t26.5 -11t6.5 -27z" />
    <glyph glyph-name="uni0449" unicode="&#x449;" horiz-adv-x="805" 
d="M217 473l-44 -312q-6 -44 13.5 -72t63.5 -28q70 0 118 45q-3 26 1 53l44 314q2 16 14.5 27t30.5 11t26.5 -11t6.5 -27l-41 -291q-4 -36 -3 -63t18 -42.5t51 -15.5q65 0 125 41q-2 32 2 59l44 312q2 16 14 27t31 11q38 0 33 -38l-44 -312q-14 -99 39 -99q16 0 25.5 -11
t7.5 -28l-18 -128q-2 -17 -15 -28t-29 -11q-17 0 -26.5 11.5t-7.5 27.5l15 110q-30 7 -51 34q-79 -50 -162 -50q-77 0 -109 50q-76 -50 -152 -50q-79 0 -116.5 46.5t-26.5 123.5l44 314q2 16 14.5 27t30.5 11t26.5 -11t6.5 -27z" />
    <glyph glyph-name="uni044A" unicode="&#x44a;" horiz-adv-x="528" 
d="M311 -8q-87 0 -126.5 49.5t-28.5 128.5l37 265h-86q-13 0 -22 8.5t-9 22.5q0 16 12.5 27.5t28.5 11.5h125q16 0 26 -11.5t8 -27.5l-24 -171q46 29 106 29q84 0 125.5 -47.5t30.5 -121.5q-11 -72 -65.5 -117.5t-137.5 -45.5zM342 252q-94 0 -105 -66l-3 -16q-8 -50 14 -78
t73 -28q54 0 85.5 29.5t31.5 79.5q0 79 -96 79z" />
    <glyph glyph-name="uni044B" unicode="&#x44b;" horiz-adv-x="654" 
d="M217 472l-25 -177q47 29 107 29q84 0 125.5 -47.5t30.5 -121.5q-11 -72 -65.5 -117.5t-137.5 -45.5q-87 0 -126.5 49.5t-28.5 128.5l42 302q2 16 15.5 27.5t29.5 11.5t25.5 -11.5t7.5 -27.5zM584 31q-2 -17 -15 -28t-29 -11q-17 0 -26.5 11.5t-7.5 27.5l62 441
q2 16 15.5 27.5t29.5 11.5t25.5 -11.5t7.5 -27.5zM283 252q-45 0 -73 -16.5t-32 -46.5l-3 -19q-8 -50 14 -78t73 -28q54 0 85.5 29.5t31.5 79.5q0 79 -96 79z" />
    <glyph glyph-name="uni044C" unicode="&#x44c;" horiz-adv-x="472" 
d="M217 472l-25 -177q47 29 107 29q84 0 125.5 -47.5t30.5 -121.5q-11 -72 -65.5 -117.5t-137.5 -45.5q-87 0 -126.5 49.5t-28.5 128.5l42 302q2 16 15.5 27.5t29.5 11.5t25.5 -11.5t7.5 -27.5zM283 252q-45 0 -73.5 -17.5t-32.5 -48.5l-2 -16q-13 -106 87 -106
q54 0 85.5 29.5t31.5 79.5q0 79 -96 79z" />
    <glyph glyph-name="uni044D" unicode="&#x44d;" horiz-adv-x="393" 
d="M300 219h-153q-14 0 -23 8.5t-9 22.5q0 16 12 27.5t29 11.5h153l4 28q17 125 -81 125q-38 0 -94 -23q-9 -3 -17 -3q-12 0 -20.5 9t-8.5 21q0 33 52.5 49t105.5 16q84 0 118.5 -53.5t22.5 -140.5l-18 -131q-12 -87 -61.5 -140.5t-134.5 -53.5q-49 0 -95 14t-46 43
q0 15 11.5 26.5t27.5 11.5q7 0 16 -3q50 -23 87 -23q98 0 117 125z" />
    <glyph glyph-name="uni044E" unicode="&#x44e;" horiz-adv-x="681" 
d="M155 31q-2 -17 -15 -28t-29 -11q-17 0 -26.5 11.5t-7.5 27.5l62 441q2 16 15.5 27.5t29.5 11.5t25.5 -11.5t7.5 -27.5l-25 -178h110l6 42q11 78 67 128t145 50t131 -50t31 -128l-23 -166q-11 -78 -67 -128t-145 -50t-131 50t-31 128l8 58h-110zM457 64q53 0 85 28t39 78
l23 167q7 50 -17 77.5t-77 27.5t-85 -27.5t-39 -77.5l-23 -167q-7 -50 17 -78t77 -28z" />
    <glyph glyph-name="uni044F" unicode="&#x44f;" horiz-adv-x="487" 
d="M373 -8q-16 0 -26 11.5t-8 27.5l25 175h-88l-156 -195q-16 -19 -34 -19q-15 0 -24 8t-9 22q0 16 9 26l133 164q-93 21 -93 120q0 79 49 126t140 47h154q16 0 25.5 -11.5t7.5 -27.5l-61 -435q-2 -16 -15 -27.5t-29 -11.5zM179 341q0 -69 92 -69h102l23 166h-113
q-104 0 -104 -97z" />
    <glyph glyph-name="uni0450" unicode="&#x450;" horiz-adv-x="433" 
d="M241 61q-53 0 -77.5 24.5t-18.5 67.5l8 59q51 -9 101 -9q98 0 145 46.5t47 128.5q0 64 -37 100t-109 36q-86 0 -140.5 -47t-65.5 -122l-27 -187q-10 -73 31 -119.5t124 -46.5q23 0 50.5 3.5t55.5 11t46.5 22t18.5 32.5q0 12 -8.5 21.5t-21.5 9.5q-8 0 -14 -3
q-65 -28 -108 -28zM368 369q0 -100 -102 -100q-53 0 -105 7l11 76q6 42 37 66.5t79 24.5q80 0 80 -74zM286 705l66 -81q4 -4 4 -12q0 -16 -12 -27t-27 -11q-14 0 -29 18l-69 86q-3 4 -3 13q0 15 12 26t24 11q6 0 11.5 -2t7.5 -4t7.5 -8.5t7.5 -8.5z" />
    <glyph glyph-name="uni0451" unicode="&#x451;" horiz-adv-x="433" 
d="M241 61q-53 0 -77.5 24.5t-18.5 67.5l8 59q51 -9 101 -9q98 0 145 46.5t47 128.5q0 64 -37 100t-109 36q-86 0 -140.5 -47t-65.5 -122l-27 -187q-10 -73 31 -119.5t124 -46.5q23 0 50.5 3.5t55.5 11t46.5 22t18.5 32.5q0 12 -8.5 21.5t-21.5 9.5q-8 0 -14 -3
q-65 -28 -108 -28zM368 369q0 -100 -102 -100q-53 0 -105 7l11 76q6 42 37 66.5t79 24.5q80 0 80 -74zM459 644q0 -22 -16.5 -38t-37.5 -16q-18 0 -30 13t-12 31q0 20 17 36t38 16q18 0 29.5 -12t11.5 -30zM290 644q0 -22 -16.5 -38t-38.5 -16q-18 0 -29 12.5t-11 30.5
q0 21 16 37t37 16q19 0 30.5 -12t11.5 -30z" />
    <glyph glyph-name="uni0452" unicode="&#x452;" horiz-adv-x="582" 
d="M432 21l39 276q17 114 -71 114q-74 0 -124 -57l-45 -323q-2 -17 -15 -28t-29 -11t-25.5 11t-7.5 28l76 539h-88q-14 0 -23 9t-9 23q0 16 13 28.5t30 12.5h86l7 49q2 15 15 27t29 12t25.5 -11t7.5 -28l-7 -49h86q13 0 22 -9.5t9 -23.5q0 -16 -12.5 -28t-29.5 -12h-85
l-18 -128q61 42 131 42q77 0 109.5 -50.5t20.5 -135.5l-38 -273q-13 -96 -58.5 -155t-114.5 -72q-8 -1 -19 -1q-27 0 -30 26q-2 18 10 29t26 14q44 12 70.5 48.5t36.5 106.5z" />
    <glyph glyph-name="uni0453" unicode="&#x453;" horiz-adv-x="406" 
d="M409 391q0 56 -37 89.5t-106 33.5q-51 0 -96 -15t-45 -45q0 -13 8.5 -22.5t22.5 -9.5q9 0 19 5q40 18 78 18q80 0 80 -59q0 -28 -12 -43.5t-45 -31.5q-16 -7 -51.5 -19t-58.5 -22.5t-49 -29.5t-39.5 -50t-13.5 -74q0 -58 38 -91t111 -33q23 0 47.5 3t50 9.5t42 19.5
t16.5 30q0 13 -8.5 22.5t-23.5 9.5q-5 0 -11 -2q-63 -23 -103 -23q-82 0 -82 63q0 49 46 73q15 7 41.5 16.5t49 16.5t48 21t43 30.5t29 45t11.5 64.5zM242 624l89 81q3 2 8 7t7.5 7t6.5 4.5t8.5 3.5t9.5 1q10 0 18.5 -8.5t8.5 -20.5q0 -14 -8 -21l-93 -86q-19 -18 -35 -18
q-12 0 -20 8.5t-8 21.5q0 12 8 20z" />
    <glyph glyph-name="uni0454" unicode="&#x454;" horiz-adv-x="390" 
d="M307 219h-153l-5 -33q-19 -125 82 -125q38 0 94 23q9 3 16 3q13 0 21.5 -9t8.5 -21q0 -33 -52.5 -49t-105.5 -16q-85 0 -120 53.5t-22 140.5l19 131q13 87 62.5 140.5t133.5 53.5q48 0 94.5 -14t46.5 -43q0 -15 -12 -26.5t-27 -11.5q-7 0 -16 3q-50 23 -88 23
q-99 0 -116 -125l-4 -28h153q13 0 22 -8.5t9 -22.5q0 -16 -12 -27.5t-29 -11.5z" />
    <glyph glyph-name="uni0455" unicode="&#x455;" horiz-adv-x="416" 
d="M103 350q0 73 49 118.5t135 45.5q46 0 86 -13t40 -39q0 -16 -12.5 -28t-29.5 -12q-7 0 -17 5q-36 18 -73 18q-100 0 -100 -80q0 -34 39 -54q13 -7 39.5 -17t44.5 -19t38 -23.5t30.5 -38t10.5 -54.5q0 -77 -49.5 -122t-140.5 -45q-50 0 -94.5 12.5t-44.5 41.5
q0 15 12 27.5t30 12.5q4 0 10 -2q56 -23 97 -23q48 0 75.5 21t27.5 64q0 35 -29 51q-12 7 -38 16.5t-47 19t-42.5 23.5t-34 38t-12.5 56z" />
    <glyph glyph-name="uni0456" unicode="&#x456;" horiz-adv-x="245" 
d="M265 674q0 -22 -16.5 -38t-38.5 -16q-18 0 -30 12.5t-12 30.5q0 22 16.5 37.5t38.5 15.5q19 0 30.5 -12t11.5 -30zM97 94l53 378q2 16 15 27.5t29 11.5t26 -11.5t8 -27.5l-53 -378q-5 -33 7 -47q5 -8 5 -16q0 -16 -12.5 -27.5t-29.5 -11.5q-63 0 -48 102z" />
    <glyph glyph-name="uni0457" unicode="&#x457;" horiz-adv-x="245" 
d="M356 625q0 -24 -18.5 -42t-42.5 -18q-20 0 -33 14t-13 34q0 23 18.5 40.5t42.5 17.5q20 0 33 -13t13 -33zM168 625q0 -25 -18 -42.5t-43 -17.5q-19 0 -32 14t-13 34q0 23 18 40.5t42 17.5q20 0 33 -13t13 -33zM96 94l53 378q2 16 15 27.5t29 11.5t26 -11.5t8 -27.5
l-53 -378q-5 -33 7 -47q5 -8 5 -16q0 -16 -12.5 -27.5t-29.5 -11.5q-63 0 -48 102z" />
    <glyph glyph-name="uni0458" unicode="&#x458;" horiz-adv-x="245" 
d="M240 472l-68 -487q-11 -79 -54.5 -128t-112.5 -59q-8 -1 -19 -1q-27 0 -30 26q-2 18 10 29t26 14q44 9 69 35.5t32 79.5l69 491q2 16 15.5 27.5t29.5 11.5t25.5 -11.5t7.5 -27.5zM277 674q0 -22 -16.5 -38t-38.5 -16q-18 0 -30 12.5t-12 30.5q0 22 16.5 37.5t39.5 15.5
q18 0 29.5 -12t11.5 -30z" />
    <glyph glyph-name="uni0459" unicode="&#x459;" horiz-adv-x="737" 
d="M468 505q16 0 26 -11.5t8 -27.5l-23 -167h81q160 0 160 -126q0 -79 -49 -126t-140 -47h-134q-16 0 -25.5 11.5t-7.5 27.5l56 400h-139l-61 -276q-37 -168 -143 -168q-18 0 -28.5 1t-19.5 8t-9 20q0 22 13 33t30 11q3 0 6 -0.5t7 -0.5q26 0 42 21.5t27 68.5l70 309
q5 20 17.5 29.5t25.5 9.5h210zM551 233h-82l-23 -166h93q104 0 104 97q0 69 -92 69z" />
    <glyph glyph-name="uni045A" unicode="&#x45a;" horiz-adv-x="722" 
d="M155 31q-2 -17 -15 -28t-29 -11q-17 0 -26.5 11.5t-7.5 27.5l62 441q2 16 15.5 27.5t29.5 11.5t25.5 -11.5t7.5 -27.5l-25 -178h192l25 178q2 16 15.5 27.5t29.5 11.5t25.5 -11.5t7.5 -27.5l-25 -178h92q151 0 151 -121q0 -78 -46.5 -125.5t-132.5 -47.5h-144
q-16 0 -26 11.5t-8 27.5l27 189h-192zM545 228h-92l-23 -161h103q94 0 94 97q0 64 -82 64z" />
    <glyph glyph-name="uni045B" unicode="&#x45b;" horiz-adv-x="582" 
d="M442 94l32 223q14 94 -74 94q-74 0 -124 -57l-45 -323q-2 -17 -15 -28t-29 -11t-25.5 11t-7.5 28l76 539h-88q-14 0 -23 9t-9 23q0 16 13 28.5t30 12.5h86l7 49q2 15 15 27t29 12t25.5 -11t7.5 -28l-7 -49h86q13 0 22 -9.5t9 -23.5q0 -16 -12.5 -28t-29.5 -12h-85
l-18 -128q61 42 131 42q78 0 111 -45t22 -121l-32 -224q-4 -32 8 -47q4 -6 4 -16q0 -16 -12 -27.5t-29 -11.5q-64 0 -49 102z" />
    <glyph glyph-name="uni045C" unicode="&#x45c;" horiz-adv-x="436" 
d="M155 31q-2 -17 -15 -28t-29 -11q-17 0 -26.5 11.5t-7.5 27.5l62 441q2 16 15.5 27.5t29.5 11.5t25.5 -11.5t7.5 -27.5l-25 -178h62l157 197q15 19 34 19q14 0 23.5 -8.5t9.5 -21.5q0 -16 -9 -26l-166 -203l108 -203q5 -10 3 -23q-7 -33 -41 -33q-20 0 -30 19l-112 217
h-48zM302 624l89 81q3 2 8 7t7.5 7t6.5 4.5t8.5 3.5t9.5 1q10 0 18.5 -8.5t8.5 -20.5q0 -14 -8 -21l-93 -86q-19 -18 -35 -18q-12 0 -20 8.5t-8 21.5q0 12 8 20z" />
    <glyph glyph-name="uni045D" unicode="&#x45d;" horiz-adv-x="530" 
d="M370 123l49 350q2 17 13.5 27.5t30.5 10.5t27.5 -10.5t6.5 -27.5l-49 -350q-3 -20 -3 -33t1 -16.5t5 -11.5t5 -9q4 -12 4 -17q0 -15 -12.5 -26.5t-29.5 -11.5q-24 0 -39 30q-68 -36 -147 -36q-78 0 -111 51t-21 138l41 292q2 16 14 27t30 11t27 -11t7 -27l-41 -292
q-8 -57 11 -88t64 -31q58 0 115 33q0 12 2 28zM332 705l66 -81q4 -4 4 -12q0 -16 -12 -27t-27 -11q-14 0 -29 18l-69 86q-3 4 -3 13q0 15 12 26t24 11q6 0 11.5 -2t7.5 -4t7.5 -8.5t7.5 -8.5z" />
    <glyph glyph-name="uni045E" unicode="&#x45e;" horiz-adv-x="509" 
d="M377 107l51 366q2 16 14 27t31 11q38 0 33 -38l-72 -513q-11 -82 -63 -133t-141 -51q-46 0 -88.5 14t-42.5 43q0 15 11.5 26.5t27.5 11.5q8 0 15 -3q44 -23 78 -23q109 0 125 115l10 70q-63 -37 -133 -37q-160 0 -134 182l41 298q2 16 14.5 27t30.5 11t26.5 -11t6.5 -27
l-41 -298q-16 -114 82 -114q69 0 118 46zM344 633q36 0 70 41q13 16 33 16q14 0 21 -9.5t0 -27.5q-15 -38 -55 -59.5t-78 -21.5t-72 21.5t-38 59.5q-2 18 8 27.5t24 9.5q18 0 27 -16q22 -41 60 -41z" />
    <glyph glyph-name="uni045F" unicode="&#x45f;" horiz-adv-x="504" 
d="M277 -101q-2 -17 -15 -28t-29 -11q-17 0 -26.5 11.5t-7.5 27.5l14 101h-101q-16 0 -25.5 11.5t-7.5 27.5l61 435q2 16 15 27.5t30 11.5q16 0 25.5 -11t7.5 -28l-57 -408h202l57 408q2 16 15 27.5t30 11.5q16 0 25.5 -11t7.5 -28l-61 -435q-2 -16 -15.5 -27.5t-29.5 -11.5
h-101z" />
    <glyph glyph-name="uni0462" unicode="&#x462;" horiz-adv-x="644" 
d="M545 621q0 -17 -14.5 -30t-32.5 -13h-176l-21 -152h115q93 0 145.5 -46.5t52.5 -132.5q0 -47 -14 -89.5t-43.5 -78.5t-81 -57.5t-119.5 -21.5h-147q-20 0 -32.5 14.5t-9.5 33.5l74 530h-95q-15 0 -25 10.5t-10 23.5q0 16 14 30t32 14h96l10 69q2 16 15.5 28t29.5 12
t26.5 -12t8.5 -28l-10 -69h176q15 0 25.5 -10t10.5 -25zM252 78h115q51 0 86 15t51.5 41t22.5 50.5t6 53.5q0 110 -128 110h-115z" />
    <glyph glyph-name="uni0463" unicode="&#x463;" horiz-adv-x="582" 
d="M426 560q0 -16 -12.5 -28t-29.5 -12h-84l-24 -171h102q158 0 158 -139q0 -94 -50.5 -152t-143.5 -58h-154q-16 0 -25.5 11.5t-7.5 27.5l68 481h-88q-14 0 -23 9.5t-9 23.5q0 16 12.5 28t29.5 12h87l13 89q2 17 15 28t29 11q17 0 26.5 -11.5t7.5 -27.5l-13 -89h84
q14 0 23 -9.5t9 -23.5zM369 283h-102l-30 -216h113q52 0 80 34.5t28 98.5q0 83 -89 83z" />
    <glyph glyph-name="uni0490" unicode="&#x490;" horiz-adv-x="430" 
d="M166 661q2 17 17 31t34 14h231l13 91q2 16 16 28t30 12t26 -12t8 -28l-18 -130q-2 -16 -15 -27.5t-30 -11.5h-237l-84 -597q-2 -16 -15.5 -28t-29.5 -12t-26.5 12t-8.5 28z" />
    <glyph glyph-name="uni0491" unicode="&#x491;" horiz-adv-x="375" 
d="M365 505l14 97q2 16 15 27.5t30 11.5q16 0 25.5 -11t7.5 -28l-18 -128q-2 -17 -15 -28t-29 -11h-183l-57 -404q-2 -17 -15 -28t-29 -11q-17 0 -26.5 11.5t-7.5 27.5l62 439q2 15 14 25t27 10h185z" />
    <glyph glyph-name="Wgrave" unicode="&#x1e80;" horiz-adv-x="776" 
d="M510 47l-45 503l-187 -504q-22 -56 -61 -56q-40 0 -46 56l-62 619v3q0 20 16 31.5t35 11.5q29 0 32 -29l49 -533l187 508q12 31 24 44.5t36 13.5q22 0 31 -14.5t12 -43.5l45 -508l200 533q11 29 37 29q16 0 29.5 -8.5t13.5 -23.5q0 -3 -4 -15l-236 -618q-21 -56 -61 -56
q-41 0 -45 57zM507 905l66 -81q4 -4 4 -12q0 -16 -12 -27t-27 -11q-14 0 -29 18l-69 86q-3 4 -3 13q0 15 12 26t24 11q6 0 11.5 -2t7.5 -4t7.5 -8.5t7.5 -8.5z" />
    <glyph glyph-name="wgrave" unicode="&#x1e81;" horiz-adv-x="655" 
d="M694 465l-175 -428q-10 -24 -22.5 -34.5t-33.5 -10.5q-37 0 -42 34l-40 351l-139 -351q-14 -34 -51 -34q-38 0 -44 45l-56 431v3q0 15 13 27.5t31 12.5q29 0 32 -28l43 -368l141 361q14 35 49 35q34 0 38 -35q4 -44 41 -361l145 368q5 12 15.5 20t23.5 8q14 0 23.5 -10
t9.5 -24q0 -8 -2 -12zM419 705l66 -81q4 -4 4 -12q0 -16 -12 -27t-27 -11q-14 0 -29 18l-69 86q-3 4 -3 13q0 15 12 26t24 11q6 0 11.5 -2t7.5 -4t7.5 -8.5t7.5 -8.5z" />
    <glyph glyph-name="Wacute" unicode="&#x1e82;" horiz-adv-x="776" 
d="M510 47l-45 503l-187 -504q-22 -56 -61 -56q-40 0 -46 56l-62 619v3q0 20 16 31.5t35 11.5q29 0 32 -29l49 -533l187 508q12 31 24 44.5t36 13.5q22 0 31 -14.5t12 -43.5l45 -508l200 533q11 29 37 29q16 0 29.5 -8.5t13.5 -23.5q0 -3 -4 -15l-236 -618q-21 -56 -61 -56
q-41 0 -45 57zM433 824l89 81q3 2 8 7t7.5 7t6.5 4.5t8.5 3.5t9.5 1q10 0 18.5 -8.5t8.5 -20.5q0 -14 -8 -21l-93 -86q-19 -18 -35 -18q-12 0 -20 8.5t-8 21.5q0 12 8 20z" />
    <glyph glyph-name="wacute" unicode="&#x1e83;" horiz-adv-x="655" 
d="M694 465l-175 -428q-10 -24 -22.5 -34.5t-33.5 -10.5q-37 0 -42 34l-40 351l-139 -351q-14 -34 -51 -34q-38 0 -44 45l-56 431v3q0 15 13 27.5t31 12.5q29 0 32 -28l43 -368l141 361q14 35 49 35q34 0 38 -35q4 -44 41 -361l145 368q5 12 15.5 20t23.5 8q14 0 23.5 -10
t9.5 -24q0 -8 -2 -12zM345 624l89 81q3 2 8 7t7.5 7t6.5 4.5t8.5 3.5t9.5 1q10 0 18.5 -8.5t8.5 -20.5q0 -14 -8 -21l-93 -86q-20 -18 -35 -18q-12 0 -20 8.5t-8 21.5q0 12 8 20z" />
    <glyph glyph-name="Wdieresis" unicode="&#x1e84;" horiz-adv-x="776" 
d="M510 47l-45 503l-187 -504q-22 -56 -61 -56q-40 0 -46 56l-62 619v3q0 20 16 31.5t35 11.5q29 0 32 -29l49 -533l187 508q12 31 24 44.5t36 13.5q22 0 31 -14.5t12 -43.5l45 -508l200 533q11 29 37 29q16 0 29.5 -8.5t13.5 -23.5q0 -3 -4 -15l-236 -618q-21 -56 -61 -56
q-41 0 -45 57zM637 844q0 -22 -16.5 -38t-37.5 -16q-18 0 -30 13t-12 31q0 20 17 36t38 16q18 0 29.5 -12t11.5 -30zM468 844q0 -22 -16.5 -38t-38.5 -16q-18 0 -29 12.5t-11 30.5q0 21 16 37t37 16q19 0 30.5 -12t11.5 -30z" />
    <glyph glyph-name="wdieresis" unicode="&#x1e85;" horiz-adv-x="655" 
d="M694 465l-175 -428q-10 -24 -22.5 -34.5t-33.5 -10.5q-37 0 -42 34l-40 351l-139 -351q-14 -34 -51 -34q-38 0 -44 45l-56 431v3q0 15 13 27.5t31 12.5q29 0 32 -28l43 -368l141 361q14 35 49 35q34 0 38 -35q4 -44 41 -361l145 368q5 12 15.5 20t23.5 8q14 0 23.5 -10
t9.5 -24q0 -8 -2 -12zM549 644q0 -22 -16.5 -38t-37.5 -16q-18 0 -30 13t-12 31q0 20 17 36t38 16q18 0 29.5 -12t11.5 -30zM380 644q0 -22 -16.5 -38t-38.5 -16q-18 0 -29 12.5t-11 30.5q0 21 16 37t37 16q19 0 30.5 -12t11.5 -30z" />
    <glyph glyph-name="Ygrave" unicode="&#x1ef2;" horiz-adv-x="476" 
d="M236 -10q-17 0 -27 12.5t-8 29.5l35 245l-125 378q-2 8 -2 15q0 18 15 31.5t32 13.5q22 0 29 -16l105 -329l197 329q10 16 33 16q14 0 25 -11t11 -26q0 -9 -7 -23l-232 -380l-34 -243q-2 -17 -16 -29.5t-31 -12.5zM328 905l66 -81q4 -4 4 -12q0 -16 -12 -27t-27 -11
q-14 0 -29 18l-69 86q-3 4 -3 13q0 15 12 26t24 11q6 0 11.5 -2t7.5 -4t7.5 -8.5t7.5 -8.5z" />
    <glyph glyph-name="ygrave" unicode="&#x1ef3;" horiz-adv-x="509" 
d="M377 107l51 366q2 16 14 27t31 11q38 0 33 -38l-72 -513q-11 -82 -63 -133t-141 -51q-46 0 -88.5 14t-42.5 43q0 15 11.5 26.5t27.5 11.5q8 0 15 -3q44 -23 78 -23q109 0 125 115l10 70q-63 -37 -133 -37q-160 0 -134 182l41 298q2 16 14.5 27t30.5 11t26.5 -11t6.5 -27
l-41 -298q-16 -114 82 -114q69 0 118 46zM337 705l66 -81q4 -4 4 -12q0 -16 -12 -27t-27 -11q-14 0 -29 18l-69 86q-3 4 -3 13q0 15 12 26t24 11q6 0 11.5 -2t7.5 -4t7.5 -8.5t7.5 -8.5z" />
    <glyph glyph-name="endash" unicode="&#x2013;" horiz-adv-x="431" 
d="M432 287q0 -15 -11 -25.5t-26 -10.5h-280q-16 0 -26.5 10.5t-10.5 25.5t10.5 26t26.5 11h280q16 0 26.5 -11t10.5 -26z" />
    <glyph glyph-name="emdash" unicode="&#x2014;" horiz-adv-x="530" 
d="M532 287q0 -15 -11 -25.5t-26 -10.5h-380q-16 0 -26.5 10.5t-10.5 25.5t10.5 26t26.5 11h380q16 0 26.5 -11t10.5 -26z" />
    <glyph glyph-name="quoteleft" unicode="&#x2018;" horiz-adv-x="230" 
d="M139 555q0 43 38.5 106.5t61.5 63.5q17 0 17 -14q0 -18 -21 -47t-29 -48q19 -2 30 -15.5t11 -32.5q0 -25 -18.5 -42.5t-43.5 -17.5q-20 0 -33 13.5t-13 33.5z" />
    <glyph glyph-name="quoteright" unicode="&#x2019;" horiz-adv-x="230" 
d="M263 678q0 -44 -38 -107t-61 -63q-17 0 -17 14q0 18 21 47t29 48q-19 2 -30.5 15.5t-11.5 32.5q0 25 18.5 42.5t43.5 17.5q20 0 33 -13.5t13 -33.5z" />
    <glyph glyph-name="quotesinglbase" unicode="&#x201a;" horiz-adv-x="230" 
d="M174 51q0 -44 -38 -107t-61 -63q-17 0 -17 14q0 18 21 47t29 48q-19 2 -30.5 15.5t-11.5 32.5q0 24 19 42t43 18q20 0 33 -13.5t13 -33.5z" />
    <glyph glyph-name="quotedblleft" unicode="&#x201c;" horiz-adv-x="369" 
d="M139 555q0 43 38.5 106.5t61.5 63.5q17 0 17 -14q0 -18 -21 -47t-29 -48q19 -2 30 -15.5t11 -32.5q0 -25 -18.5 -42.5t-43.5 -17.5q-20 0 -33 13.5t-13 33.5zM279 555q0 44 39 107t61 63q17 0 17 -14q0 -18 -21 -47t-29 -48q19 -2 30 -15.5t11 -32.5q0 -25 -18.5 -42.5
t-43.5 -17.5q-20 0 -33 13.5t-13 33.5z" />
    <glyph glyph-name="quotedblright" unicode="&#x201d;" horiz-adv-x="369" 
d="M403 672q-7 -49 -42.5 -106.5t-56.5 -57.5q-17 0 -17 14q0 18 21 47t29 48q-19 2 -30.5 15.5t-11.5 32.5q0 24 19 42t43 18q22 0 35.5 -15.5t10.5 -37.5zM263 672q-7 -49 -43 -106.5t-56 -57.5q-17 0 -17 14q0 18 21 47t29 48q-19 2 -30.5 15.5t-11.5 32.5
q0 25 18.5 42.5t43.5 17.5q22 0 35.5 -15.5t10.5 -37.5z" />
    <glyph glyph-name="quotedblbase" unicode="&#x201e;" horiz-adv-x="369" 
d="M314 51q0 -44 -38 -107t-61 -63q-17 0 -17 15q0 18 21 46.5t29 47.5q-18 1 -30 15t-12 33q0 25 18.5 42.5t43.5 17.5q20 0 33 -13.5t13 -33.5zM174 51q0 -44 -38.5 -107t-60.5 -63q-17 0 -17 14q0 19 21 47.5t29 47.5q-18 1 -30 15t-12 33q0 25 18.5 42.5t43.5 17.5
q20 0 33 -13.5t13 -33.5z" />
    <glyph glyph-name="dagger" unicode="&#x2020;" horiz-adv-x="432" 
d="M508 478q0 -16 -13 -28t-29 -12h-150l-70 -501q-1 -9 -5 -22t-16.5 -22t-26.5 -9q-13 0 -22.5 9t-10.5 22q0 8 2 22l70 501h-150q-3 0 -9 2q-22 7 -22 30q0 16 12 28t29 12h150l23 162q2 14 4 21q4 13 16.5 22.5t26.5 9.5t23.5 -9t9.5 -23t-1 -21l-23 -162h150q4 0 9 -3
q23 -5 23 -29z" />
    <glyph glyph-name="daggerdbl" unicode="&#x2021;" horiz-adv-x="574" 
d="M515 44q0 -16 -13 -28t-30 -12h-149l-24 -171q-1 -8 -5 -19q-5 -13 -17 -22t-25 -9q-14 0 -23 9t-10 22v6v7v6l24 171h-149q-14 0 -23 9t-9 23q0 17 12.5 28.5t29.5 11.5h149l51 362h-149q-14 0 -23 9t-9 23q0 16 13 28.5t30 12.5h149l24 174q2 6 3 8q5 14 17 23t26 9
q16 0 26 -11.5t8 -28.5l-24 -174h149q13 0 22.5 -9.5t9.5 -23.5q0 -16 -13 -28t-30 -12h-149l-51 -362h149q14 0 23.5 -9t9.5 -23z" />
    <glyph glyph-name="bullet" unicode="&#x2022;" horiz-adv-x="303" 
d="M269 283q0 -35 -27 -61t-63 -26q-28 0 -47.5 20t-19.5 49q0 34 27 60t62 26q29 0 48.5 -20t19.5 -48z" />
    <glyph glyph-name="ellipsis" unicode="&#x2026;" horiz-adv-x="583" 
d="M529 50q0 -24 -19 -42t-43 -18q-20 0 -33 14t-13 34q0 24 18.5 42t42.5 18q20 0 33.5 -14t13.5 -34zM352 50q0 -24 -18.5 -42t-43.5 -18q-20 0 -33.5 14t-13.5 34q0 24 19 42t43 18q20 0 33.5 -14t13.5 -34zM175 50q0 -24 -18.5 -42t-43.5 -18q-20 0 -33 14t-13 34
q0 24 18.5 42t42.5 18q20 0 33.5 -14t13.5 -34z" />
    <glyph glyph-name="guilsinglleft" unicode="&#x2039;" horiz-adv-x="318" 
d="M168 258l111 -208q3 -6 3 -13q0 -18 -13.5 -31.5t-32.5 -13.5q-21 0 -35 27l-124 237l184 229q21 26 41 26q13 0 23 -9.5t10 -23.5q0 -13 -8 -23z" />
    <glyph glyph-name="guilsinglright" unicode="&#x203a;" horiz-adv-x="318" 
d="M53 50l169 208l-103 197q-3 6 -3 14q0 17 14 29.5t30 12.5q20 0 33 -26l120 -229l-191 -237q-21 -27 -42 -27q-16 0 -25.5 10.5t-9.5 25.5q0 12 8 22z" />
    <glyph glyph-name="fraction" unicode="&#x2044;" horiz-adv-x="310" 
d="M415 687l-359 -725q-15 -30 -45 -25q-26 5 -26 34q0 11 2 14q2 2 3 4l359 724q14 29 45 24q11 -2 18 -12t7 -22q0 -8 -4 -16z" />
    <glyph glyph-name="zerosuperior" unicode="&#x2070;" 
d="M223 708q-55 0 -65 -68l-21 -149q-4 -28 8.5 -44.5t38.5 -16.5t42.5 16.5t20.5 44.5l21 149q10 68 -45 68zM229 754q51 0 72 -33t14 -85l-21 -145q-6 -47 -36.5 -76.5t-79.5 -29.5t-73 30t-18 76l21 145q7 52 38 85t83 33z" />
    <glyph glyph-name="foursuperior" unicode="&#x2074;" 
d="M269 462l-7 -55q-1 -9 -9.5 -15.5t-18.5 -6.5q-11 0 -17 6.5t-4 15.5l7 55h-117q-12 0 -18 7.5t-4 18.5q3 8 7 13l129 237q7 15 21 15q8 0 14.5 -6.5t6.5 -16.5q0 -5 -3 -11l-113 -211h84l13 91q3 24 28 24q10 0 16 -7t5 -17l-13 -91h15q9 0 14.5 -6t5.5 -14
q0 -10 -8 -18t-19 -8h-15z" />
    <glyph glyph-name="fivesuperior" unicode="&#x2075;" 
d="M296 520q0 -52 -32 -93.5t-89 -41.5q-29 0 -62.5 8t-33.5 29q0 11 8.5 19t19.5 8q5 0 12 -5q24 -15 52 -15q40 0 58 25.5t18 59.5q0 28 -13 42t-35 14q-16 0 -34 -10l-14 -8q-10 -6 -17 -6q-10 0 -16 7.5t-4 17.5l23 146q2 13 12 20.5t21 7.5h118q24 0 24 -21
q0 -26 -30 -26h-102l-18 -95q21 10 44 10q42 0 66 -24.5t24 -68.5z" />
    <glyph glyph-name="sixsuperior" unicode="&#x2076;" 
d="M234 703q-67 0 -85 -108q32 17 64 17q40 0 64 -23.5t24 -69.5q0 -56 -32.5 -95t-90.5 -39q-90 0 -90 123q0 109 37.5 175t108.5 66q13 0 27.5 -1.5t31.5 -9t17 -20.5q0 -9 -8 -16.5t-18 -7.5l-12 3q-20 6 -38 6zM140 538l-1 -8q-14 -98 47 -98q35 0 51.5 24t16.5 57
q0 53 -49 53q-28 0 -65 -28z" />
    <glyph glyph-name="sevensuperior" unicode="&#x2077;" 
d="M326 722q0 -7 -4 -17l-164 -307q-6 -13 -24 -13q-9 0 -15.5 7t-6.5 18q3 4 4 6l152 280h-127q-9 0 -15.5 6t-6.5 14q0 12 8.5 20.5t20.5 8.5h158q8 0 14 -6.5t6 -16.5z" />
    <glyph glyph-name="eightsuperior" unicode="&#x2078;" 
d="M304 501q0 -50 -36 -83t-91 -33q-45 0 -73 25t-28 65q0 65 70 101q-35 28 -35 68q0 46 34.5 75.5t81.5 29.5q39 0 63.5 -23t24.5 -59q0 -55 -52 -88q41 -29 41 -78zM268 660q0 20 -13 31.5t-34 11.5q-25 0 -43 -15.5t-18 -40.5q0 -19 13 -32t33 -17q26 7 44 23.5t18 38.5
zM257 496q0 22 -17.5 37.5t-40.5 21.5q-31 -9 -52.5 -28.5t-21.5 -44.5q0 -23 16.5 -38t41.5 -15q30 0 52 20t22 47z" />
    <glyph glyph-name="ninesuperior" unicode="&#x2079;" 
d="M171 429q67 0 85 108q-26 -17 -64 -17q-40 0 -65.5 24.5t-25.5 68.5q0 57 32 96.5t92 39.5q90 0 90 -122q0 -112 -35 -177t-109 -65q-77 0 -77 28q0 14 9 22.5t19 3.5l11 -5q12 -5 38 -5zM264 592l1 8q14 100 -48 100q-34 0 -49.5 -24t-15.5 -57q0 -51 49 -51q31 0 63 24
z" />
    <glyph glyph-name="parenleftsuperior" unicode="&#x207d;" horiz-adv-x="138" 
d="M150 510q0 -80 25 -142q2 -6 2 -11q0 -9 -7 -17t-19 -8q-13 0 -18 11q-32 70 -32 173q0 63 26 134t67 129q9 14 21 14q20 0 20 -24q0 -7 -6 -15l-1 -2q-78 -110 -78 -242z" />
    <glyph glyph-name="parenrightsuperior" unicode="&#x207e;" horiz-adv-x="137" 
d="M142 612q0 83 -25 142l-1 2q-3 4 -3 9q0 10 8 19t21 9q10 0 19 -14q29 -69 29 -167q0 -145 -90 -269q-10 -11 -23 -11q-22 0 -22 24l10 14q77 115 77 242z" />
    <glyph glyph-name="zeroinferior" unicode="&#x2080;" 
d="M162 276q-55 0 -65 -68l-21 -149q-4 -28 8.5 -44.5t38.5 -16.5t42.5 16.5t20.5 44.5l21 149q10 68 -45 68zM168 322q51 0 72 -33t14 -85l-21 -145q-6 -47 -36.5 -76.5t-79.5 -29.5t-73 30t-18 76l21 145q7 52 38 85t83 33z" />
    <glyph glyph-name="oneinferior" unicode="&#x2081;" 
d="M123 -25l40 278l-58 -36q-14 -9 -24 -9q-9 0 -15 5.5t-6 13.5q0 13 16 24l106 61q8 5 15 5q11 0 16.5 -7.5t4.5 -19.5l-45 -315q-1 -8 -9 -15t-18 -7q-11 0 -17.5 6.5t-5.5 15.5z" />
    <glyph glyph-name="twoinferior" unicode="&#x2082;" 
d="M224 -18q0 -11 -7.5 -17.5t-17.5 -6.5h-162q-24 0 -24 20q0 9 8 24q25 44 104 112q43 39 49 46q35 29 35 67q0 22 -12.5 35.5t-35.5 13.5q-19 0 -46 -9l-13 -6q-14 -7 -20 -7q-9 0 -16 5.5t-7 13.5q0 12 9 19q50 30 99 30q43 0 66.5 -24t23.5 -62q0 -58 -48 -108
q-11 -11 -37 -33l-11 -10q-60 -49 -83 -81h127q8 0 13.5 -6.5t5.5 -15.5z" />
    <glyph glyph-name="threeinferior" unicode="&#x2083;" 
d="M248 267l-92 -100q35 -3 57 -26t22 -60q0 -46 -32.5 -87t-88.5 -41q-28 0 -61.5 8t-33.5 29q0 11 8 19t20 8q3 0 14 -6q22 -14 50 -14q39 0 57.5 24.5t18.5 54.5q0 50 -55 50q-11 0 -17 -3l-4 -2q-1 -1 -8 -1q-13 0 -17.5 12.5t5.5 23.5l97 108h-99q-10 0 -16.5 5.5
t-6.5 13.5q0 12 9 21t21 9h137q21 0 21 -24q0 -16 -6 -22z" />
    <glyph glyph-name="fourinferior" unicode="&#x2084;" 
d="M208 30l-7 -55q-1 -9 -9.5 -15.5t-18.5 -6.5q-11 0 -17 6.5t-4 15.5l7 55h-117q-12 0 -18 7.5t-4 18.5q3 8 7 13l129 237q8 15 21 15q8 0 14.5 -6.5t6.5 -16.5q0 -5 -3 -11l-113 -211h84l13 91q3 24 28 24q10 0 16 -7t5 -17l-13 -91h15q9 0 14.5 -6t5.5 -14q0 -10 -8 -18
t-19 -8h-15z" />
    <glyph glyph-name="fiveinferior" unicode="&#x2085;" 
d="M236 88q0 -52 -32 -93.5t-89 -41.5q-29 0 -62.5 8t-33.5 29q0 11 8 19t20 8q5 0 12 -5q24 -15 52 -15q40 0 58 25.5t18 59.5q0 28 -13 42t-35 14q-16 0 -34 -10l-14 -8q-10 -6 -17 -6q-10 0 -16 7.5t-4 17.5l23 146q2 13 12 20.5t21 7.5h118q24 0 24 -21q0 -26 -30 -26
h-102l-18 -95q21 10 44 10q42 0 66 -24.5t24 -68.5z" />
    <glyph glyph-name="sixinferior" unicode="&#x2086;" 
d="M173 271q-67 0 -85 -108q32 17 64 17q40 0 64 -23.5t24 -69.5q0 -57 -32 -95.5t-91 -38.5q-90 0 -90 123q0 109 37.5 175t108.5 66q13 0 27.5 -1.5t31.5 -9t17 -20.5q0 -9 -8 -16.5t-18 -7.5l-12 3q-20 6 -38 6zM79 106l-1 -8q-14 -98 47 -98q35 0 51.5 24t16.5 57
q0 53 -49 53q-28 0 -65 -28z" />
    <glyph glyph-name="seveninferior" unicode="&#x2087;" 
d="M266 290q0 -7 -4 -17l-164 -307q-6 -13 -24 -13q-9 0 -15.5 7t-6.5 18q3 4 4 6l152 280h-127q-9 0 -15.5 6t-6.5 14q0 12 8.5 20.5t20.5 8.5h158q8 0 14 -6.5t6 -16.5z" />
    <glyph glyph-name="eightinferior" unicode="&#x2088;" 
d="M244 69q0 -50 -36 -83t-91 -33q-45 0 -73 25t-28 65q0 65 70 101q-35 28 -35 68q0 46 34.5 75.5t81.5 29.5q39 0 63.5 -23t24.5 -59q0 -55 -52 -88q41 -29 41 -78zM208 228q0 20 -13 31.5t-34 11.5q-25 0 -43 -15.5t-18 -40.5q0 -19 13 -32t33 -17q26 7 44 23.5t18 38.5z
M197 64q0 22 -17.5 37.5t-40.5 21.5q-31 -9 -52.5 -28.5t-21.5 -44.5q0 -23 16.5 -38t41.5 -15q30 0 52 20t22 47z" />
    <glyph glyph-name="nineinferior" unicode="&#x2089;" 
d="M110 -3q67 0 85 108q-26 -17 -64 -17q-40 0 -65.5 24.5t-25.5 68.5q0 57 32 96.5t92 39.5q90 0 90 -122q0 -112 -35 -177t-109 -65q-77 0 -77 28q0 14 9 22.5t19 3.5l11 -5q12 -5 38 -5zM203 160l1 8q14 100 -48 100q-34 0 -49.5 -24t-15.5 -57q0 -51 49 -51q31 0 63 24z
" />
    <glyph glyph-name="parenleftinferior" unicode="&#x208d;" horiz-adv-x="138" 
d="M89 78q0 -80 25 -142q2 -6 2 -11q0 -9 -7.5 -17t-18.5 -8q-12 0 -18 11q-32 70 -32 173q0 63 26 134t67 129q9 14 21 14q20 0 20 -24q0 -7 -6 -15l-1 -2q-78 -110 -78 -242z" />
    <glyph glyph-name="parenrightinferior" unicode="&#x208e;" horiz-adv-x="137" 
d="M82 180q0 83 -25 142l-1 2q-3 4 -3 9q0 10 8 19t21 9q10 0 19 -14q29 -69 29 -167q0 -145 -90 -269q-10 -11 -23 -11q-22 0 -22 24l10 14q77 115 77 242z" />
    <glyph glyph-name="Euro" unicode="&#x20ac;" horiz-adv-x="500" 
d="M113 454h46l5 36q15 105 72.5 165t154.5 60q66 0 115.5 -24.5t49.5 -57.5q0 -16 -12 -27.5t-29 -11.5q-6 0 -10.5 1.5t-12 7l-11.5 8.5q-40 31 -96 31q-65 0 -98 -38.5t-43 -113.5l-5 -36h182q14 0 24 -9.5t10 -23.5q0 -17 -13.5 -29t-31.5 -12h-182l-7 -56h142
q14 0 24 -9.5t10 -23.5q0 -17 -13.5 -29t-31.5 -12h-142l-5 -34q-11 -74 11.5 -113t87.5 -39q55 0 104 31l11.5 7t10 5.5t8 3t9.5 1.5q14 0 22.5 -9t8.5 -22q0 -36 -58.5 -63t-130.5 -27q-97 0 -138 60t-26 165l5 34h-46q-15 0 -24.5 9.5t-9.5 23.5q0 17 14 29t31 12h46
l7 56h-46q-15 0 -24.5 9.5t-9.5 23.5q0 17 14 29t31 12z" />
    <glyph glyph-name="uni20B4" unicode="&#x20b4;" horiz-adv-x="500" 
d="M120 454h256q62 71 62 126q0 30 -23 43.5t-73 13.5q-51 0 -89.5 -14t-48.5 -14q-17 0 -26.5 10t-9.5 24q0 21 20 36t51 22.5t59.5 10.5t54.5 3q80 0 124 -32t44 -97q0 -70 -52 -132h39q14 0 24 -9.5t10 -23.5q0 -17 -13.5 -29t-31.5 -12h-110q-10 -8 -36.5 -27l-39.5 -29
h179q14 0 24 -9.5t10 -23.5q0 -17 -13.5 -29t-31.5 -12h-248q-58 -70 -58 -126q0 -28 21 -42t73 -14q56 0 105.5 17.5t56.5 17.5q14 0 22.5 -10.5t8.5 -24.5q0 -38 -64.5 -58t-133.5 -20q-80 0 -127.5 35t-47.5 102t45 123h-41q-15 0 -24.5 9.5t-9.5 23.5q0 17 14 29t31 12
h111l38 27l41 29h-183q-15 0 -24.5 9.5t-9.5 23.5q0 17 14 29t31 12z" />
    <glyph glyph-name="uni20BD" unicode="&#x20bd;" horiz-adv-x="500" 
d="M97 338h39l45 319q3 20 19 34t35 14h117q102 0 149.5 -52.5t47.5 -135.5q0 -120 -71 -188.5t-188 -68.5h-85l-7 -52h149q14 0 24 -9.5t10 -23.5q0 -17 -13.5 -29t-31.5 -12h-149l-14 -102q-2 -16 -16 -29t-30 -13t-26 12.5t-8 29.5l14 102h-39q-15 0 -24.5 9.5t-9.5 23.5
q0 17 14 29t31 12h39l7 56h-39q-15 0 -24.5 9.5t-9.5 23.5q0 17 14 29t31 12zM256 627l-40 -289h85q168 0 168 171q0 118 -128 118h-85z" />
    <glyph glyph-name="trademark" unicode="&#x2122;" horiz-adv-x="773" 
d="M823 682l-53 -375q-1 -11 -11.5 -19.5t-21.5 -8.5q-12 0 -19.5 8.5t-5.5 19.5l38 268l-119 -189q-12 -18 -31 -18q-20 0 -27 18l-65 189l-38 -268q-1 -11 -11.5 -19.5t-21.5 -8.5q-12 0 -19 8.5t-5 19.5l53 375q1 13 11 22t24 9q20 0 27 -18l84 -241l151 241q11 18 33 18
q12 0 20.5 -9.5t6.5 -21.5zM414 682q0 -13 -10 -22.5t-24 -9.5h-95l-48 -342q-2 -12 -11.5 -20.5t-22.5 -8.5t-20.5 8.5t-5.5 20.5l48 342h-94q-11 0 -18.5 7t-7.5 18q0 13 10 23t24 10h249q11 0 18.5 -7.5t7.5 -18.5z" />
    <glyph glyph-name="estimated" unicode="&#x212e;" horiz-adv-x="903" 
d="M825 317h-605q-5 0 -5 -4v-183q0 -10 9 -21q93 -99 229 -99q145 0 240 111h55q-52 -61 -130 -96t-166 -35q-155 0 -264.5 98.5t-109.5 237.5t109.5 237.5t264.5 98.5t264 -98.5t109 -237.5v-9zM689 341v184q0 12 -10 22q-95 95 -226 95q-133 0 -228 -98q-10 -10 -10 -23
v-180q0 -5 5 -5h464q5 0 5 5z" />
    <glyph glyph-name="arrowleft" unicode="&#x2190;" horiz-adv-x="559" 
d="M504 353q0 -15 -11 -25.5t-25 -10.5h-299l148 -171q5 -7 5 -17q0 -17 -11 -29t-29 -12q-3 0 -6 0.5t-5.5 1t-5 2.5t-4 3t-4.5 4t-4 4.5t-4.5 5.5t-4.5 6l-179 214q-19 23 0 46l173 206q2 2 5 6t4.5 5.5l4.5 4.5t5 4.5t5 3t6 2t7 0.5q14 0 26 -11t12 -26q0 -12 -5 -19
l-140 -161h300q15 0 25.5 -11t10.5 -26z" />
    <glyph glyph-name="arrowup" unicode="&#x2191;" horiz-adv-x="629" 
d="M309 81q-15 0 -26 10.5t-11 25.5v379l-161 -139q-5 -5 -19 -5q-15 0 -26 12t-11 26q0 4 1 8t2.5 6.5t4.5 6t5 5t6.5 6t6.5 5.5l206 173q23 19 46 0l214 -179q2 -1 6 -4.5t5.5 -4.5t4.5 -4t4 -4.5t3 -4t2.5 -5t1 -5.5t0.5 -6q0 -18 -12 -29t-29 -11q-12 0 -17 5l-171 148
v-379q0 -14 -10.5 -25t-25.5 -11z" />
    <glyph glyph-name="arrowright" unicode="&#x2192;" horiz-adv-x="559" 
d="M55 353q0 15 10.5 26t25.5 11h299l-139 161q-5 8 -5 19q0 15 12 26t26 11q4 0 8 -1t6.5 -2.5t6 -4.5t5 -5t6 -6.5t5.5 -6.5l173 -206q19 -23 0 -46l-179 -214q-1 -2 -4.5 -6t-4.5 -5.5t-4 -4.5t-4.5 -4t-4 -3t-5 -2.5t-5.5 -1t-6 -0.5q-18 0 -29 12t-11 29q0 9 5 17
l148 171h-299q-14 0 -25 10.5t-11 25.5z" />
    <glyph glyph-name="arrowdown" unicode="&#x2193;" horiz-adv-x="629" 
d="M309 613q15 0 25.5 -11t10.5 -25v-379l171 148q5 5 17 5q17 0 29 -11t12 -29q0 -3 -0.5 -6t-1 -5.5t-2.5 -5t-3 -4t-4 -4.5t-4.5 -4t-5.5 -4.5t-6 -4.5l-214 -179q-23 -19 -46 0l-206 173q-2 2 -6 5t-5.5 4.5l-4.5 4.5t-4.5 5t-3 5t-2 6t-0.5 7q0 14 11 26t26 12
q14 0 19 -5l161 -140v380q0 15 11 25.5t26 10.5z" />
    <glyph glyph-name="uni2196" unicode="&#x2196;" horiz-adv-x="529" 
d="M463 155q-11 -11 -26 -11t-26 10l-269 269l-14 -213q0 -7 -10 -17q-12 -11 -28 -10t-25 11q-12 12 -8 44l23 268q3 30 33 33l278 25q15 3 26 2t20 -10q12 -13 11.5 -29t-12.5 -28q-9 -9 -16 -9l-226 -17l269 -267q10 -11 10 -25.5t-10 -25.5z" />
    <glyph glyph-name="uni2197" unicode="&#x2197;" horiz-adv-x="532" 
d="M67 163q-11 10 -11.5 25.5t10.5 25.5l268 268l-212 16q-7 0 -17 10q-11 12 -10.5 27.5t10.5 25.5q8 8 20.5 9t24.5 -1l268 -24q29 -3 32 -32l25 -278q3 -15 2 -26t-10 -20q-13 -12 -29 -11.5t-28 12.5q-8 8 -8 15l-17 226l-268 -268q-10 -11 -24.5 -11t-25.5 11z" />
    <glyph glyph-name="uni2198" unicode="&#x2198;" horiz-adv-x="529" 
d="M66 539q11 11 26 11t26 -10l268 -270l15 214q0 7 10 17q12 11 28 10t25 -11q12 -12 8 -44l-23 -268q-3 -30 -33 -33l-278 -25q-15 -3 -26 -2t-20 10q-12 13 -11.5 29t12.5 28q9 9 16 9l225 16l-268 268q-10 11 -10 25.5t10 25.5z" />
    <glyph glyph-name="uni2199" unicode="&#x2199;" horiz-adv-x="532" 
d="M465 531q11 -10 11.5 -25.5t-10.5 -25.5l-268 -269l212 -15q7 0 17 -10q11 -12 10.5 -27.5t-10.5 -25.5q-8 -8 -20.5 -9t-24.5 1l-268 24q-29 3 -32 32l-25 278q-3 15 -2 26t10 20q13 12 29 11.5t28 -12.5q8 -8 8 -15l16 -226l269 268q10 11 24.5 11t25.5 -11z" />
    <glyph glyph-name="minus" unicode="&#x2212;" horiz-adv-x="500" 
d="M121 393h338q15 0 27 -11.5t12 -27.5t-11 -27.5t-28 -11.5h-338q-17 0 -28 11.5t-11 27.5t12 27.5t27 11.5z" />
    <glyph glyph-name="triagup" unicode="&#x25b2;" horiz-adv-x="758" 
d="M646 0h-534q-42 0 -52.5 17t8.5 55l275 549q13 26 24.5 34t23 0t24.5 -34l275 -549q19 -38 8.5 -55t-52.5 -17z" />
    <glyph glyph-name="triagrt" unicode="&#x25ba;" horiz-adv-x="785" 
d="M55 65v547q0 42 17 52.5t55 -8.5l564 -282q26 -13 34 -24.5t0 -23t-34 -24.5l-564 -281q-38 -19 -55 -8.5t-17 52.5z" />
    <glyph glyph-name="triagdn" unicode="&#x25bc;" horiz-adv-x="758" 
d="M112 678h534q42 0 52.5 -17t-8.5 -55l-275 -549q-13 -26 -24.5 -34t-23 0t-24.5 34l-275 549q-19 38 -8.5 55t52.5 17z" />
    <glyph glyph-name="triaglf" unicode="&#x25c4;" horiz-adv-x="785" 
d="M94 374l564 282q38 19 55 8.5t17 -52.5v-547q0 -42 -17 -52.5t-55 8.5l-564 281q-26 13 -34 24.5t0 23t34 24.5z" />
    <glyph glyph-name="uni2639" unicode="&#x2639;" horiz-adv-x="733" 
d="M678 253q0 -127 -91.5 -219t-219.5 -92t-220 91.5t-92 219.5t92 219.5t220 91.5t219.5 -91.5t91.5 -219.5zM633 253q0 109 -78.5 187.5t-187.5 78.5t-187.5 -78t-78.5 -188t78 -188t188 -78q109 0 187.5 78.5t78.5 187.5zM287 317q0 -16 -12 -27.5t-28 -11.5t-27.5 11.5
t-11.5 27.5t11.5 28t27.5 12q17 0 28.5 -11.5t11.5 -28.5zM525 317q0 -16 -11.5 -27.5t-27.5 -11.5t-28 11.5t-12 27.5q0 17 12 28.5t28 11.5t27.5 -11.5t11.5 -28.5zM253 78l-30 17q51 95 144 95q94 0 143 -95l-30 -17q-40 70 -113 70q-74 0 -114 -70z" />
    <glyph glyph-name="uni263A" unicode="&#x263a;" horiz-adv-x="733" 
d="M678 253q0 -127 -91.5 -219t-219.5 -92t-220 91.5t-92 219.5t92 219.5t220 91.5t219.5 -91.5t91.5 -219.5zM633 253q0 109 -78.5 187.5t-187.5 78.5t-187.5 -78t-78.5 -188t78 -188t188 -78q109 0 187.5 78.5t78.5 187.5zM287 317q0 -16 -12 -27.5t-28 -11.5t-27.5 11.5
t-11.5 27.5t11.5 28t27.5 12q17 0 28.5 -11.5t11.5 -28.5zM525 317q0 -16 -11.5 -27.5t-27.5 -11.5t-28 11.5t-12 27.5q0 17 12 28.5t28 11.5t27.5 -11.5t11.5 -28.5zM223 153l30 17q40 -70 114 -70q73 0 113 70l30 -17q-49 -95 -143 -95q-93 0 -144 95z" />
    <glyph glyph-name="uni263B" unicode="&#x263b;" horiz-adv-x="732" 
d="M677 253q0 -128 -91 -219.5t-220 -91.5q-128 0 -219.5 91.5t-91.5 219.5q0 129 91.5 220t219.5 91t219.5 -91.5t91.5 -219.5zM286 317q0 17 -11.5 28.5t-27.5 11.5q-17 0 -28.5 -11.5t-11.5 -28.5q0 -16 12 -27.5t28 -11.5t27.5 11.5t11.5 27.5zM525 317q0 16 -11.5 28
t-27.5 12t-28 -11.5t-12 -28.5q0 -16 12 -27.5t28 -11.5t27.5 11.5t11.5 27.5zM253 170l-30 -17q51 -95 143 -95q93 0 144 95l-31 17q-38 -70 -113 -70q-73 0 -113 70z" />
    <glyph glyph-name="uni2661" unicode="&#x2661;" horiz-adv-x="642" 
d="M312 393q3 -17 9 -18q4 2 9 18q38 123 131 123q51 0 88.5 -35t37.5 -107q0 -29 -12 -55.5t-28 -49l-75 -101.5q-58 -77 -113 -164q-18 -29 -38 -29t-38 29q-54 86 -113 164q-87 115 -101 142q-14 29 -14 64q0 72 37.5 107t87.5 35q45 0 80 -30.5t52 -92.5zM317 25
q2 -5 4 -5q1 0 4 5l131 187l31.5 44t24.5 35.5l15.5 24t12 22t5 18t2.5 21.5q0 49 -26 74t-59 25q-18 0 -33 -8t-26.5 -24t-18 -28.5t-15.5 -33.5q-21 -49 -48 -49q-26 0 -48 49q-13 30 -22 46.5t-28 32t-43 15.5q-33 0 -59 -25t-26 -74q0 -11 2.5 -21.5t5 -18t12 -22
l15.5 -24t24.5 -35.5l31.5 -44z" />
    <glyph glyph-name="uni2665" unicode="&#x2665;" horiz-adv-x="642" 
d="M312 393q10 -34 20 0q35 123 127 123q54 0 91 -36t37 -94q0 -47 -25 -92.5t-80 -116.5q-56 -72 -70.5 -93t-50.5 -80q-17 -29 -39 -29q-21 0 -39 29q-54 85 -113 164q-87 115 -101 142q-14 29 -14 64q0 72 37.5 107t88.5 35q43 0 78.5 -30.5t52.5 -92.5z" />
    <glyph glyph-name="uni266A" unicode="&#x266a;" horiz-adv-x="510" 
d="M242 189v477q144 0 194.5 -37.5t50.5 -152.5q0 -28 -5.5 -38.5t-18.5 -11.5q-23 1 -24 25q0 50 -36.5 76.5t-98.5 26.5h-13v-408q0 -164 -153 -164q-52 0 -83.5 29.5t-31.5 79.5q0 52 37.5 86.5t96.5 34.5q40 0 85 -23z" />
    <glyph glyph-name="uni266B" unicode="&#x266b;" horiz-adv-x="760" 
d="M266 145v396q0 80 76 104l236 73q40 13 58 -0.5t18 -55.5v-461q0 -162 -150 -162q-53 0 -85 30t-32 79q0 50 38.5 85t96.5 35q30 0 83 -21v323q0 30 -29 21l-233 -72q-29 -9 -29 -39v-378q0 -165 -152 -165q-52 0 -83.5 30t-31.5 79q0 52 37.5 86.5t96.5 34.5
q38 0 85 -22z" />
    <glyph glyph-name="typography.com.ua" unicode="&#xe020;" horiz-adv-x="885" 
d="M840 471q-5 -35 -42 -30q-16 2 -28 2q-26 0 -45.5 -17.5t-24.5 -46.5l-27 -155h83q16 0 26.5 -11t10.5 -26q0 -16 -10.5 -27t-26.5 -11h-97l-37 -213q-15 -83 -47.5 -125.5t-97.5 -42.5q-29 0 -43 1.5t-26 9.5t-12 25t11 27t28 10q3 0 13 -0.5t16 -0.5q37 0 53.5 21
t25.5 69l38 219h-128v-119q0 -16 -11.5 -27.5t-27.5 -11.5t-27.5 11.5t-11.5 27.5v119h-250q-18 0 -29.5 12.5t-11.5 30.5q0 11 8 27l192 481q10 23 34 23q14 0 26.5 -11.5t12.5 -31.5q0 -5 -2 -10l-179 -446h199v251q0 17 11.5 28t27.5 11t27.5 -11.5t11.5 -27.5v-251h141
l30 167q10 57 51 90t108 33q32 0 46.5 -9.5t10.5 -33.5z" />
    <glyph glyph-name="commaaccent" unicode="&#xf6c3;" horiz-adv-x="310" 
d="M194 -98q0 -38 -36 -89t-59 -51q-17 0 -17 15q0 13 19.5 32.5t26.5 31.5q-18 1 -30 15t-12 33q0 25 18.5 42.5t43.5 17.5q20 0 33 -13.5t13 -33.5z" />
    <glyph glyph-name="commainferior" unicode="&#xf6e1;" horiz-adv-x="115" 
d="M84 -13q0 -23 -20.5 -56t-32.5 -33q-14 0 -14 11q0 9 14 27l11 18q-21 8 -21 25q0 15 11 25.5t27 10.5q11 0 18 -8t7 -20z" />
    <glyph glyph-name="commasuperior" unicode="&#xf6e2;" horiz-adv-x="115" 
d="M145 419q0 -23 -20.5 -56t-32.5 -33q-14 0 -14 11q0 9 14 27l11 18q-21 8 -21 25q0 15 11 25.5t27 10.5q11 0 18 -8t7 -20z" />
    <glyph glyph-name="hypheninferior" unicode="&#xf6e5;" horiz-adv-x="199" 
d="M197 108q0 -10 -7.5 -17.5t-17.5 -7.5h-123q-21 0 -21 20q0 11 8 19t20 8h123q18 0 18 -22z" />
    <glyph glyph-name="hyphensuperior" unicode="&#xf6e6;" horiz-adv-x="199" 
d="M257 540q0 -10 -7.5 -17.5t-17.5 -7.5h-123q-21 0 -21 20q0 11 8 19t20 8h123q18 0 18 -22z" />
    <glyph glyph-name="periodinferior" unicode="&#xf6e7;" horiz-adv-x="115" 
d="M84 -13q0 -15 -10 -24.5t-24 -9.5q-13 0 -21 7.5t-8 18.5q0 15 11 25.5t27 10.5q11 0 18 -8t7 -20z" />
    <glyph glyph-name="periodsuperior" unicode="&#xf6e8;" horiz-adv-x="115" 
d="M145 419q0 -15 -10 -24.5t-24 -9.5q-13 0 -21 7.5t-8 18.5q0 15 11 25.5t27 10.5q11 0 18 -8t7 -20z" />
    <glyph glyph-name="R.salt" unicode="&#xe0052;" horiz-adv-x="557" 
d="M204 365h115q60 0 109 42t49 118q0 45 -24.5 74t-79.5 29h-132zM157 30q-2 -16 -16 -28t-30 -12t-26 12t-8 28l88 628q3 20 19 34t36 14h169q82 0 125.5 -50.5t43.5 -124.5q0 -79 -40.5 -126.5t-116.5 -81.5q47 -20 61.5 -58t14.5 -131q0 -30 7.5 -46.5t31.5 -26.5
q38 -16 24 -47q-10 -22 -41 -22q-5 0 -14 1q-52 6 -69 52.5t-17 144.5q0 18 -4 32.5t-14.5 30.5t-36 25t-63.5 9h-88z" />
    <glyph glyph-name="uni0414.BUL" unicode="&#xe0414;" horiz-adv-x="668" 
d="M13 -101l18 128q3 22 16 36.5t30 14.5h29l267 584q23 53 60 53q36 0 45 -53l102 -584h31q17 0 27 -14.5t7 -36.5l-18 -128q-2 -17 -15.5 -28t-30.5 -11t-26.5 11.5t-7.5 27.5l14 101h-456l-14 -101q-2 -17 -15 -28t-29 -11q-17 0 -26.5 11.5t-7.5 27.5zM413 576
l-222 -498h303z" />
    <glyph glyph-name="uni0416.BUL" unicode="&#xe0416;" horiz-adv-x="746" 
d="M508 675l-45 -318l285 339q16 19 35 19q15 0 24 -12t9 -27q0 -14 -8 -23l-237 -281l152 -320q3 -8 3 -14q0 -16 -13.5 -32t-31.5 -16q-20 0 -30 19l-142 289l-66 -79l-26 -188q-2 -17 -16 -29t-30 -12t-26 12t-8 29l26 188l-44 79l-222 -289q-16 -19 -36 -19
q-15 0 -23.5 12t-8.5 27q0 12 8 23l241 320l-156 281q-3 5 -3 14q0 16 13 32t31 16q21 0 31 -19l189 -339l45 318q2 16 15.5 28t29.5 12t26.5 -12t8.5 -28z" />
    <glyph glyph-name="uni041B.BUL" unicode="&#xe041b;" horiz-adv-x="549" 
d="M355 576l-247 -556q-6 -13 -18.5 -21.5t-23.5 -8.5q-16 0 -26.5 9.5t-10.5 25.5q0 13 5 20l281 617q25 53 60 53q21 0 30.5 -13.5t14.5 -39.5l108 -617v-3q1 -3 1 -5q0 -21 -14 -34t-34 -13q-12 0 -22.5 8.5t-12.5 21.5z" />
    <glyph glyph-name="uni0432.BUL" unicode="&#xe0432;" horiz-adv-x="468" 
d="M88 175l46 329q13 91 65 143t134 52q65 0 104 -36.5t39 -104.5q0 -137 -120 -189q97 -25 97 -138q0 -104 -55 -171.5t-159 -67.5q-84 0 -123.5 48.5t-27.5 134.5zM376 225q0 105 -116 105h-72l-22 -158q-15 -108 83 -108q64 0 95.5 43.5t31.5 117.5zM213 507l-15 -110h84
q37 0 76.5 36.5t39.5 107.5q0 42 -21.5 64t-58.5 22q-88 0 -105 -120z" />
    <glyph glyph-name="uni0433.BUL" unicode="&#xe0433;" horiz-adv-x="406" 
d="M409 391q0 -36 -11.5 -64.5t-29 -45t-43 -30.5t-48 -21t-49 -16.5t-41.5 -16.5q-46 -24 -46 -73q0 -63 82 -63q40 0 103 23q6 2 11 2q15 0 23.5 -9.5t8.5 -22.5q0 -23 -29.5 -37.5t-62 -19.5t-64.5 -5q-73 0 -111 33t-38 91q0 43 13.5 74t39.5 50t49 29.5t58.5 22.5
t51.5 19q33 16 45 31.5t12 43.5q0 59 -80 59q-38 0 -78 -18q-10 -5 -19 -5q-14 0 -22.5 9.5t-8.5 22.5q0 30 45 45t96 15q69 0 106 -33.5t37 -89.5z" />
    <glyph glyph-name="uni0434.BUL" unicode="&#xe0434;" horiz-adv-x="485" 
d="M348 107l35 246q6 42 -19 65.5t-74 23.5q-106 0 -120 -109l-22 -158q-16 -114 82 -114q69 0 118 46zM461 353l-56 -393q-11 -82 -63 -133t-141 -51q-46 0 -88.5 14t-42.5 43q0 15 11.5 26.5t27.5 11.5q7 0 15 -3q44 -23 78 -23q109 0 125 115l10 70q-63 -37 -133 -37
q-160 0 -134 182l22 158q11 80 65.5 130.5t142.5 50.5q85 0 128 -45.5t33 -115.5z" />
    <glyph glyph-name="uni0436.BUL" unicode="&#xe0436;" horiz-adv-x="628" 
d="M449 686l-52 -373l207 188q9 9 25 9q14 0 23.5 -9t9.5 -23q0 -17 -14 -30l-169 -150l134 -250q5 -10 3 -23q-7 -33 -41 -33q-20 0 -30 19l-121 236l-42 -37l-25 -179q-2 -17 -15 -28t-29 -11q-17 0 -26.5 11.5t-7.5 27.5l25 179l-31 37l-188 -236q-15 -19 -34 -19
q-14 0 -23.5 8.5t-9.5 21.5q0 16 9 26l204 250l-125 150q-7 8 -7 21q0 17 12.5 29t29.5 12t23 -9l155 -188l52 373q2 16 15 27.5t30 11.5q16 0 25.5 -11t7.5 -28z" />
    <glyph glyph-name="uni0437.BUL" unicode="&#xe0437;" horiz-adv-x="408" 
d="M403 362q0 -78 -31.5 -132.5t-98.5 -69.5q92 -20 92 -141q0 -110 -52 -176.5t-156 -66.5q-49 0 -95 13t-46 43q0 19 16.5 30.5t28.5 7.5l7 -2q60 -23 101 -23q119 0 119 163q0 25 -6 47.5t-30 44.5t-63 24q-34 2 -41 14q-4 6 -4 15q0 13 4.5 21t14 11.5t15 4t17.5 1.5
q41 2 69.5 21.5t41 48.5t17 52t4.5 44q0 88 -82 88q-41 0 -82 -18q-10 -5 -18 -5q-14 0 -23 9t-9 22q0 31 47.5 46t98.5 15q72 0 108 -40t36 -112z" />
    <glyph glyph-name="uni0438.BUL" unicode="&#xe0438;" horiz-adv-x="509" 
d="M370 123l49 350q2 17 13.5 27.5t30.5 10.5t27.5 -10.5t6.5 -27.5l-49 -350q-3 -20 -3 -33t1 -16.5t5 -11.5t5 -9q4 -12 4 -17q0 -15 -12.5 -26.5t-29.5 -11.5q-24 0 -39 30q-68 -36 -147 -36q-78 0 -111 51t-21 138l41 292q2 16 14 27t30 11t27 -11t7 -27l-41 -292
q-8 -57 11 -88t64 -31q58 0 115 33q0 12 2 28z" />
    </font>
</defs>
</svg>
